<?xml version="1.0" encoding="UTF-8" standalone="no"?>
<!-- Created with Inkscape (http://www.inkscape.org/) -->

<svg
   width="62.322792mm"
   height="49.40802mm"
   viewBox="0 0 62.322792 49.40802"
   version="1.1"
   id="svg5"
   inkscape:version="1.1.2 (0a00cf5339, 2022-02-04, custom)"
   sodipodi:docname="ellipse.svg"
   xmlns:inkscape="http://www.inkscape.org/namespaces/inkscape"
   xmlns:sodipodi="http://sodipodi.sourceforge.net/DTD/sodipodi-0.dtd"
   xmlns="http://www.w3.org/2000/svg"
   xmlns:svg="http://www.w3.org/2000/svg"
   xmlns:ns1="http://www.iki.fi/pav/software/textext/">
  <sodipodi:namedview
     id="namedview7"
     pagecolor="#ffffff"
     bordercolor="#cccccc"
     borderopacity="1"
     inkscape:pageshadow="0"
     inkscape:pageopacity="1"
     inkscape:pagecheckerboard="0"
     inkscape:document-units="mm"
     showgrid="false"
     inkscape:object-paths="true"
     inkscape:snap-intersection-paths="true"
     inkscape:snap-smooth-nodes="true"
     inkscape:snap-midpoints="true"
     inkscape:snap-center="true"
     inkscape:zoom="10.618967"
     inkscape:cx="154.29937"
     inkscape:cy="56.267242"
     inkscape:current-layer="layer1" />
  <defs
     id="defs2">
    <marker
       style="overflow:visible"
       id="Arrow2Mend"
       refX="0"
       refY="0"
       orient="auto"
       inkscape:stockid="Arrow2Mend"
       inkscape:isstock="true">
      <path
         transform="scale(-0.6)"
         d="M 8.7185878,4.0337352 -2.2072895,0.01601326 8.7185884,-4.0017078 c -1.7454984,2.3720609 -1.7354408,5.6174519 -6e-7,8.035443 z"
         style="fill:context-stroke;fill-rule:evenodd;stroke:context-stroke;stroke-width:0.625;stroke-linejoin:round"
         id="path1366" />
    </marker>
    <marker
       style="overflow:visible"
       id="Arrow2Mstart"
       refX="0"
       refY="0"
       orient="auto"
       inkscape:stockid="Arrow2Mstart"
       inkscape:isstock="true">
      <path
         transform="scale(0.6)"
         d="M 8.7185878,4.0337352 -2.2072895,0.01601326 8.7185884,-4.0017078 c -1.7454984,2.3720609 -1.7354408,5.6174519 -6e-7,8.035443 z"
         style="fill:context-stroke;fill-rule:evenodd;stroke:context-stroke;stroke-width:0.625;stroke-linejoin:round"
         id="path1363" />
    </marker>
    <marker
       style="overflow:visible"
       id="marker2075"
       refX="0"
       refY="0"
       orient="auto"
       inkscape:stockid="Arrow2Lend"
       inkscape:isstock="true">
      <path
         transform="matrix(-1.1,0,0,-1.1,-1.1,0)"
         d="M 8.7185878,4.0337352 -2.2072895,0.01601326 8.7185884,-4.0017078 c -1.7454984,2.3720609 -1.7354408,5.6174519 -6e-7,8.035443 z"
         style="fill:context-stroke;fill-rule:evenodd;stroke:context-stroke;stroke-width:0.625;stroke-linejoin:round"
         id="path2073" />
    </marker>
    <marker
       style="overflow:visible"
       id="Arrow2Lend"
       refX="0"
       refY="0"
       orient="auto"
       inkscape:stockid="Arrow2Lend"
       inkscape:isstock="true">
      <path
         transform="matrix(-1.1,0,0,-1.1,-1.1,0)"
         d="M 8.7185878,4.0337352 -2.2072895,0.01601326 8.7185884,-4.0017078 c -1.7454984,2.3720609 -1.7354408,5.6174519 -6e-7,8.035443 z"
         style="fill:context-stroke;fill-rule:evenodd;stroke:context-stroke;stroke-width:0.625;stroke-linejoin:round"
         id="path1360" />
    </marker>
  </defs>
  <g
     inkscape:label="Layer 1"
     inkscape:groupmode="layer"
     id="layer1"
     transform="translate(-107.622, -77.8539)">
    <ellipse
       style="font-variation-settings:normal;opacity:1;vector-effect:none;fill:none;fill-opacity:1;fill-rule:evenodd;stroke:#000000;stroke-width:0.25;stroke-linecap:butt;stroke-linejoin:miter;stroke-miterlimit:4;stroke-dasharray:none;stroke-dashoffset:0;stroke-opacity:1;stop-color:#000000;stop-opacity:1"
       id="path916"
       cx="136.85686"
       cy="106.44136"
       rx="20.498091"
       ry="13.823688" />
    <path
       style="font-variation-settings:normal;opacity:1;fill:none;fill-opacity:1;stroke:#000000;stroke-width:0.25;stroke-linecap:round;stroke-linejoin:round;stroke-miterlimit:4;stroke-dasharray:none;stroke-dashoffset:0;stroke-opacity:1;marker-end:url(#Arrow2Lend);stop-color:#000000;stop-opacity:1"
       d="m 107.74744,106.44136 h 58.21883"
       id="path1257" />
    <path
       style="font-variation-settings:normal;opacity:1;vector-effect:none;fill:none;fill-opacity:1;stroke:#000000;stroke-width:0.25;stroke-linecap:round;stroke-linejoin:round;stroke-miterlimit:4;stroke-dasharray:none;stroke-dashoffset:0;stroke-opacity:1;-inkscape-stroke:none;marker-end:url(#marker2075);stop-color:#000000;stop-opacity:1"
       d="M 136.85685,127.13694 V 78.271846"
       id="path1991" />
    <path
       style="font-variation-settings:normal;opacity:1;vector-effect:none;fill:none;fill-opacity:1;stroke:#000000;stroke-width:0.25;stroke-linecap:round;stroke-linejoin:round;stroke-miterlimit:4;stroke-dasharray:none;stroke-dashoffset:0;stroke-opacity:1;-inkscape-stroke:none;marker-end:url(#marker2075);stop-color:#000000;stop-opacity:1"
       d="M 143.16158,127.13694 V 78.271846"
       id="path2100" />
    <g
       transform="matrix(0.396875,0,0,0.396875,146.41843,78.493952)"
       ns1:version="1.7.0"
       ns1:texconverter="xelatex"
       ns1:pdfconverter="inkscape"
       ns1:text="$\\vec{p}_2$"
       ns1:preamble="/home/xiaocy/.config/inkscape/extensions/textext/default_packages.tex"
       ns1:scale="1.5"
       ns1:alignment="middle center"
       ns1:stroke-to-path="0"
       ns1:inkscapeversion="1.1.2"
       ns1:jacobian_sqrt="0.396875"
       id="g2716">
      <defs
         id="id-dd4d942a-906e-48b9-917a-ffcdeeacf32e">
        <g
           id="id-340b9b3e-7cc5-4b73-afcc-73a7e9105136">
          <g
             id="id-6e7db137-1aac-4220-a6f0-f8579d10e543" />
          <g
             id="id-53fba5ee-d3c2-4ae2-b6ea-450a61fac953">
            <path
               d="M 4.59375,-6.859375 3.15625,-7.96875 2.890625,-7.828125 3.59375,-7.15625 H 0.171875 v 0.578125 H 3.59375 L 2.890625,-5.90625 3.15625,-5.765625 Z m 0,0"
               id="id-990c9c96-9520-49d1-9b17-cd011a6dd80e" />
          </g>
          <g
             id="id-ef75fc6b-813c-469b-84b3-f60bf60c2b86" />
          <g
             id="id-d7858280-3878-4ccf-b305-63dc4a39802b">
            <path
               d="m 4.921875,-3.3125 c 0,-0.828125 -0.453125,-1.3125 -1.203125,-1.3125 -0.6875,0 -1.1875,0.328125 -1.796875,1.1875 L 2.25,-4.59375 c 0,0 -0.03125,-0.03125 -0.0625,-0.03125 l -1.625,0.21875 0.03125,0.171875 c 0.3125,0 0.671875,0 0.671875,0.28125 0,0.125 -0.359375,1.5625 -0.734375,2.96875 l -0.609375,2.34375 C -0.1875,1.84375 -0.34375,1.96875 -0.78125,1.984375 V 2.15625 H 1.359375 V 2 C 0.875,2 0.6875,1.90625 0.6875,1.6875 0.6875,1.53125 0.875,0.75 1.078125,-0.0625 1.34375,0.078125 1.53125,0.109375 1.78125,0.109375 c 1.53125,0 3.140625,-1.75 3.140625,-3.421875 z m -0.9375,0.03125 c 0,0.6875 -0.28125,1.5625 -0.734375,2.203125 -0.453125,0.65625 -0.96875,1 -1.515625,1 -0.296875,0 -0.5,-0.15625 -0.5,-0.390625 0,-0.359375 0.359375,-1.71875 0.671875,-2.515625 0.28125,-0.6875 0.859375,-1.1875 1.375,-1.1875 0.015625,0 0.03125,0 0.046875,0 0.453125,0.015625 0.65625,0.28125 0.65625,0.890625 z m 0,0"
               id="id-ad4f41a5-da4f-47bd-8743-f2fd41193ff6" />
          </g>
          <g
             id="id-5049804b-0ac6-417d-b550-8b30f921bcb7" />
          <g
             id="id-1c9fab98-6807-4c30-b219-0d57e351af47">
            <path
               d="M 3.515625,-1.265625 H 3.28125 c -0.015625,0.15625 -0.09375,0.5625 -0.1875,0.625 C 3.046875,-0.59375 2.515625,-0.59375 2.40625,-0.59375 H 1.125 c 0.734375,-0.640625 0.984375,-0.84375 1.390625,-1.171875 0.515625,-0.40625 1,-0.84375 1,-1.5 0,-0.84375 -0.734375,-1.359375 -1.625,-1.359375 -0.859375,0 -1.453125,0.609375 -1.453125,1.25 0,0.34375 0.296875,0.390625 0.375,0.390625 0.15625,0 0.359375,-0.125 0.359375,-0.375 0,-0.125 -0.046875,-0.375 -0.40625,-0.375 C 0.984375,-4.21875 1.453125,-4.375 1.78125,-4.375 c 0.703125,0 1.0625,0.546875 1.0625,1.109375 0,0.609375 -0.4375,1.078125 -0.65625,1.328125 L 0.515625,-0.265625 C 0.4375,-0.203125 0.4375,-0.1875 0.4375,0 h 2.875 z m 0,0"
               id="id-35c080e9-85e7-4940-8430-304e590bdbae" />
          </g>
        </g>
      </defs>
      <g
         fill="#000000"
         fill-opacity="1"
         id="id-6a34b16b-8bb2-4f19-82da-7c3f3f1ff146"
         transform="translate(-154.754,-126.796)">
        <g
           transform="translate(156.874,134.765)"
           id="g2902">
          <path
             d="M 4.59375,-6.859375 3.15625,-7.96875 2.890625,-7.828125 3.59375,-7.15625 H 0.171875 v 0.578125 H 3.59375 L 2.890625,-5.90625 3.15625,-5.765625 Z m 0,0"
             id="id-8764a8a6-d6f2-4680-9725-4c89c2292580" />
        </g>
      </g>
      <g
         fill="#000000"
         fill-opacity="1"
         id="id-5191ff53-7f0f-45a9-8891-245b3cb340ba"
         transform="translate(-154.754,-126.796)">
        <g
           transform="translate(155.535,134.765)"
           id="g2906">
          <path
             d="m 4.921875,-3.3125 c 0,-0.828125 -0.453125,-1.3125 -1.203125,-1.3125 -0.6875,0 -1.1875,0.328125 -1.796875,1.1875 L 2.25,-4.59375 c 0,0 -0.03125,-0.03125 -0.0625,-0.03125 l -1.625,0.21875 0.03125,0.171875 c 0.3125,0 0.671875,0 0.671875,0.28125 0,0.125 -0.359375,1.5625 -0.734375,2.96875 l -0.609375,2.34375 C -0.1875,1.84375 -0.34375,1.96875 -0.78125,1.984375 V 2.15625 H 1.359375 V 2 C 0.875,2 0.6875,1.90625 0.6875,1.6875 0.6875,1.53125 0.875,0.75 1.078125,-0.0625 1.34375,0.078125 1.53125,0.109375 1.78125,0.109375 c 1.53125,0 3.140625,-1.75 3.140625,-3.421875 z m -0.9375,0.03125 c 0,0.6875 -0.28125,1.5625 -0.734375,2.203125 -0.453125,0.65625 -0.96875,1 -1.515625,1 -0.296875,0 -0.5,-0.15625 -0.5,-0.390625 0,-0.359375 0.359375,-1.71875 0.671875,-2.515625 0.28125,-0.6875 0.859375,-1.1875 1.375,-1.1875 0.015625,0 0.03125,0 0.046875,0 0.453125,0.015625 0.65625,0.28125 0.65625,0.890625 z m 0,0"
             id="id-878a97ae-0aa2-4a72-8b9a-e4bfe09b0796" />
        </g>
      </g>
      <g
         fill="#000000"
         fill-opacity="1"
         id="id-0827a9f0-a41f-492c-b041-54427a7946f9"
         transform="translate(-154.754,-126.796)">
        <g
           transform="translate(161.205,136.34)"
           id="g2910">
          <path
             d="M 3.515625,-1.265625 H 3.28125 c -0.015625,0.15625 -0.09375,0.5625 -0.1875,0.625 C 3.046875,-0.59375 2.515625,-0.59375 2.40625,-0.59375 H 1.125 c 0.734375,-0.640625 0.984375,-0.84375 1.390625,-1.171875 0.515625,-0.40625 1,-0.84375 1,-1.5 0,-0.84375 -0.734375,-1.359375 -1.625,-1.359375 -0.859375,0 -1.453125,0.609375 -1.453125,1.25 0,0.34375 0.296875,0.390625 0.375,0.390625 0.15625,0 0.359375,-0.125 0.359375,-0.375 0,-0.125 -0.046875,-0.375 -0.40625,-0.375 C 0.984375,-4.21875 1.453125,-4.375 1.78125,-4.375 c 0.703125,0 1.0625,0.546875 1.0625,1.109375 0,0.609375 -0.4375,1.078125 -0.65625,1.328125 L 0.515625,-0.265625 C 0.4375,-0.203125 0.4375,-0.1875 0.4375,0 h 2.875 z m 0,0"
             id="id-df5322a9-c907-4a0d-aee2-b4d7394a0d29" />
        </g>
      </g>
    </g>
    <g
       transform="matrix(0.396875,0,0,0.396875,131.51728,78.780016)"
       ns1:version="1.7.0"
       ns1:texconverter="xelatex"
       ns1:pdfconverter="inkscape"
       ns1:text="$\\vec{y}$"
       ns1:preamble="/home/xiaocy/.config/inkscape/extensions/textext/default_packages.tex"
       ns1:scale="1.5"
       ns1:alignment="middle center"
       ns1:stroke-to-path="0"
       ns1:inkscapeversion="1.1.2"
       ns1:jacobian_sqrt="0.396875"
       id="g2995">
      <defs
         id="id-82580d42-3b0f-467d-ade6-54b21ee69842">
        <g
           id="id-bf099faa-6e85-47c8-ac03-b6d12538e13f">
          <g
             id="id-d76719e9-51ac-4385-b5f0-27a65081a548" />
          <g
             id="id-0071db53-2be1-4cd0-a902-8fc63c68e1ed">
            <path
               d="M 4.59375,-6.859375 3.15625,-7.96875 2.890625,-7.828125 3.59375,-7.15625 H 0.171875 v 0.578125 H 3.59375 L 2.890625,-5.90625 3.15625,-5.765625 Z m 0,0"
               id="id-b574d5b9-1c03-4714-88fd-cb55c5803e5e" />
          </g>
          <g
             id="id-ae78afd6-8954-4152-9294-2560859238a5" />
          <g
             id="id-c8b065d3-9160-4587-8ba9-daf5ea1d765e">
            <path
               d="M 4.46875,-4.046875 C 4.46875,-4.375 4.203125,-4.625 3.890625,-4.625 c -0.234375,0 -0.40625,0.15625 -0.40625,0.390625 0,0.15625 0.078125,0.265625 0.296875,0.40625 0.203125,0.109375 0.265625,0.203125 0.265625,0.359375 0,0.40625 -0.375,1.21875 -1.28125,2.71875 L 2.5625,-1.96875 C 2.40625,-2.90625 1.8125,-4.625 1.65625,-4.625 H 1.515625 L 0.5,-4.4375 0.15625,-4.375 v 0.171875 c 0.125,-0.03125 0.21875,-0.03125 0.328125,-0.03125 0.421875,0 0.609375,0.15625 0.8125,0.671875 0.28125,0.703125 0.859375,3.0625 0.859375,3.484375 0,0.109375 -0.046875,0.234375 -0.109375,0.359375 -0.078125,0.140625 -0.5625,0.765625 -0.75,0.953125 C 1.0625,1.5 0.9375,1.578125 0.796875,1.578125 0.71875,1.578125 0.65625,1.546875 0.546875,1.46875 0.390625,1.34375 0.28125,1.296875 0.15625,1.296875 c -0.234375,0 -0.40625,0.171875 -0.40625,0.40625 0,0.265625 0.21875,0.453125 0.53125,0.453125 0.59375,0 1.734375,-1.203125 2.8125,-3 0.890625,-1.453125 1.375,-2.609375 1.375,-3.203125 z m 0,0"
               id="id-9d0f1d90-930c-4c3c-9313-c197883364d2" />
          </g>
        </g>
      </defs>
      <g
         fill="#000000"
         fill-opacity="1"
         id="id-0bbd2dd9-7c20-4eb3-8683-808360082785"
         transform="translate(-154.938,-126.796)">
        <g
           transform="translate(155.577,134.765)"
           id="g3191">
          <path
             d="M 4.59375,-6.859375 3.15625,-7.96875 2.890625,-7.828125 3.59375,-7.15625 H 0.171875 v 0.578125 H 3.59375 L 2.890625,-5.90625 3.15625,-5.765625 Z m 0,0"
             id="id-ea936a77-9e9f-4e39-8192-84a3227d9d9d" />
        </g>
      </g>
      <g
         fill="#000000"
         fill-opacity="1"
         id="id-1f44a599-d868-494c-ad62-7bc9390fe5a4"
         transform="translate(-154.938,-126.796)">
        <g
           transform="translate(155.188,134.765)"
           id="g3195">
          <path
             d="M 4.46875,-4.046875 C 4.46875,-4.375 4.203125,-4.625 3.890625,-4.625 c -0.234375,0 -0.40625,0.15625 -0.40625,0.390625 0,0.15625 0.078125,0.265625 0.296875,0.40625 0.203125,0.109375 0.265625,0.203125 0.265625,0.359375 0,0.40625 -0.375,1.21875 -1.28125,2.71875 L 2.5625,-1.96875 C 2.40625,-2.90625 1.8125,-4.625 1.65625,-4.625 H 1.515625 L 0.5,-4.4375 0.15625,-4.375 v 0.171875 c 0.125,-0.03125 0.21875,-0.03125 0.328125,-0.03125 0.421875,0 0.609375,0.15625 0.8125,0.671875 0.28125,0.703125 0.859375,3.0625 0.859375,3.484375 0,0.109375 -0.046875,0.234375 -0.109375,0.359375 -0.078125,0.140625 -0.5625,0.765625 -0.75,0.953125 C 1.0625,1.5 0.9375,1.578125 0.796875,1.578125 0.71875,1.578125 0.65625,1.546875 0.546875,1.46875 0.390625,1.34375 0.28125,1.296875 0.15625,1.296875 c -0.234375,0 -0.40625,0.171875 -0.40625,0.40625 0,0.265625 0.21875,0.453125 0.53125,0.453125 0.59375,0 1.734375,-1.203125 2.8125,-3 0.890625,-1.453125 1.375,-2.609375 1.375,-3.203125 z m 0,0"
             id="id-5f5538b2-a169-4c24-b6cc-5df4481f16bb" />
        </g>
      </g>
    </g>
    <g
       transform="matrix(0.396875,0,0,0.396875,159.13639,108.83456)"
       ns1:version="1.7.0"
       ns1:texconverter="xelatex"
       ns1:pdfconverter="inkscape"
       ns1:text="$\\vec{x} = \\vec{p}_1 $"
       ns1:preamble="/home/xiaocy/.config/inkscape/extensions/textext/default_packages.tex"
       ns1:scale="1.5"
       ns1:alignment="middle center"
       ns1:stroke-to-path="0"
       ns1:inkscapeversion="1.1.2"
       ns1:jacobian_sqrt="0.396875"
       id="g2178">
      <defs
         id="id-cd01a73d-251d-4e37-9f0b-990759c6baf7">
        <g
           id="id-3fae189d-dd36-4616-ab34-b7de78384f77">
          <g
             id="id-22949d54-3f6c-4815-81bc-94b62eab9285" />
          <g
             id="id-c002af55-7d74-49e1-9978-7d7d35f82aec">
            <path
               d="M 4.59375,-6.859375 3.15625,-7.96875 2.890625,-7.828125 3.59375,-7.15625 H 0.171875 v 0.578125 H 3.59375 L 2.890625,-5.90625 3.15625,-5.765625 Z m 0,0"
               id="id-3b8d4b76-2773-4f70-9b6c-2c5466b4c0d3" />
          </g>
          <g
             id="id-2bbf8f04-9534-4a96-ae1c-2dfed3121723" />
          <g
             id="id-f13a9ccb-8e14-4cec-b2d4-1e558fa44544">
            <path
               d="M 4.375,-1.078125 4.21875,-1.171875 C 4.140625,-1.0625 4.078125,-1.015625 3.984375,-0.875 3.75,-0.5625 3.640625,-0.46875 3.5,-0.46875 c -0.15625,0 -0.25,-0.125 -0.3125,-0.421875 -0.03125,-0.09375 -0.03125,-0.15625 -0.046875,-0.171875 -0.25,-0.984375 -0.375,-1.546875 -0.375,-1.703125 0.453125,-0.8125 0.828125,-1.28125 1.03125,-1.28125 0.0625,0 0.15625,0.03125 0.25,0.09375 0.125,0.0625 0.1875,0.09375 0.296875,0.09375 0.203125,0 0.34375,-0.15625 0.34375,-0.375 0,-0.234375 -0.171875,-0.390625 -0.421875,-0.390625 -0.46875,0 -0.859375,0.375 -1.59375,1.5 L 2.5625,-3.703125 C 2.421875,-4.421875 2.296875,-4.625 2.015625,-4.625 1.78125,-4.625 1.4375,-4.546875 0.78125,-4.328125 L 0.671875,-4.28125 0.71875,-4.125 0.890625,-4.171875 c 0.203125,-0.046875 0.328125,-0.0625 0.40625,-0.0625 0.265625,0 0.328125,0.09375 0.484375,0.71875 L 2.078125,-2.21875 1.21875,-1 C 1,-0.6875 0.796875,-0.5 0.6875,-0.5 0.625,-0.5 0.515625,-0.53125 0.40625,-0.59375 0.265625,-0.65625 0.171875,-0.6875 0.078125,-0.6875 c -0.21875,0 -0.359375,0.15625 -0.359375,0.359375 0,0.28125 0.203125,0.4375 0.515625,0.4375 0.328125,0 0.453125,-0.09375 0.984375,-0.71875 l 0.9375,-1.234375 0.328125,1.25 c 0.125,0.546875 0.265625,0.703125 0.609375,0.703125 0.390625,0 0.671875,-0.25 1.28125,-1.1875 z m 0,0"
               id="id-f4e9ff9d-c329-4b8e-b65d-abae938360e8" />
          </g>
          <g
             id="id-c9559ba6-f7de-48b8-8a7b-44dad2033a03">
            <path
               d="m 4.921875,-3.3125 c 0,-0.828125 -0.453125,-1.3125 -1.203125,-1.3125 -0.6875,0 -1.1875,0.328125 -1.796875,1.1875 L 2.25,-4.59375 c 0,0 -0.03125,-0.03125 -0.0625,-0.03125 l -1.625,0.21875 0.03125,0.171875 c 0.3125,0 0.671875,0 0.671875,0.28125 0,0.125 -0.359375,1.5625 -0.734375,2.96875 l -0.609375,2.34375 C -0.1875,1.84375 -0.34375,1.96875 -0.78125,1.984375 V 2.15625 H 1.359375 V 2 C 0.875,2 0.6875,1.90625 0.6875,1.6875 0.6875,1.53125 0.875,0.75 1.078125,-0.0625 1.34375,0.078125 1.53125,0.109375 1.78125,0.109375 c 1.53125,0 3.140625,-1.75 3.140625,-3.421875 z m -0.9375,0.03125 c 0,0.6875 -0.28125,1.5625 -0.734375,2.203125 -0.453125,0.65625 -0.96875,1 -1.515625,1 -0.296875,0 -0.5,-0.15625 -0.5,-0.390625 0,-0.359375 0.359375,-1.71875 0.671875,-2.515625 0.28125,-0.6875 0.859375,-1.1875 1.375,-1.1875 0.015625,0 0.03125,0 0.046875,0 0.453125,0.015625 0.65625,0.28125 0.65625,0.890625 z m 0,0"
               id="id-fc3cc762-1fa0-4d8c-8743-df4279092340" />
          </g>
          <g
             id="id-1d051dac-0790-48db-a52d-12c9a4350bdd" />
          <g
             id="id-8e0db616-6982-484d-85d2-64c759029400">
            <path
               d="m 5.796875,-3.46875 v -0.578125 h -5.375 v 0.578125 z m 0,2.140625 v -0.59375 h -5.375 v 0.59375 z m 0,0"
               id="id-803a04bf-4859-4335-b064-288decc8d293" />
          </g>
          <g
             id="id-a6a32698-3d33-4114-9bbc-369eb0fc4f6d" />
          <g
             id="id-0d718a2d-b536-4d62-96ef-a8373500a3ad">
            <path
               d="M 3.296875,0 V -0.25 H 3.03125 c -0.703125,0 -0.703125,-0.09375 -0.703125,-0.328125 V -4.4375 c 0,-0.1875 0,-0.1875 -0.203125,-0.1875 -0.453125,0.4375 -1.078125,0.4375 -1.359375,0.4375 v 0.25 c 0.15625,0 0.625,0 1,-0.1875 v 3.546875 c 0,0.234375 0,0.328125 -0.6875,0.328125 H 0.8125 V 0 l 1.234375,-0.03125 z m 0,0"
               id="id-02e898e8-26bb-4567-8392-ab545f7306c8" />
          </g>
        </g>
      </defs>
      <g
         fill="#000000"
         fill-opacity="1"
         id="id-7d9613ee-0915-4107-91c2-598a81a1a280"
         transform="translate(-154.487,-126.796)">
        <g
           transform="translate(155.401,134.765)"
           id="g3395">
          <path
             d="M 4.59375,-6.859375 3.15625,-7.96875 2.890625,-7.828125 3.59375,-7.15625 H 0.171875 v 0.578125 H 3.59375 L 2.890625,-5.90625 3.15625,-5.765625 Z m 0,0"
             id="id-1887b630-c42e-4047-a758-173680964858" />
        </g>
      </g>
      <g
         fill="#000000"
         fill-opacity="1"
         id="id-e081ec11-5d65-4ec3-a9eb-b1ac4299a400"
         transform="translate(-154.487,-126.796)">
        <g
           transform="translate(154.768,134.765)"
           id="g3399">
          <path
             d="M 4.375,-1.078125 4.21875,-1.171875 C 4.140625,-1.0625 4.078125,-1.015625 3.984375,-0.875 3.75,-0.5625 3.640625,-0.46875 3.5,-0.46875 c -0.15625,0 -0.25,-0.125 -0.3125,-0.421875 -0.03125,-0.09375 -0.03125,-0.15625 -0.046875,-0.171875 -0.25,-0.984375 -0.375,-1.546875 -0.375,-1.703125 0.453125,-0.8125 0.828125,-1.28125 1.03125,-1.28125 0.0625,0 0.15625,0.03125 0.25,0.09375 0.125,0.0625 0.1875,0.09375 0.296875,0.09375 0.203125,0 0.34375,-0.15625 0.34375,-0.375 0,-0.234375 -0.171875,-0.390625 -0.421875,-0.390625 -0.46875,0 -0.859375,0.375 -1.59375,1.5 L 2.5625,-3.703125 C 2.421875,-4.421875 2.296875,-4.625 2.015625,-4.625 1.78125,-4.625 1.4375,-4.546875 0.78125,-4.328125 L 0.671875,-4.28125 0.71875,-4.125 0.890625,-4.171875 c 0.203125,-0.046875 0.328125,-0.0625 0.40625,-0.0625 0.265625,0 0.328125,0.09375 0.484375,0.71875 L 2.078125,-2.21875 1.21875,-1 C 1,-0.6875 0.796875,-0.5 0.6875,-0.5 0.625,-0.5 0.515625,-0.53125 0.40625,-0.59375 0.265625,-0.65625 0.171875,-0.6875 0.078125,-0.6875 c -0.21875,0 -0.359375,0.15625 -0.359375,0.359375 0,0.28125 0.203125,0.4375 0.515625,0.4375 0.328125,0 0.453125,-0.09375 0.984375,-0.71875 l 0.9375,-1.234375 0.328125,1.25 c 0.125,0.546875 0.265625,0.703125 0.609375,0.703125 0.390625,0 0.671875,-0.25 1.28125,-1.1875 z m 0,0"
             id="id-8ffa9d68-ab6f-40b5-9457-4c010512ff6f" />
        </g>
      </g>
      <g
         fill="#000000"
         fill-opacity="1"
         id="id-4d54c263-b857-4fc1-9ebd-114b9fec75a4"
         transform="translate(-154.487,-126.796)">
        <g
           transform="translate(162.856,134.765)"
           id="g3403">
          <path
             d="m 5.796875,-3.46875 v -0.578125 h -5.375 v 0.578125 z m 0,2.140625 v -0.59375 h -5.375 v 0.59375 z m 0,0"
             id="id-118343c7-785b-49d0-9d3c-650270a78ab3" />
        </g>
      </g>
      <g
         fill="#000000"
         fill-opacity="1"
         id="id-e3c06505-c578-44b4-831e-9bbc6591f2f3"
         transform="translate(-154.487,-126.796)">
        <g
           transform="translate(174.094,134.765)"
           id="g3407">
          <path
             d="M 4.59375,-6.859375 3.15625,-7.96875 2.890625,-7.828125 3.59375,-7.15625 H 0.171875 v 0.578125 H 3.59375 L 2.890625,-5.90625 3.15625,-5.765625 Z m 0,0"
             id="id-7d786635-4e0b-4a3b-acda-e12beac45e78" />
        </g>
      </g>
      <g
         fill="#000000"
         fill-opacity="1"
         id="id-44d2caac-670c-4859-9c1d-c5254620b07b"
         transform="translate(-154.487,-126.796)">
        <g
           transform="translate(172.755,134.765)"
           id="g3411">
          <path
             d="m 4.921875,-3.3125 c 0,-0.828125 -0.453125,-1.3125 -1.203125,-1.3125 -0.6875,0 -1.1875,0.328125 -1.796875,1.1875 L 2.25,-4.59375 c 0,0 -0.03125,-0.03125 -0.0625,-0.03125 l -1.625,0.21875 0.03125,0.171875 c 0.3125,0 0.671875,0 0.671875,0.28125 0,0.125 -0.359375,1.5625 -0.734375,2.96875 l -0.609375,2.34375 C -0.1875,1.84375 -0.34375,1.96875 -0.78125,1.984375 V 2.15625 H 1.359375 V 2 C 0.875,2 0.6875,1.90625 0.6875,1.6875 0.6875,1.53125 0.875,0.75 1.078125,-0.0625 1.34375,0.078125 1.53125,0.109375 1.78125,0.109375 c 1.53125,0 3.140625,-1.75 3.140625,-3.421875 z m -0.9375,0.03125 c 0,0.6875 -0.28125,1.5625 -0.734375,2.203125 -0.453125,0.65625 -0.96875,1 -1.515625,1 -0.296875,0 -0.5,-0.15625 -0.5,-0.390625 0,-0.359375 0.359375,-1.71875 0.671875,-2.515625 0.28125,-0.6875 0.859375,-1.1875 1.375,-1.1875 0.015625,0 0.03125,0 0.046875,0 0.453125,0.015625 0.65625,0.28125 0.65625,0.890625 z m 0,0"
             id="id-40831311-67d8-4701-8b12-a09f4dd4eb91" />
        </g>
      </g>
      <g
         fill="#000000"
         fill-opacity="1"
         id="id-de9dbcc3-5ffe-4cb0-a0c1-22833111866b"
         transform="translate(-154.487,-126.796)">
        <g
           transform="translate(178.425,136.34)"
           id="g3415">
          <path
             d="M 3.296875,0 V -0.25 H 3.03125 c -0.703125,0 -0.703125,-0.09375 -0.703125,-0.328125 V -4.4375 c 0,-0.1875 0,-0.1875 -0.203125,-0.1875 -0.453125,0.4375 -1.078125,0.4375 -1.359375,0.4375 v 0.25 c 0.15625,0 0.625,0 1,-0.1875 v 3.546875 c 0,0.234375 0,0.328125 -0.6875,0.328125 H 0.8125 V 0 l 1.234375,-0.03125 z m 0,0"
             id="id-6d25038f-8a9b-4ca3-a50f-83070c0767aa" />
        </g>
      </g>
    </g>
    <g
       transform="matrix(0.396875,0,0,0.396875,151.28167,92.961303)"
       ns1:version="1.7.0"
       ns1:texconverter="xelatex"
       ns1:pdfconverter="inkscape"
       ns1:text="$\\vec{r}$"
       ns1:preamble="/home/xiaocy/.config/inkscape/extensions/textext/default_packages.tex"
       ns1:scale="1.5"
       ns1:alignment="middle center"
       ns1:stroke-to-path="0"
       ns1:inkscapeversion="1.1.2"
       ns1:jacobian_sqrt="0.396875"
       id="g3796">
      <defs
         id="id-136894fc-a25d-4baf-be3c-51f7cbc6c549">
        <g
           id="id-26fcf2b4-5287-409c-915a-bd535daf960c">
          <g
             id="id-0521cb3c-fa34-45ad-8221-1444c15990bb" />
          <g
             id="id-784f2110-903f-4538-a449-1334f1edd840">
            <path
               d="M 4.59375,-6.859375 3.15625,-7.96875 2.890625,-7.828125 3.59375,-7.15625 H 0.171875 v 0.578125 H 3.59375 L 2.890625,-5.90625 3.15625,-5.765625 Z m 0,0"
               id="id-ab24e307-bd8a-4c2c-aea7-50bd2cf285a6" />
          </g>
          <g
             id="id-25c5b825-203e-479e-a03c-bb65abafdec5" />
          <g
             id="id-72c7a77b-b646-4cd2-9e97-3ea86ec63293">
            <path
               d="m 4.328125,-4.09375 c 0,-0.3125 -0.203125,-0.53125 -0.5,-0.53125 -0.234375,0 -0.515625,0.15625 -0.796875,0.4375 -0.421875,0.453125 -0.84375,1.0625 -1.015625,1.484375 l -0.140625,0.375 0.546875,-2.28125 -0.03125,-0.015625 -1.625,0.28125 v 0.171875 c 0.078125,0 0.171875,0 0.265625,0 0.234375,0 0.453125,0.03125 0.453125,0.25 0,0.140625 0,0.140625 -0.15625,0.859375 L 0.46875,0 H 1.265625 C 1.8125,-1.765625 1.96875,-2.1875 2.4375,-2.96875 c 0.359375,-0.625 0.671875,-0.984375 0.859375,-0.984375 0.078125,0 0.109375,0.046875 0.171875,0.15625 0.078125,0.171875 0.171875,0.234375 0.375,0.234375 0.3125,0 0.484375,-0.203125 0.484375,-0.53125 z m 0,0"
               id="id-c30cf072-a4c6-40b8-9d2e-bb12f17fc83e" />
          </g>
        </g>
      </defs>
      <g
         fill="#000000"
         fill-opacity="1"
         id="id-70293d40-566d-4d3e-8feb-eab15ce313be"
         transform="translate(-155.069,-126.796)">
        <g
           transform="translate(155.272,134.765)"
           id="g3994">
          <path
             d="M 4.59375,-6.859375 3.15625,-7.96875 2.890625,-7.828125 3.59375,-7.15625 H 0.171875 v 0.578125 H 3.59375 L 2.890625,-5.90625 3.15625,-5.765625 Z m 0,0"
             id="id-16c78387-7f2b-415b-9c9d-b6ae0e0f8329" />
        </g>
      </g>
      <g
         fill="#000000"
         fill-opacity="1"
         id="id-4d607cee-70f0-4bd4-9a28-c7f2026bd030"
         transform="translate(-155.069,-126.796)">
        <g
           transform="translate(154.6,134.765)"
           id="g3998">
          <path
             d="m 4.328125,-4.09375 c 0,-0.3125 -0.203125,-0.53125 -0.5,-0.53125 -0.234375,0 -0.515625,0.15625 -0.796875,0.4375 -0.421875,0.453125 -0.84375,1.0625 -1.015625,1.484375 l -0.140625,0.375 0.546875,-2.28125 -0.03125,-0.015625 -1.625,0.28125 v 0.171875 c 0.078125,0 0.171875,0 0.265625,0 0.234375,0 0.453125,0.03125 0.453125,0.25 0,0.140625 0,0.140625 -0.15625,0.859375 L 0.46875,0 H 1.265625 C 1.8125,-1.765625 1.96875,-2.1875 2.4375,-2.96875 c 0.359375,-0.625 0.671875,-0.984375 0.859375,-0.984375 0.078125,0 0.109375,0.046875 0.171875,0.15625 0.078125,0.171875 0.171875,0.234375 0.375,0.234375 0.3125,0 0.484375,-0.203125 0.484375,-0.53125 z m 0,0"
             id="id-d4684770-0024-4b74-9feb-69461077c3a6" />
        </g>
      </g>
    </g>
    <path
       style="font-variation-settings:normal;opacity:1;vector-effect:none;fill:none;fill-opacity:1;fill-rule:evenodd;stroke:#000000;stroke-width:0.25;stroke-linecap:butt;stroke-linejoin:miter;stroke-miterlimit:4;stroke-dasharray:none;stroke-dashoffset:0;stroke-opacity:1;marker-start:url(#Arrow2Mstart);marker-end:url(#Arrow2Mend);stop-color:#000000;stop-opacity:1"
       id="path4455"
       sodipodi:type="arc"
       sodipodi:cx="142.41151"
       sodipodi:cy="107.32925"
       sodipodi:rx="6.0296798"
       sodipodi:ry="6.0296798"
       sodipodi:start="5.4171897"
       sodipodi:end="6.0586757"
       sodipodi:arc-type="arc"
       d="m 146.31804,102.73619 a 6.0296798,6.0296798 0 0 1 1.97183,3.25068"
       sodipodi:open="true" />
    <g
       transform="matrix(0.396875,0,0,0.396875,148.45611,100.92787)"
       ns1:version="1.7.0"
       ns1:texconverter="xelatex"
       ns1:pdfconverter="inkscape"
       ns1:text="$\\theta$"
       ns1:preamble="/home/xiaocy/.config/inkscape/extensions/textext/default_packages.tex"
       ns1:scale="1.5"
       ns1:alignment="middle center"
       ns1:stroke-to-path="0"
       ns1:inkscapeversion="1.1.2"
       ns1:jacobian_sqrt="0.396875"
       id="g4894">
      <defs
         id="id-7871cb47-c2a2-4d75-959a-418cda301391">
        <g
           id="id-9debd676-86d1-4dd9-a3c8-feddc1ffdb10">
          <g
             id="id-fdf957cf-958e-4296-8751-e8a4d1e6a140" />
          <g
             id="id-ef081675-37d4-4465-9a80-771beb49c009">
            <path
               d="m 4.75,-5.078125 c 0,-0.203125 -0.015625,-1.78125 -1.265625,-1.78125 -1.859375,0 -3.1875,2.90625 -3.1875,4.921875 0,0.390625 0.078125,2.046875 1.40625,2.046875 2.09375,0 3.046875,-3.5625 3.046875,-5.1875 z M 4.0625,-5.6875 c 0,0.578125 -0.140625,1.34375 -0.359375,2.203125 h -2.28125 c 0.390625,-1.53125 1.046875,-3.15625 2.046875,-3.15625 0.421875,0 0.59375,0.359375 0.59375,0.953125 z m -0.46875,2.578125 c -0.3125,1.234375 -0.6875,3 -1.75,3 -0.578125,0 -0.78125,-0.515625 -0.78125,-1.21875 0,-0.515625 0.109375,-1.140625 0.265625,-1.78125 z m 0,0"
               id="id-d9dc1133-826d-4951-a6cb-f6f927901fe7" />
          </g>
        </g>
      </defs>
      <g
         fill="#000000"
         fill-opacity="1"
         id="id-60864f0c-4f8c-4875-aaf9-2ba3d138da05"
         transform="translate(-155.202,-127.906)">
        <g
           transform="translate(154.905,134.765)"
           id="g4891">
          <path
             d="m 4.75,-5.078125 c 0,-0.203125 -0.015625,-1.78125 -1.265625,-1.78125 -1.859375,0 -3.1875,2.90625 -3.1875,4.921875 0,0.390625 0.078125,2.046875 1.40625,2.046875 2.09375,0 3.046875,-3.5625 3.046875,-5.1875 z M 4.0625,-5.6875 c 0,0.578125 -0.140625,1.34375 -0.359375,2.203125 h -2.28125 c 0.390625,-1.53125 1.046875,-3.15625 2.046875,-3.15625 0.421875,0 0.59375,0.359375 0.59375,0.953125 z m -0.46875,2.578125 c -0.3125,1.234375 -0.6875,3 -1.75,3 -0.578125,0 -0.78125,-0.515625 -0.78125,-1.21875 0,-0.515625 0.109375,-1.140625 0.265625,-1.78125 z m 0,0"
             id="id-dea372d9-aec6-4b63-af1d-6728d16ff6cb" />
        </g>
      </g>
    </g>
    <path
       style="font-variation-settings:normal;opacity:1;fill:none;fill-opacity:1;stroke:#000000;stroke-width:0.250001;stroke-linecap:round;stroke-linejoin:round;stroke-miterlimit:4;stroke-dasharray:1, 1;stroke-dashoffset:0.775003;stroke-opacity:1;stop-color:#000000;stop-opacity:1"
       d="m 150.67861,90.44381 v 15.99755"
       id="path5173" />
    <path
       style="font-variation-settings:normal;opacity:1;fill:none;fill-opacity:1;stroke:#000000;stroke-width:0.25;stroke-linecap:round;stroke-linejoin:round;stroke-miterlimit:4;stroke-dasharray:1, 1;stroke-dashoffset:1.175;stroke-opacity:1;stop-color:#000000;stop-opacity:1"
       d="m 150.67915,96.233418 h -13.8223"
       id="path5288" />
    <path
       style="font-variation-settings:normal;opacity:1;fill:none;fill-opacity:1;stroke:#000000;stroke-width:0.25;stroke-linecap:round;stroke-linejoin:round;stroke-miterlimit:4;stroke-dasharray:1, 1;stroke-dashoffset:0;stroke-opacity:1;stop-color:#000000;stop-opacity:1"
       d="M 136.85685,106.44135 150.67861,90.444246"
       id="path5403" />
    <path
       style="font-variation-settings:normal;opacity:1;vector-effect:none;fill:none;fill-opacity:1;stroke:#000000;stroke-width:0.25;stroke-linecap:round;stroke-linejoin:round;stroke-miterlimit:4;stroke-dasharray:none;stroke-dashoffset:0;stroke-opacity:1;-inkscape-stroke:none;marker-end:url(#Arrow2Lend);stop-color:#000000;stop-opacity:1"
       d="m 143.1432,106.44745 7.25172,-9.943406"
       id="path3590" />
    <g
       transform="matrix(0.396875,0,0,0.396875,137.7438,99.207162)"
       ns1:version="1.7.0"
       ns1:texconverter="xelatex"
       ns1:pdfconverter="inkscape"
       ns1:text="$E$"
       ns1:preamble="/home/xiaocy/.config/inkscape/extensions/textext/default_packages.tex"
       ns1:scale="1.5"
       ns1:alignment="middle center"
       ns1:stroke-to-path="0"
       ns1:inkscapeversion="1.1.2"
       ns1:jacobian_sqrt="0.396875"
       id="g6831">
      <defs
         id="id-d1f752a4-9a79-4ec3-b42b-9b862d231e67">
        <g
           id="id-0e1d8321-9b3c-49be-b787-adc974a4adac">
          <g
             id="id-d76488aa-9cf9-4bfc-a187-cb99cc830848" />
          <g
             id="id-813a4fc8-f94a-42fc-afc3-c25cb450a126">
            <path
               d="M 5.96875,-1.703125 5.796875,-1.78125 c -0.5,0.671875 -0.765625,0.9375 -1.21875,1.15625 -0.390625,0.171875 -1.109375,0.28125 -1.90625,0.28125 -0.578125,0 -0.828125,-0.109375 -0.828125,-0.359375 0,-0.125 0.125,-0.609375 0.375,-1.53125 L 2.5625,-3.4375 3.375,-3.40625 c 0.03125,0 0.0625,0 0.09375,0 0.359375,0 0.625,0.0625 0.734375,0.15625 0.046875,0.046875 0.078125,0.140625 0.078125,0.328125 0,0.1875 -0.03125,0.3125 -0.078125,0.53125 L 4.40625,-2.328125 5.125,-4.765625 4.9375,-4.8125 c -0.40625,0.890625 -0.5,0.96875 -1.453125,1 l -0.828125,0.015625 0.6875,-2.4375 c 0.0625,-0.234375 0.171875,-0.28125 0.765625,-0.28125 1.65625,0 2.015625,0.140625 2.015625,0.765625 0,0.140625 0,0.296875 -0.015625,0.484375 L 6.328125,-5.25 6.65625,-6.859375 H 1.4375 V -6.6875 C 2.09375,-6.625 2.25,-6.546875 2.25,-6.265625 2.25,-6.125 2.1875,-5.796875 2.125,-5.59375 L 0.84375,-0.9375 c -0.1875,0.59375 -0.265625,0.671875 -0.859375,0.765625 V 0 H 5.3125 Z m 0,0"
               id="id-0296b427-8f74-4386-b4ff-b422bc2a194d" />
          </g>
        </g>
      </defs>
      <g
         fill="#000000"
         fill-opacity="1"
         id="id-9989db76-bad5-4e3d-a741-94804c728364"
         transform="translate(-155.046,-127.906)">
        <g
           transform="translate(155.062,134.765)"
           id="g6828">
          <path
             d="M 5.96875,-1.703125 5.796875,-1.78125 c -0.5,0.671875 -0.765625,0.9375 -1.21875,1.15625 -0.390625,0.171875 -1.109375,0.28125 -1.90625,0.28125 -0.578125,0 -0.828125,-0.109375 -0.828125,-0.359375 0,-0.125 0.125,-0.609375 0.375,-1.53125 L 2.5625,-3.4375 3.375,-3.40625 c 0.03125,0 0.0625,0 0.09375,0 0.359375,0 0.625,0.0625 0.734375,0.15625 0.046875,0.046875 0.078125,0.140625 0.078125,0.328125 0,0.1875 -0.03125,0.3125 -0.078125,0.53125 L 4.40625,-2.328125 5.125,-4.765625 4.9375,-4.8125 c -0.40625,0.890625 -0.5,0.96875 -1.453125,1 l -0.828125,0.015625 0.6875,-2.4375 c 0.0625,-0.234375 0.171875,-0.28125 0.765625,-0.28125 1.65625,0 2.015625,0.140625 2.015625,0.765625 0,0.140625 0,0.296875 -0.015625,0.484375 L 6.328125,-5.25 6.65625,-6.859375 H 1.4375 V -6.6875 C 2.09375,-6.625 2.25,-6.546875 2.25,-6.265625 2.25,-6.125 2.1875,-5.796875 2.125,-5.59375 L 0.84375,-0.9375 c -0.1875,0.59375 -0.265625,0.671875 -0.859375,0.765625 V 0 H 5.3125 Z m 0,0"
             id="id-6e093442-fb9e-44d9-bcc7-293a3326a7a7" />
        </g>
      </g>
    </g>
    <g
       transform="matrix(0.396875,0,0,0.396875,132.12,107.534)"
       ns1:version="1.7.0"
       ns1:texconverter="xelatex"
       ns1:pdfconverter="inkscape"
       ns1:text="$O$"
       ns1:preamble="/home/xiaocy/.config/inkscape/extensions/textext/default_packages.tex"
       ns1:scale="1.5"
       ns1:alignment="middle center"
       ns1:stroke-to-path="0"
       ns1:inkscapeversion="1.1.2"
       ns1:jacobian_sqrt="0.396875"
       id="g7004">
      <defs
         id="id-3db581d3-e591-46bb-bfbf-e4e14ee39cb5">
        <g
           id="id-0269de71-a1f4-454d-8ad7-6e4f943a6efa">
          <g
             id="id-8bfc2c11-0d05-4eec-96b5-b2ba663d1ff4" />
          <g
             id="id-a24ac485-2ba6-4491-9321-5a4a7c0f8fda">
            <path
               d="m 7.34375,-4.390625 c 0,-0.046875 0,-0.109375 0,-0.140625 C 7.34375,-5.9375 6.34375,-7 4.984375,-7 4.140625,-7 3.28125,-6.625 2.453125,-5.9375 1.3125,-4.953125 0.625,-3.609375 0.625,-2.328125 c 0,1.484375 0.953125,2.515625 2.296875,2.515625 2.1875,0 4.296875,-2.203125 4.421875,-4.578125 z m -1.109375,-0.65625 c 0,1.09375 -0.46875,2.59375 -1.125,3.59375 -0.59375,0.859375 -1.25,1.296875 -2.015625,1.296875 -0.875,0 -1.359375,-0.625 -1.359375,-1.78125 0,-0.953125 0.484375,-2.484375 1.109375,-3.390625 0.59375,-0.890625 1.25,-1.3125 2.03125,-1.3125 0.84375,0 1.359375,0.609375 1.359375,1.59375 z m 0,0"
               id="id-559af0f3-3f24-4a7e-96ee-977458c60541" />
          </g>
        </g>
      </defs>
      <g
         fill="#000000"
         fill-opacity="1"
         id="id-00877c38-106f-4dcc-b127-22922c6dc838"
         transform="translate(-155.278,-127.765)">
        <g
           transform="translate(154.653,134.765)"
           id="g7271">
          <path
             d="m 7.34375,-4.390625 c 0,-0.046875 0,-0.109375 0,-0.140625 C 7.34375,-5.9375 6.34375,-7 4.984375,-7 4.140625,-7 3.28125,-6.625 2.453125,-5.9375 1.3125,-4.953125 0.625,-3.609375 0.625,-2.328125 c 0,1.484375 0.953125,2.515625 2.296875,2.515625 2.1875,0 4.296875,-2.203125 4.421875,-4.578125 z m -1.109375,-0.65625 c 0,1.09375 -0.46875,2.59375 -1.125,3.59375 -0.59375,0.859375 -1.25,1.296875 -2.015625,1.296875 -0.875,0 -1.359375,-0.625 -1.359375,-1.78125 0,-0.953125 0.484375,-2.484375 1.109375,-3.390625 0.59375,-0.890625 1.25,-1.3125 2.03125,-1.3125 0.84375,0 1.359375,0.609375 1.359375,1.59375 z m 0,0"
             id="id-6ccc6678-5314-4eb7-983f-ca02ea9e56e4" />
        </g>
      </g>
    </g>
    <g
       transform="matrix(0.396875,0,0,0.396875,144.00231,107.529)"
       ns1:version="1.7.0"
       ns1:texconverter="xelatex"
       ns1:pdfconverter="inkscape"
       ns1:text="$c$"
       ns1:preamble="/home/xiaocy/.config/inkscape/extensions/textext/default_packages.tex"
       ns1:scale="1.5"
       ns1:alignment="middle center"
       ns1:stroke-to-path="0"
       ns1:inkscapeversion="1.1.2"
       ns1:jacobian_sqrt="0.396875"
       id="g7320">
      <defs
         id="id-a480e31d-b651-4242-9ea0-a9235cf3f4d1">
        <g
           id="id-80bf0a58-8ed0-408f-9669-c1e1d4d02ee8">
          <g
             id="id-18f9b0d4-694b-4b2c-8271-80419ac6c1a9" />
          <g
             id="id-f4253469-4957-4485-9800-d32e680b466e">
            <path
               d="m 3.84375,-1.015625 -0.171875,-0.09375 c -0.578125,0.609375 -0.984375,0.84375 -1.5,0.84375 -0.59375,0 -0.953125,-0.4375 -0.953125,-1.1875 0,-0.90625 0.359375,-1.828125 0.953125,-2.453125 0.3125,-0.3125 0.71875,-0.5 1.140625,-0.5 0.25,0 0.390625,0.078125 0.390625,0.203125 0,0.0625 0,0.109375 -0.0625,0.203125 -0.078125,0.140625 -0.09375,0.203125 -0.09375,0.296875 0,0.265625 0.15625,0.40625 0.40625,0.40625 C 4.25,-3.296875 4.46875,-3.5 4.46875,-3.78125 4.46875,-4.28125 4,-4.625 3.359375,-4.625 1.78125,-4.625 0.3125,-3.09375 0.3125,-1.453125 c 0,0.984375 0.5625,1.5625 1.546875,1.5625 0.78125,0 1.34375,-0.3125 1.984375,-1.125 z m 0,0"
               id="id-8b29ae42-56b9-4755-9260-46523986c4c3" />
          </g>
        </g>
      </defs>
      <g
         fill="#000000"
         fill-opacity="1"
         id="id-443abd9f-3a97-43d6-8a23-ec28930b8d2b"
         transform="translate(-155.196,-130.14)">
        <g
           transform="translate(154.884,134.765)"
           id="g7605">
          <path
             d="m 3.84375,-1.015625 -0.171875,-0.09375 c -0.578125,0.609375 -0.984375,0.84375 -1.5,0.84375 -0.59375,0 -0.953125,-0.4375 -0.953125,-1.1875 0,-0.90625 0.359375,-1.828125 0.953125,-2.453125 0.3125,-0.3125 0.71875,-0.5 1.140625,-0.5 0.25,0 0.390625,0.078125 0.390625,0.203125 0,0.0625 0,0.109375 -0.0625,0.203125 -0.078125,0.140625 -0.09375,0.203125 -0.09375,0.296875 0,0.265625 0.15625,0.40625 0.40625,0.40625 C 4.25,-3.296875 4.46875,-3.5 4.46875,-3.78125 4.46875,-4.28125 4,-4.625 3.359375,-4.625 1.78125,-4.625 0.3125,-3.09375 0.3125,-1.453125 c 0,0.984375 0.5625,1.5625 1.546875,1.5625 0.78125,0 1.34375,-0.3125 1.984375,-1.125 z m 0,0"
             id="id-e9f6fe5c-c13f-413d-8c21-df29ccbbbbbe" />
        </g>
      </g>
    </g>
    <g
       transform="matrix(0.396875,0,0,0.396875,149.56861,107.57228)"
       ns1:version="1.7.0"
       ns1:texconverter="xelatex"
       ns1:pdfconverter="inkscape"
       ns1:text="$x_r$"
       ns1:preamble="/home/xiaocy/.config/inkscape/extensions/textext/default_packages.tex"
       ns1:scale="1.5"
       ns1:alignment="middle center"
       ns1:stroke-to-path="0"
       ns1:inkscapeversion="1.1.2"
       ns1:jacobian_sqrt="0.396875"
       id="g7654">
      <defs
         id="id-10112042-3498-4ec7-ae1b-7bec8cd5441b">
        <g
           id="id-6cdd0807-2d80-439d-8df8-f722018297ca">
          <g
             id="id-46cbe495-0813-4765-9ec7-7b60c1fb53ef" />
          <g
             id="id-b5052e6e-721e-4157-b2e3-d2246505c0d8">
            <path
               d="M 4.375,-1.078125 4.21875,-1.171875 C 4.140625,-1.0625 4.078125,-1.015625 3.984375,-0.875 3.75,-0.5625 3.640625,-0.46875 3.5,-0.46875 c -0.15625,0 -0.25,-0.125 -0.3125,-0.421875 -0.03125,-0.09375 -0.03125,-0.15625 -0.046875,-0.171875 -0.25,-0.984375 -0.375,-1.546875 -0.375,-1.703125 0.453125,-0.8125 0.828125,-1.28125 1.03125,-1.28125 0.0625,0 0.15625,0.03125 0.25,0.09375 0.125,0.0625 0.1875,0.09375 0.296875,0.09375 0.203125,0 0.34375,-0.15625 0.34375,-0.375 0,-0.234375 -0.171875,-0.390625 -0.421875,-0.390625 -0.46875,0 -0.859375,0.375 -1.59375,1.5 L 2.5625,-3.703125 C 2.421875,-4.421875 2.296875,-4.625 2.015625,-4.625 1.78125,-4.625 1.4375,-4.546875 0.78125,-4.328125 L 0.671875,-4.28125 0.71875,-4.125 0.890625,-4.171875 c 0.203125,-0.046875 0.328125,-0.0625 0.40625,-0.0625 0.265625,0 0.328125,0.09375 0.484375,0.71875 L 2.078125,-2.21875 1.21875,-1 C 1,-0.6875 0.796875,-0.5 0.6875,-0.5 0.625,-0.5 0.515625,-0.53125 0.40625,-0.59375 0.265625,-0.65625 0.171875,-0.6875 0.078125,-0.6875 c -0.21875,0 -0.359375,0.15625 -0.359375,0.359375 0,0.28125 0.203125,0.4375 0.515625,0.4375 0.328125,0 0.453125,-0.09375 0.984375,-0.71875 l 0.9375,-1.234375 0.328125,1.25 c 0.125,0.546875 0.265625,0.703125 0.609375,0.703125 0.390625,0 0.671875,-0.25 1.28125,-1.1875 z m 0,0"
               id="id-9652ac6e-0285-453e-946d-28bd640cf1c8" />
          </g>
          <g
             id="id-a54426a9-247c-449d-a13e-a8f0b6c53a96" />
          <g
             id="id-651390ab-90c1-4240-b42e-65e0266cde7d">
            <path
               d="M 3.203125,-2.71875 C 3.1875,-2.921875 3.03125,-3.078125 2.828125,-3.078125 c -0.1875,0 -0.40625,0.109375 -0.59375,0.296875 C 1.921875,-2.484375 1.625,-2.078125 1.5,-1.796875 l -0.09375,0.25 0.375,-1.515625 -0.078125,-0.015625 -1.21875,0.1875 v 0.125 h 0.1875 c 0.1875,0 0.359375,0.015625 0.359375,0.15625 0.015625,0.09375 0,0.09375 -0.109375,0.578125 L 0.359375,0 H 0.96875 c 0.375,-1.171875 0.5,-1.453125 0.828125,-1.96875 0.265625,-0.421875 0.484375,-0.65625 0.625,-0.65625 0.046875,0 0.09375,0.03125 0.140625,0.109375 0.0625,0.109375 0.125,0.140625 0.28125,0.140625 0.234375,0 0.359375,-0.125 0.359375,-0.34375 z m 0,0"
               id="id-ee82ef34-bc97-4f0c-89ca-ccf88246ddf1" />
          </g>
        </g>
      </defs>
      <g
         fill="#000000"
         fill-opacity="1"
         id="id-066348a6-cc8b-42ee-9a3f-73b78f0e6b86"
         transform="translate(-154.487,-130.14)">
        <g
           transform="translate(154.768,134.765)"
           id="g8294">
          <path
             d="M 4.375,-1.078125 4.21875,-1.171875 C 4.140625,-1.0625 4.078125,-1.015625 3.984375,-0.875 3.75,-0.5625 3.640625,-0.46875 3.5,-0.46875 c -0.15625,0 -0.25,-0.125 -0.3125,-0.421875 -0.03125,-0.09375 -0.03125,-0.15625 -0.046875,-0.171875 -0.25,-0.984375 -0.375,-1.546875 -0.375,-1.703125 0.453125,-0.8125 0.828125,-1.28125 1.03125,-1.28125 0.0625,0 0.15625,0.03125 0.25,0.09375 0.125,0.0625 0.1875,0.09375 0.296875,0.09375 0.203125,0 0.34375,-0.15625 0.34375,-0.375 0,-0.234375 -0.171875,-0.390625 -0.421875,-0.390625 -0.46875,0 -0.859375,0.375 -1.59375,1.5 L 2.5625,-3.703125 C 2.421875,-4.421875 2.296875,-4.625 2.015625,-4.625 1.78125,-4.625 1.4375,-4.546875 0.78125,-4.328125 L 0.671875,-4.28125 0.71875,-4.125 0.890625,-4.171875 c 0.203125,-0.046875 0.328125,-0.0625 0.40625,-0.0625 0.265625,0 0.328125,0.09375 0.484375,0.71875 L 2.078125,-2.21875 1.21875,-1 C 1,-0.6875 0.796875,-0.5 0.6875,-0.5 0.625,-0.5 0.515625,-0.53125 0.40625,-0.59375 0.265625,-0.65625 0.171875,-0.6875 0.078125,-0.6875 c -0.21875,0 -0.359375,0.15625 -0.359375,0.359375 0,0.28125 0.203125,0.4375 0.515625,0.4375 0.328125,0 0.453125,-0.09375 0.984375,-0.71875 l 0.9375,-1.234375 0.328125,1.25 c 0.125,0.546875 0.265625,0.703125 0.609375,0.703125 0.390625,0 0.671875,-0.25 1.28125,-1.1875 z m 0,0"
             id="id-eb7afb9c-6df3-4c4f-803a-422814f3d846" />
        </g>
      </g>
      <g
         fill="#000000"
         fill-opacity="1"
         id="id-bf06da67-6c50-4507-ad53-f7e858d4722c"
         transform="translate(-154.487,-130.14)">
        <g
           transform="translate(159.676,136.34)"
           id="g8298">
          <path
             d="M 3.203125,-2.71875 C 3.1875,-2.921875 3.03125,-3.078125 2.828125,-3.078125 c -0.1875,0 -0.40625,0.109375 -0.59375,0.296875 C 1.921875,-2.484375 1.625,-2.078125 1.5,-1.796875 l -0.09375,0.25 0.375,-1.515625 -0.078125,-0.015625 -1.21875,0.1875 v 0.125 h 0.1875 c 0.1875,0 0.359375,0.015625 0.359375,0.15625 0.015625,0.09375 0,0.09375 -0.109375,0.578125 L 0.359375,0 H 0.96875 c 0.375,-1.171875 0.5,-1.453125 0.828125,-1.96875 0.265625,-0.421875 0.484375,-0.65625 0.625,-0.65625 0.046875,0 0.09375,0.03125 0.140625,0.109375 0.0625,0.109375 0.125,0.140625 0.28125,0.140625 0.234375,0 0.359375,-0.125 0.359375,-0.34375 z m 0,0"
             id="id-dcb688f2-45cf-4f95-8ffd-72ff8f383037" />
        </g>
      </g>
    </g>
    <g
       transform="matrix(0.396875,0,0,0.396875,132.14507,94.579718)"
       ns1:version="1.7.0"
       ns1:texconverter="xelatex"
       ns1:pdfconverter="inkscape"
       ns1:text="$y_r$"
       ns1:preamble="/home/xiaocy/.config/inkscape/extensions/textext/default_packages.tex"
       ns1:scale="1.5"
       ns1:alignment="middle center"
       ns1:stroke-to-path="0"
       ns1:inkscapeversion="1.1.2"
       ns1:jacobian_sqrt="0.396875"
       id="g8365">
      <defs
         id="id-db676785-f6fb-47e9-9635-15d5272cfcf1">
        <g
           id="id-9fd0180e-cb7b-45be-b1a8-bed8ad409688">
          <g
             id="id-10aeef16-2f94-48a3-a0c2-def7a4f5ce52" />
          <g
             id="id-4bb31fc3-09ef-40b5-bc26-bac29785b4d1">
            <path
               d="M 4.46875,-4.046875 C 4.46875,-4.375 4.203125,-4.625 3.890625,-4.625 c -0.234375,0 -0.40625,0.15625 -0.40625,0.390625 0,0.15625 0.078125,0.265625 0.296875,0.40625 0.203125,0.109375 0.265625,0.203125 0.265625,0.359375 0,0.40625 -0.375,1.21875 -1.28125,2.71875 L 2.5625,-1.96875 C 2.40625,-2.90625 1.8125,-4.625 1.65625,-4.625 H 1.515625 L 0.5,-4.4375 0.15625,-4.375 v 0.171875 c 0.125,-0.03125 0.21875,-0.03125 0.328125,-0.03125 0.421875,0 0.609375,0.15625 0.8125,0.671875 0.28125,0.703125 0.859375,3.0625 0.859375,3.484375 0,0.109375 -0.046875,0.234375 -0.109375,0.359375 -0.078125,0.140625 -0.5625,0.765625 -0.75,0.953125 C 1.0625,1.5 0.9375,1.578125 0.796875,1.578125 0.71875,1.578125 0.65625,1.546875 0.546875,1.46875 0.390625,1.34375 0.28125,1.296875 0.15625,1.296875 c -0.234375,0 -0.40625,0.171875 -0.40625,0.40625 0,0.265625 0.21875,0.453125 0.53125,0.453125 0.59375,0 1.734375,-1.203125 2.8125,-3 0.890625,-1.453125 1.375,-2.609375 1.375,-3.203125 z m 0,0"
               id="id-bbf9146b-8b23-4f28-b2ef-b191b53126e3" />
          </g>
          <g
             id="id-1c0f41e7-6bfb-4165-9f19-9403916004f1" />
          <g
             id="id-7802173f-fc74-471f-ac63-7be8ac026ef9">
            <path
               d="M 3.203125,-2.71875 C 3.1875,-2.921875 3.03125,-3.078125 2.828125,-3.078125 c -0.1875,0 -0.40625,0.109375 -0.59375,0.296875 C 1.921875,-2.484375 1.625,-2.078125 1.5,-1.796875 l -0.09375,0.25 0.375,-1.515625 -0.078125,-0.015625 -1.21875,0.1875 v 0.125 h 0.1875 c 0.1875,0 0.359375,0.015625 0.359375,0.15625 0.015625,0.09375 0,0.09375 -0.109375,0.578125 L 0.359375,0 H 0.96875 c 0.375,-1.171875 0.5,-1.453125 0.828125,-1.96875 0.265625,-0.421875 0.484375,-0.65625 0.625,-0.65625 0.046875,0 0.09375,0.03125 0.140625,0.109375 0.0625,0.109375 0.125,0.140625 0.28125,0.140625 0.234375,0 0.359375,-0.125 0.359375,-0.34375 z m 0,0"
               id="id-062b6b34-f2f0-4111-9543-73b4b47553bb" />
          </g>
        </g>
      </defs>
      <g
         fill="#000000"
         fill-opacity="1"
         id="id-7305a750-f336-43c1-b1e9-af3e50046b73"
         transform="translate(-154.938,-130.14)">
        <g
           transform="translate(155.188,134.765)"
           id="g8707">
          <path
             d="M 4.46875,-4.046875 C 4.46875,-4.375 4.203125,-4.625 3.890625,-4.625 c -0.234375,0 -0.40625,0.15625 -0.40625,0.390625 0,0.15625 0.078125,0.265625 0.296875,0.40625 0.203125,0.109375 0.265625,0.203125 0.265625,0.359375 0,0.40625 -0.375,1.21875 -1.28125,2.71875 L 2.5625,-1.96875 C 2.40625,-2.90625 1.8125,-4.625 1.65625,-4.625 H 1.515625 L 0.5,-4.4375 0.15625,-4.375 v 0.171875 c 0.125,-0.03125 0.21875,-0.03125 0.328125,-0.03125 0.421875,0 0.609375,0.15625 0.8125,0.671875 0.28125,0.703125 0.859375,3.0625 0.859375,3.484375 0,0.109375 -0.046875,0.234375 -0.109375,0.359375 -0.078125,0.140625 -0.5625,0.765625 -0.75,0.953125 C 1.0625,1.5 0.9375,1.578125 0.796875,1.578125 0.71875,1.578125 0.65625,1.546875 0.546875,1.46875 0.390625,1.34375 0.28125,1.296875 0.15625,1.296875 c -0.234375,0 -0.40625,0.171875 -0.40625,0.40625 0,0.265625 0.21875,0.453125 0.53125,0.453125 0.59375,0 1.734375,-1.203125 2.8125,-3 0.890625,-1.453125 1.375,-2.609375 1.375,-3.203125 z m 0,0"
             id="id-786450e1-748d-474f-ad12-a0059408867a" />
        </g>
      </g>
      <g
         fill="#000000"
         fill-opacity="1"
         id="id-2327f558-1f75-40f4-b29b-12ddb668b4f8"
         transform="translate(-154.938,-130.14)">
        <g
           transform="translate(160.201,136.34)"
           id="g8711">
          <path
             d="M 3.203125,-2.71875 C 3.1875,-2.921875 3.03125,-3.078125 2.828125,-3.078125 c -0.1875,0 -0.40625,0.109375 -0.59375,0.296875 C 1.921875,-2.484375 1.625,-2.078125 1.5,-1.796875 l -0.09375,0.25 0.375,-1.515625 -0.078125,-0.015625 -1.21875,0.1875 v 0.125 h 0.1875 c 0.1875,0 0.359375,0.015625 0.359375,0.15625 0.015625,0.09375 0,0.09375 -0.109375,0.578125 L 0.359375,0 H 0.96875 c 0.375,-1.171875 0.5,-1.453125 0.828125,-1.96875 0.265625,-0.421875 0.484375,-0.65625 0.625,-0.65625 0.046875,0 0.09375,0.03125 0.140625,0.109375 0.0625,0.109375 0.125,0.140625 0.28125,0.140625 0.234375,0 0.359375,-0.125 0.359375,-0.34375 z m 0,0"
             id="id-44539b55-83ad-4030-b6b6-7952c0c8781c" />
        </g>
      </g>
    </g>
    <circle
       style="font-variation-settings:normal;opacity:1;fill:none;fill-opacity:1;fill-rule:evenodd;stroke:#000000;stroke-width:0.25;stroke-linecap:butt;stroke-linejoin:miter;stroke-miterlimit:4;stroke-dasharray:1, 1;stroke-dashoffset:0;stroke-opacity:1;stop-color:#000000;stop-opacity:1"
       id="path1485"
       cx="136.85686"
       cy="105.58088"
       r="20.498091" />
    <path
       style="font-variation-settings:normal;opacity:1;vector-effect:none;fill:none;fill-opacity:1;fill-rule:evenodd;stroke:#000000;stroke-width:0.25;stroke-linecap:butt;stroke-linejoin:miter;stroke-miterlimit:4;stroke-dasharray:none;stroke-dashoffset:0;stroke-opacity:1;marker-start:url(#Arrow2Mstart);marker-end:url(#Arrow2Mend);stop-color:#000000;stop-opacity:1"
       id="path2349"
       sodipodi:type="arc"
       sodipodi:cx="136.16667"
       sodipodi:cy="106.55279"
       sodipodi:rx="5.5700517"
       sodipodi:ry="5.5700517"
       sodipodi:start="5.5665592"
       sodipodi:end="6.2006313"
       sodipodi:open="true"
       sodipodi:arc-type="arc"
       d="m 140.36664,102.89413 a 5.5700517,5.5700517 0 0 1 1.35111,3.19935" />
    <g
       transform="matrix(0.396875,0,0,0.396875,151.09046,85.883464)"
       ns1:version="1.7.0"
       ns1:texconverter="xelatex"
       ns1:pdfconverter="inkscape"
       ns1:text="$Q$"
       ns1:preamble="/home/xiaocy/.config/inkscape/extensions/textext/default_packages.tex"
       ns1:scale="1.5"
       ns1:alignment="middle center"
       ns1:stroke-to-path="0"
       ns1:inkscapeversion="1.1.2"
       ns1:jacobian_sqrt="0.396875"
       id="g1373">
      <defs
         id="id-fed28875-1c27-4abe-9c92-4114a3e8377f">
        <g
           id="id-8e71c195-1445-4047-a29d-fadfded03f97">
          <g
             id="id-9d873d3c-3012-409c-adb1-e848e14c5a49" />
          <g
             id="id-38783eb6-f8c0-4bcb-baf8-df205266d837">
            <path
               d="M 7.015625,0.515625 6.859375,0.40625 C 6.265625,1.015625 5.84375,1.203125 5.078125,1.203125 4.96875,1.203125 4.875,1.1875 4.78125,1.171875 L 2.828125,0.765625 2.671875,0.75 C 2.640625,0.765625 2.625,0.765625 2.625,0.765625 H 2.359375 l 0.5625,-0.59375 C 3.71875,0.109375 4.078125,0.015625 4.65625,-0.28125 6.25,-1.125 7.34375,-2.859375 7.34375,-4.546875 7.34375,-5.96875 6.328125,-7 4.9375,-7 4.140625,-7 3.265625,-6.609375 2.453125,-5.9375 1.3125,-4.953125 0.625,-3.609375 0.625,-2.328125 c 0,0.859375 0.3125,1.5625 0.859375,2 C 1.78125,-0.09375 2,0.015625 2.484375,0.125 1.515625,0.96875 1.421875,1.046875 0.625,1.609375 L 0.71875,1.78125 C 1.125,1.546875 1.515625,1.453125 1.9375,1.453125 2.140625,1.453125 2.453125,1.5 2.90625,1.640625 3.546875,1.8125 4.109375,1.90625 4.5,1.90625 c 0.578125,0 1.3125,-0.265625 1.859375,-0.671875 0.25,-0.203125 0.375,-0.359375 0.65625,-0.71875 z m -0.78125,-5.5625 c 0,1.09375 -0.46875,2.59375 -1.125,3.5625 -0.578125,0.875 -1.25,1.3125 -2.03125,1.3125 -0.859375,0 -1.34375,-0.640625 -1.34375,-1.75 0,-0.96875 0.484375,-2.5 1.109375,-3.40625 0.59375,-0.890625 1.25,-1.3125 2.03125,-1.3125 0.84375,0 1.359375,0.609375 1.359375,1.59375 z m 0,0"
               id="id-72285ebf-e3a5-4099-90d6-e07992df96e6" />
          </g>
        </g>
      </defs>
      <g
         fill="#000000"
         fill-opacity="1"
         id="id-3ef3e706-df20-43c3-80fb-90fc9d7213b1"
         transform="translate(-155.288,-127.765)">
        <g
           transform="translate(154.663,134.765)"
           id="g1370">
          <path
             d="M 7.015625,0.515625 6.859375,0.40625 C 6.265625,1.015625 5.84375,1.203125 5.078125,1.203125 4.96875,1.203125 4.875,1.1875 4.78125,1.171875 L 2.828125,0.765625 2.671875,0.75 C 2.640625,0.765625 2.625,0.765625 2.625,0.765625 H 2.359375 l 0.5625,-0.59375 C 3.71875,0.109375 4.078125,0.015625 4.65625,-0.28125 6.25,-1.125 7.34375,-2.859375 7.34375,-4.546875 7.34375,-5.96875 6.328125,-7 4.9375,-7 4.140625,-7 3.265625,-6.609375 2.453125,-5.9375 1.3125,-4.953125 0.625,-3.609375 0.625,-2.328125 c 0,0.859375 0.3125,1.5625 0.859375,2 C 1.78125,-0.09375 2,0.015625 2.484375,0.125 1.515625,0.96875 1.421875,1.046875 0.625,1.609375 L 0.71875,1.78125 C 1.125,1.546875 1.515625,1.453125 1.9375,1.453125 2.140625,1.453125 2.453125,1.5 2.90625,1.640625 3.546875,1.8125 4.109375,1.90625 4.5,1.90625 c 0.578125,0 1.3125,-0.265625 1.859375,-0.671875 0.25,-0.203125 0.375,-0.359375 0.65625,-0.71875 z m -0.78125,-5.5625 c 0,1.09375 -0.46875,2.59375 -1.125,3.5625 -0.578125,0.875 -1.25,1.3125 -2.03125,1.3125 -0.859375,0 -1.34375,-0.640625 -1.34375,-1.75 0,-0.96875 0.484375,-2.5 1.109375,-3.40625 0.59375,-0.890625 1.25,-1.3125 2.03125,-1.3125 0.84375,0 1.359375,0.609375 1.359375,1.59375 z m 0,0"
             id="id-936a4f13-9dc5-430a-b996-40651d6c735d" />
        </g>
      </g>
    </g>
  </g>
</svg>
