<?xml version="1.0" encoding="UTF-8" standalone="no"?>
<!-- Created with Inkscape (http://www.inkscape.org/) -->

<svg
   width="65.381981mm"
   height="45.037426mm"
   viewBox="0 0 65.381981 45.037426"
   version="1.1"
   id="svg5"
   inkscape:version="1.1.2 (0a00cf5339, 2022-02-04)"
   sodipodi:docname="coordinateTransform.svg"
   inkscape:export-filename="/home/xiaocy/SpringFiles/iChunyu.github.io/content/posts/vectorTransform/coordinateTransform.png"
   inkscape:export-xdpi="600"
   inkscape:export-ydpi="600"
   xmlns:inkscape="http://www.inkscape.org/namespaces/inkscape"
   xmlns:sodipodi="http://sodipodi.sourceforge.net/DTD/sodipodi-0.dtd"
   xmlns="http://www.w3.org/2000/svg"
   xmlns:svg="http://www.w3.org/2000/svg"
   xmlns:ns2="http://www.iki.fi/pav/software/textext/">
  <sodipodi:namedview
     id="namedview7"
     pagecolor="#ffffff"
     bordercolor="#cccccc"
     borderopacity="1"
     inkscape:pageshadow="0"
     inkscape:pageopacity="1"
     inkscape:pagecheckerboard="0"
     inkscape:document-units="mm"
     showgrid="false"
     inkscape:zoom="2.8284272"
     inkscape:cx="92.100657"
     inkscape:cy="58.513086"
     inkscape:current-layer="layer1"
     inkscape:snap-intersection-paths="true" />
  <defs
     id="defs2">
    <marker
       style="overflow:visible"
       id="Arrow2Lend"
       refX="0"
       refY="0"
       orient="auto"
       inkscape:stockid="Arrow2Lend"
       inkscape:isstock="true">
      <path
         transform="matrix(-1.1,0,0,-1.1,-1.1,0)"
         d="M 8.7185878,4.0337352 -2.2072895,0.01601326 8.7185884,-4.0017078 c -1.7454984,2.3720609 -1.7354408,5.6174519 -6e-7,8.035443 z"
         style="fill:context-stroke;fill-rule:evenodd;stroke:context-stroke;stroke-width:0.625;stroke-linejoin:round"
         id="path880" />
    </marker>
  </defs>
  <g
     inkscape:label="Layer 1"
     inkscape:groupmode="layer"
     id="layer1"
     transform="translate(-61.135058,-115.90389)">
    <path
       style="font-variation-settings:normal;opacity:1;fill:#62a0ea;fill-opacity:1;stroke:#62a0ea;stroke-width:0.250001;stroke-linecap:round;stroke-linejoin:round;stroke-miterlimit:4;stroke-dasharray:none;stroke-dashoffset:0;stroke-opacity:1;marker-end:url(#Arrow2Lend);stop-color:#000000;stop-opacity:1"
       d="M 83.470031,154.26809 H 119.74151"
       id="path1324" />
    <path
       style="font-variation-settings:normal;opacity:1;fill:#62a0ea;fill-opacity:1;stroke:#62a0ea;stroke-width:0.250001;stroke-linecap:round;stroke-linejoin:round;stroke-miterlimit:4;stroke-dasharray:none;stroke-dashoffset:0;stroke-opacity:1;marker-end:url(#Arrow2Lend);stop-color:#000000;stop-opacity:1"
       d="M 83.470031,154.26809 V 117.99641"
       id="path1441" />
    <path
       style="font-variation-settings:normal;opacity:1;fill:#62a0ea;fill-opacity:1;stroke:#62a0ea;stroke-width:0.25;stroke-linecap:round;stroke-linejoin:round;stroke-miterlimit:4;stroke-dasharray:1, 0.5;stroke-dashoffset:0;stroke-opacity:1;stop-color:#000000;stop-opacity:1"
       d="m 106.60102,131.92 v 22.34809"
       id="path3665" />
    <path
       style="font-variation-settings:normal;opacity:1;fill:#62a0ea;fill-opacity:1;stroke:#62a0ea;stroke-width:0.25;stroke-linecap:round;stroke-linejoin:round;stroke-miterlimit:4;stroke-dasharray:1, 0.5;stroke-dashoffset:0;stroke-opacity:1;stop-color:#000000;stop-opacity:1"
       d="M 106.60102,131.92 H 83.47003"
       id="path3700" />
    <g
       transform="matrix(0.529167,0,0,0.529167,128.64065,146.84274)"
       ns2:version="1.7.0"
       ns2:texconverter="xelatex"
       ns2:pdfconverter="inkscape"
       ns2:text="$\\vec{a}_1$"
       ns2:preamble="/home/xiaocy/.config/inkscape/extensions/textext/default_packages.tex"
       ns2:scale="1.5"
       ns2:alignment="middle center"
       ns2:stroke-to-path="0"
       ns2:inkscapeversion="1.1.2"
       ns2:jacobian_sqrt="0.529167"
       id="g3840"
       style="fill:#62a0ea">
      <defs
         id="id-ab1360c4-5b92-48b9-9af4-65c27f7928c9">
        <g
           id="id-ed0e6435-bb91-4200-9b3d-5a83bc27ef61">
          <symbol
             overflow="visible"
             id="id-e70e45ee-32ab-4844-bfa2-cc897196583e">
            <path
               style="stroke:none;stroke-width:0"
               d=""
               id="id-1f0b7d82-d3bc-49b0-b2c8-943d29d3003c" />
          </symbol>
          <symbol
             overflow="visible"
             id="id-a6327f7d-166a-4de6-bf06-fe1574a3a969">
            <path
               style="stroke:none;stroke-width:0"
               d="M 4.59375,-6.859375 3.15625,-7.96875 2.890625,-7.828125 3.59375,-7.15625 H 0.171875 v 0.578125 H 3.59375 L 2.890625,-5.90625 3.15625,-5.765625 Z m 0,0"
               id="id-c10ed6fc-bcf6-4b03-8b1b-aa93471fe595" />
          </symbol>
          <symbol
             overflow="visible"
             id="id-739da18b-9680-4184-98bd-f58810aca673">
            <path
               style="stroke:none;stroke-width:0"
               d=""
               id="id-9ef878da-f622-4697-be70-51d1bf049ad8" />
          </symbol>
          <symbol
             overflow="visible"
             id="id-abf298fa-29bd-4ce4-ae79-832aea94c6eb">
            <path
               style="stroke:none;stroke-width:0"
               d="M 5,-1.046875 4.875,-1.15625 4.578125,-0.859375 C 4.25,-0.53125 4.125,-0.4375 4.03125,-0.4375 c -0.078125,0 -0.140625,-0.0625 -0.140625,-0.125 0,-0.21875 0.4375,-2.015625 0.921875,-3.8125 C 4.84375,-4.484375 4.859375,-4.5 4.875,-4.59375 L 4.8125,-4.625 l -0.640625,0.0625 -0.03125,0.03125 -0.125,0.515625 C 3.9375,-4.40625 3.640625,-4.625 3.1875,-4.625 c -1.40625,0 -3.015625,1.90625 -3.015625,3.578125 0,0.734375 0.40625,1.15625 1.078125,1.15625 0.734375,0 1.1875,-0.34375 2.109375,-1.640625 -0.21875,0.859375 -0.234375,0.9375 -0.234375,1.203125 0,0.3125 0.125,0.4375 0.40625,0.4375 0.421875,0 0.671875,-0.203125 1.46875,-1.15625 z m -1.171875,-2.71875 c 0,0.890625 -0.53125,2.125 -1.25,2.90625 -0.25,0.28125 -0.609375,0.453125 -0.90625,0.453125 -0.375,0 -0.609375,-0.28125 -0.609375,-0.765625 0,-0.578125 0.359375,-1.59375 0.8125,-2.265625 0.40625,-0.609375 0.890625,-0.96875 1.3125,-0.96875 0.03125,0 0.03125,0 0.0625,0 0.34375,0.03125 0.578125,0.28125 0.578125,0.640625 z m 0,0"
               id="id-559581ed-3f57-4899-b97b-4b2de3e8c820" />
          </symbol>
          <symbol
             overflow="visible"
             id="id-c35dce97-6f65-49f6-881e-5c7c5cbb9b33">
            <path
               style="stroke:none;stroke-width:0"
               d=""
               id="id-e890cee0-443f-421a-93b1-70ed8b993d9b" />
          </symbol>
          <symbol
             overflow="visible"
             id="id-e8a30efa-7864-4d2f-a9ad-afdab4bb4ee3">
            <path
               style="stroke:none;stroke-width:0"
               d="M 3.296875,0 V -0.25 H 3.03125 c -0.703125,0 -0.703125,-0.09375 -0.703125,-0.328125 V -4.4375 c 0,-0.1875 0,-0.1875 -0.203125,-0.1875 -0.453125,0.4375 -1.078125,0.4375 -1.359375,0.4375 v 0.25 c 0.15625,0 0.625,0 1,-0.1875 v 3.546875 c 0,0.234375 0,0.328125 -0.6875,0.328125 H 0.8125 V 0 l 1.234375,-0.03125 z m 0,0"
               id="id-6a4dfd31-7c40-428a-a291-03a9e529c938" />
          </symbol>
        </g>
      </defs>
      <g
         id="id-c1936816-26d5-4798-8487-ffcc06adc77e"
         transform="translate(-167.853,-117.24605)"
         style="fill:#62a0ea">
        <g
           style="fill:#62a0ea;fill-opacity:1"
           id="id-446fb3b5-5f2c-4740-a594-fb8a335feee1">
          <g
             transform="translate(156.007,134.765)"
             id="g3828"
             style="fill:#62a0ea">
            <path
               style="fill:#62a0ea;stroke:none;stroke-width:0"
               d="M 4.59375,-6.859375 3.15625,-7.96875 2.890625,-7.828125 3.59375,-7.15625 H 0.171875 v 0.578125 H 3.59375 L 2.890625,-5.90625 3.15625,-5.765625 Z m 0,0"
               id="id-7849c9ad-d3dc-42cc-b5f1-d89dec46e7ef" />
          </g>
        </g>
        <g
           style="fill:#62a0ea;fill-opacity:1"
           id="id-b1682d7f-e832-462c-abb8-00257e838da7">
          <g
             transform="translate(154.905,134.765)"
             id="g3832"
             style="fill:#62a0ea">
            <path
               style="fill:#62a0ea;stroke:none;stroke-width:0"
               d="M 5,-1.046875 4.875,-1.15625 4.578125,-0.859375 C 4.25,-0.53125 4.125,-0.4375 4.03125,-0.4375 c -0.078125,0 -0.140625,-0.0625 -0.140625,-0.125 0,-0.21875 0.4375,-2.015625 0.921875,-3.8125 C 4.84375,-4.484375 4.859375,-4.5 4.875,-4.59375 L 4.8125,-4.625 l -0.640625,0.0625 -0.03125,0.03125 -0.125,0.515625 C 3.9375,-4.40625 3.640625,-4.625 3.1875,-4.625 c -1.40625,0 -3.015625,1.90625 -3.015625,3.578125 0,0.734375 0.40625,1.15625 1.078125,1.15625 0.734375,0 1.1875,-0.34375 2.109375,-1.640625 -0.21875,0.859375 -0.234375,0.9375 -0.234375,1.203125 0,0.3125 0.125,0.4375 0.40625,0.4375 0.421875,0 0.671875,-0.203125 1.46875,-1.15625 z m -1.171875,-2.71875 c 0,0.890625 -0.53125,2.125 -1.25,2.90625 -0.25,0.28125 -0.609375,0.453125 -0.90625,0.453125 -0.375,0 -0.609375,-0.28125 -0.609375,-0.765625 0,-0.578125 0.359375,-1.59375 0.8125,-2.265625 0.40625,-0.609375 0.890625,-0.96875 1.3125,-0.96875 0.03125,0 0.03125,0 0.0625,0 0.34375,0.03125 0.578125,0.28125 0.578125,0.640625 z m 0,0"
               id="id-d1477cac-9228-4d72-84ca-ec9c1040b907" />
          </g>
        </g>
        <g
           style="fill:#62a0ea;fill-opacity:1"
           id="id-3688493c-3b06-45ad-941d-02e19eaf1eef">
          <g
             transform="translate(160.543,136.34)"
             id="g3836"
             style="fill:#62a0ea">
            <path
               style="fill:#62a0ea;stroke:none;stroke-width:0"
               d="M 3.296875,0 V -0.25 H 3.03125 c -0.703125,0 -0.703125,-0.09375 -0.703125,-0.328125 V -4.4375 c 0,-0.1875 0,-0.1875 -0.203125,-0.1875 -0.453125,0.4375 -1.078125,0.4375 -1.359375,0.4375 v 0.25 c 0.15625,0 0.625,0 1,-0.1875 v 3.546875 c 0,0.234375 0,0.328125 -0.6875,0.328125 H 0.8125 V 0 l 1.234375,-0.03125 z m 0,0"
               id="id-9592c3a9-cbd4-4961-addc-6acf068bf74c" />
          </g>
        </g>
      </g>
    </g>
    <g
       transform="matrix(0.529167,0,0,0.529167,76.202001,115.90376)"
       ns2:version="1.7.0"
       ns2:texconverter="xelatex"
       ns2:pdfconverter="inkscape"
       ns2:text="$\\vec{a}_2$"
       ns2:preamble="/home/xiaocy/.config/inkscape/extensions/textext/default_packages.tex"
       ns2:scale="1.5"
       ns2:alignment="middle center"
       ns2:stroke-to-path="0"
       ns2:inkscapeversion="1.1.2"
       ns2:jacobian_sqrt="0.529167"
       id="g3935"
       style="fill:#62a0ea">
      <defs
         id="id-d6343c6e-9042-43dd-8abe-21816b40c3b4">
        <g
           id="id-4a4c9f36-4502-4120-8411-eae4ecbd5e3d">
          <symbol
             overflow="visible"
             id="id-69c3226f-0a1a-45a3-8eb2-eec00b7102ff">
            <path
               style="stroke:none"
               d=""
               id="id-fd4b044d-72bd-4645-87b7-c78a5406ca54" />
          </symbol>
          <symbol
             overflow="visible"
             id="id-eb9ab56c-8c2a-4369-9fc8-ed39e938ed21">
            <path
               style="stroke:none"
               d="M 4.59375,-6.859375 3.15625,-7.96875 2.890625,-7.828125 3.59375,-7.15625 H 0.171875 v 0.578125 H 3.59375 L 2.890625,-5.90625 3.15625,-5.765625 Z m 0,0"
               id="id-23ab7af1-506e-4ff9-b096-9febbe13ea09" />
          </symbol>
          <symbol
             overflow="visible"
             id="id-a3f86997-400e-432e-8b47-0824da34dffe">
            <path
               style="stroke:none"
               d=""
               id="id-66cc6a59-87ca-4bb5-820b-27dbd427b7db" />
          </symbol>
          <symbol
             overflow="visible"
             id="id-271c1c4f-b37d-4947-a023-ce62722fed75">
            <path
               style="stroke:none"
               d="M 5,-1.046875 4.875,-1.15625 4.578125,-0.859375 C 4.25,-0.53125 4.125,-0.4375 4.03125,-0.4375 c -0.078125,0 -0.140625,-0.0625 -0.140625,-0.125 0,-0.21875 0.4375,-2.015625 0.921875,-3.8125 C 4.84375,-4.484375 4.859375,-4.5 4.875,-4.59375 L 4.8125,-4.625 l -0.640625,0.0625 -0.03125,0.03125 -0.125,0.515625 C 3.9375,-4.40625 3.640625,-4.625 3.1875,-4.625 c -1.40625,0 -3.015625,1.90625 -3.015625,3.578125 0,0.734375 0.40625,1.15625 1.078125,1.15625 0.734375,0 1.1875,-0.34375 2.109375,-1.640625 -0.21875,0.859375 -0.234375,0.9375 -0.234375,1.203125 0,0.3125 0.125,0.4375 0.40625,0.4375 0.421875,0 0.671875,-0.203125 1.46875,-1.15625 z m -1.171875,-2.71875 c 0,0.890625 -0.53125,2.125 -1.25,2.90625 -0.25,0.28125 -0.609375,0.453125 -0.90625,0.453125 -0.375,0 -0.609375,-0.28125 -0.609375,-0.765625 0,-0.578125 0.359375,-1.59375 0.8125,-2.265625 0.40625,-0.609375 0.890625,-0.96875 1.3125,-0.96875 0.03125,0 0.03125,0 0.0625,0 0.34375,0.03125 0.578125,0.28125 0.578125,0.640625 z m 0,0"
               id="id-4ddcbbe4-a840-4def-8106-043c502cc561" />
          </symbol>
          <symbol
             overflow="visible"
             id="id-82044086-3624-430c-8926-16a894bad91d">
            <path
               style="stroke:none"
               d=""
               id="id-3204c232-11e4-4a25-bdf2-53192906cfc7" />
          </symbol>
          <symbol
             overflow="visible"
             id="id-0a85931f-604c-4a96-9439-df96e0cab116">
            <path
               style="stroke:none"
               d="M 3.515625,-1.265625 H 3.28125 c -0.015625,0.15625 -0.09375,0.5625 -0.1875,0.625 C 3.046875,-0.59375 2.515625,-0.59375 2.40625,-0.59375 H 1.125 c 0.734375,-0.640625 0.984375,-0.84375 1.390625,-1.171875 0.515625,-0.40625 1,-0.84375 1,-1.5 0,-0.84375 -0.734375,-1.359375 -1.625,-1.359375 -0.859375,0 -1.453125,0.609375 -1.453125,1.25 0,0.34375 0.296875,0.390625 0.375,0.390625 0.15625,0 0.359375,-0.125 0.359375,-0.375 0,-0.125 -0.046875,-0.375 -0.40625,-0.375 C 0.984375,-4.21875 1.453125,-4.375 1.78125,-4.375 c 0.703125,0 1.0625,0.546875 1.0625,1.109375 0,0.609375 -0.4375,1.078125 -0.65625,1.328125 L 0.515625,-0.265625 C 0.4375,-0.203125 0.4375,-0.1875 0.4375,0 h 2.875 z m 0,0"
               id="id-38c2938a-e7d0-4a7d-825d-4d675fbe3670" />
          </symbol>
        </g>
      </defs>
      <g
         id="id-c2c5ea49-5ee3-47f4-b4d3-5951b309592e"
         transform="translate(-155.077,-126.796)"
         style="fill:#62a0ea">
        <g
           style="fill:#62a0ea;fill-opacity:1"
           id="id-4ee66f5f-3624-4197-926d-517941d57d1c">
          <g
             transform="translate(156.007,134.765)"
             id="g4047"
             style="fill:#62a0ea">
            <path
               style="fill:#62a0ea;stroke:none"
               d="M 4.59375,-6.859375 3.15625,-7.96875 2.890625,-7.828125 3.59375,-7.15625 H 0.171875 v 0.578125 H 3.59375 L 2.890625,-5.90625 3.15625,-5.765625 Z m 0,0"
               id="id-44979d78-b3bc-4720-9752-92b95fa1482d" />
          </g>
        </g>
        <g
           style="fill:#62a0ea;fill-opacity:1"
           id="id-35db8371-77a2-4fdd-a71c-4c2952e65c6d">
          <g
             transform="translate(154.905,134.765)"
             id="g4051"
             style="fill:#62a0ea">
            <path
               style="fill:#62a0ea;stroke:none"
               d="M 5,-1.046875 4.875,-1.15625 4.578125,-0.859375 C 4.25,-0.53125 4.125,-0.4375 4.03125,-0.4375 c -0.078125,0 -0.140625,-0.0625 -0.140625,-0.125 0,-0.21875 0.4375,-2.015625 0.921875,-3.8125 C 4.84375,-4.484375 4.859375,-4.5 4.875,-4.59375 L 4.8125,-4.625 l -0.640625,0.0625 -0.03125,0.03125 -0.125,0.515625 C 3.9375,-4.40625 3.640625,-4.625 3.1875,-4.625 c -1.40625,0 -3.015625,1.90625 -3.015625,3.578125 0,0.734375 0.40625,1.15625 1.078125,1.15625 0.734375,0 1.1875,-0.34375 2.109375,-1.640625 -0.21875,0.859375 -0.234375,0.9375 -0.234375,1.203125 0,0.3125 0.125,0.4375 0.40625,0.4375 0.421875,0 0.671875,-0.203125 1.46875,-1.15625 z m -1.171875,-2.71875 c 0,0.890625 -0.53125,2.125 -1.25,2.90625 -0.25,0.28125 -0.609375,0.453125 -0.90625,0.453125 -0.375,0 -0.609375,-0.28125 -0.609375,-0.765625 0,-0.578125 0.359375,-1.59375 0.8125,-2.265625 0.40625,-0.609375 0.890625,-0.96875 1.3125,-0.96875 0.03125,0 0.03125,0 0.0625,0 0.34375,0.03125 0.578125,0.28125 0.578125,0.640625 z m 0,0"
               id="id-c003ab53-619a-47c9-bbe4-abd5f6a4f8b1" />
          </g>
        </g>
        <g
           style="fill:#62a0ea;fill-opacity:1"
           id="id-441c1061-9e2f-47fc-91e0-45224f31c10d">
          <g
             transform="translate(160.543,136.34)"
             id="g4055"
             style="fill:#62a0ea">
            <path
               style="fill:#62a0ea;stroke:none"
               d="M 3.515625,-1.265625 H 3.28125 c -0.015625,0.15625 -0.09375,0.5625 -0.1875,0.625 C 3.046875,-0.59375 2.515625,-0.59375 2.40625,-0.59375 H 1.125 c 0.734375,-0.640625 0.984375,-0.84375 1.390625,-1.171875 0.515625,-0.40625 1,-0.84375 1,-1.5 0,-0.84375 -0.734375,-1.359375 -1.625,-1.359375 -0.859375,0 -1.453125,0.609375 -1.453125,1.25 0,0.34375 0.296875,0.390625 0.375,0.390625 0.15625,0 0.359375,-0.125 0.359375,-0.375 0,-0.125 -0.046875,-0.375 -0.40625,-0.375 C 0.984375,-4.21875 1.453125,-4.375 1.78125,-4.375 c 0.703125,0 1.0625,0.546875 1.0625,1.109375 0,0.609375 -0.4375,1.078125 -0.65625,1.328125 L 0.515625,-0.265625 C 0.4375,-0.203125 0.4375,-0.1875 0.4375,0 h 2.875 z m 0,0"
               id="id-171e29ea-cf7c-42ed-9c66-9c34d5a2c2e5" />
          </g>
        </g>
      </g>
    </g>
    <g
       transform="matrix(0.529167,0,0,0.529167,108.49893,129.32686)"
       ns2:version="1.7.0"
       ns2:texconverter="xelatex"
       ns2:pdfconverter="inkscape"
       ns2:text="$\\vec{r}$"
       ns2:preamble="/home/xiaocy/.config/inkscape/extensions/textext/default_packages.tex"
       ns2:scale="1.5"
       ns2:alignment="middle center"
       ns2:stroke-to-path="0"
       ns2:inkscapeversion="1.1.2"
       ns2:jacobian_sqrt="0.529167"
       id="g4153"
       style="fill:#ed333b">
      <defs
         id="id-44bce86b-9d8e-4afe-a2d5-8f85e7121600">
        <g
           id="id-a0018fce-ef20-4617-8061-ad233d80978e">
          <symbol
             overflow="visible"
             id="id-9f240f3e-7681-4b8a-9ba5-0600f9f86759">
            <path
               style="stroke:none"
               d=""
               id="id-2a5b8c14-fc7b-4c79-ae4b-744bb9dd9b00" />
          </symbol>
          <symbol
             overflow="visible"
             id="id-b9dea103-2a2e-47ee-a35b-d9f42ed14707">
            <path
               style="stroke:none"
               d="M 4.59375,-6.859375 3.15625,-7.96875 2.890625,-7.828125 3.59375,-7.15625 H 0.171875 v 0.578125 H 3.59375 L 2.890625,-5.90625 3.15625,-5.765625 Z m 0,0"
               id="id-ddccf6e8-46fe-42a2-b35e-e6587dc63b75" />
          </symbol>
          <symbol
             overflow="visible"
             id="id-a4de1171-5f5e-4de1-945f-7d2746b94a7e">
            <path
               style="stroke:none"
               d=""
               id="id-40dd818f-b174-4f0e-8a4e-6d82544c5689" />
          </symbol>
          <symbol
             overflow="visible"
             id="id-9526306d-86e4-4084-9a08-ba06f52defa0">
            <path
               style="stroke:none"
               d="m 4.328125,-4.09375 c 0,-0.3125 -0.203125,-0.53125 -0.5,-0.53125 -0.234375,0 -0.515625,0.15625 -0.796875,0.4375 -0.421875,0.453125 -0.84375,1.0625 -1.015625,1.484375 l -0.140625,0.375 0.546875,-2.28125 -0.03125,-0.015625 -1.625,0.28125 v 0.171875 c 0.078125,0 0.171875,0 0.265625,0 0.234375,0 0.453125,0.03125 0.453125,0.25 0,0.140625 0,0.140625 -0.15625,0.859375 L 0.46875,0 H 1.265625 C 1.8125,-1.765625 1.96875,-2.1875 2.4375,-2.96875 c 0.359375,-0.625 0.671875,-0.984375 0.859375,-0.984375 0.078125,0 0.109375,0.046875 0.171875,0.15625 0.078125,0.171875 0.171875,0.234375 0.375,0.234375 0.3125,0 0.484375,-0.203125 0.484375,-0.53125 z m 0,0"
               id="id-5a41d0d7-8220-41ef-a8ce-0eae9261fc39" />
          </symbol>
        </g>
      </defs>
      <g
         id="id-e9241d16-716c-4017-8d8a-3064d0e3cbe1"
         transform="translate(-155.069,-126.796)"
         style="fill:#ed333b">
        <g
           style="fill:#ed333b;fill-opacity:1"
           id="id-bc31e132-636a-4ce2-b20b-5b01777e3867">
          <g
             transform="translate(155.272,134.765)"
             id="g4311"
             style="fill:#ed333b">
            <path
               style="fill:#ed333b;stroke:none"
               d="M 4.59375,-6.859375 3.15625,-7.96875 2.890625,-7.828125 3.59375,-7.15625 H 0.171875 v 0.578125 H 3.59375 L 2.890625,-5.90625 3.15625,-5.765625 Z m 0,0"
               id="id-ea86590c-2874-4045-8580-7804f5990f6d" />
          </g>
        </g>
        <g
           style="fill:#ed333b;fill-opacity:1"
           id="id-ec89c4d1-fccd-4579-894d-c5004b989982">
          <g
             transform="translate(154.6,134.765)"
             id="g4315"
             style="fill:#ed333b">
            <path
               style="fill:#ed333b;stroke:none"
               d="m 4.328125,-4.09375 c 0,-0.3125 -0.203125,-0.53125 -0.5,-0.53125 -0.234375,0 -0.515625,0.15625 -0.796875,0.4375 -0.421875,0.453125 -0.84375,1.0625 -1.015625,1.484375 l -0.140625,0.375 0.546875,-2.28125 -0.03125,-0.015625 -1.625,0.28125 v 0.171875 c 0.078125,0 0.171875,0 0.265625,0 0.234375,0 0.453125,0.03125 0.453125,0.25 0,0.140625 0,0.140625 -0.15625,0.859375 L 0.46875,0 H 1.265625 C 1.8125,-1.765625 1.96875,-2.1875 2.4375,-2.96875 c 0.359375,-0.625 0.671875,-0.984375 0.859375,-0.984375 0.078125,0 0.109375,0.046875 0.171875,0.15625 0.078125,0.171875 0.171875,0.234375 0.375,0.234375 0.3125,0 0.484375,-0.203125 0.484375,-0.53125 z m 0,0"
               id="id-45fb2e07-8ba0-4c21-ae7f-32814f968788" />
          </g>
        </g>
      </g>
    </g>
    <path
       style="font-variation-settings:normal;opacity:1;fill:#33d17a;fill-opacity:1;stroke:#33d17a;stroke-width:0.250001;stroke-linecap:round;stroke-linejoin:round;stroke-miterlimit:4;stroke-dasharray:none;stroke-dashoffset:0;stroke-opacity:1;marker-end:url(#Arrow2Lend);stop-color:#000000;stop-opacity:1"
       d="M 83.470031,154.26809 116.15975,138.55178"
       id="path1371" />
    <path
       style="font-variation-settings:normal;opacity:1;fill:#33d17a;fill-opacity:1;stroke:#33d17a;stroke-width:0.250001;stroke-linecap:round;stroke-linejoin:round;stroke-miterlimit:4;stroke-dasharray:none;stroke-dashoffset:0;stroke-opacity:1;marker-end:url(#Arrow2Lend);stop-color:#000000;stop-opacity:1"
       d="M 83.470031,154.26809 67.753639,121.57819"
       id="path1373" />
    <path
       style="font-variation-settings:normal;opacity:1;fill:#33d17a;fill-opacity:1;stroke:#33d17a;stroke-width:0.25;stroke-linecap:round;stroke-linejoin:round;stroke-miterlimit:4;stroke-dasharray:0.999993, 0.5;stroke-dashoffset:0;stroke-opacity:1;stop-color:#000000;stop-opacity:1"
       d="m 106.60102,131.92 4.37728,9.12288"
       id="path1375" />
    <path
       style="font-variation-settings:normal;opacity:1;fill:#33d17a;fill-opacity:1;stroke:#33d17a;stroke-width:0.249999;stroke-linecap:round;stroke-linejoin:round;stroke-miterlimit:4;stroke-dasharray:1, 0.5;stroke-dashoffset:0;stroke-opacity:1;stop-color:#000000;stop-opacity:1"
       d="M 106.40645,132.15021 79.154176,145.29117"
       id="path1377" />
    <g
       transform="matrix(0.529167,0,0,0.529167,118.84862,134.14346)"
       ns2:version="1.7.0"
       ns2:texconverter="xelatex"
       ns2:pdfconverter="inkscape"
       ns2:text="$\\vec{b}_1$"
       ns2:preamble="/home/xiaocy/.config/inkscape/extensions/textext/default_packages.tex"
       ns2:scale="1.5"
       ns2:alignment="middle center"
       ns2:stroke-to-path="0"
       ns2:inkscapeversion="1.1.2"
       ns2:jacobian_sqrt="0.529167"
       id="g1427"
       style="fill:#33d17a">
      <defs
         id="id-a6630fcc-0975-467a-ae12-2a5eb3c95adc">
        <g
           id="id-2b8e11bf-dc0f-491a-bf63-832b7e53de9e">
          <symbol
             overflow="visible"
             id="id-3d291f10-eef3-4cfb-bc5b-d018186e5d57">
            <path
               style="stroke:none"
               d=""
               id="id-f2e409e9-d627-461e-a189-04e9c9f1b9c0" />
          </symbol>
          <symbol
             overflow="visible"
             id="id-8f8fa261-a219-40e7-a418-1f0d8f30b2ad">
            <path
               style="stroke:none"
               d="M 4.59375,-6.859375 3.15625,-7.96875 2.890625,-7.828125 3.59375,-7.15625 H 0.171875 v 0.578125 H 3.59375 L 2.890625,-5.90625 3.15625,-5.765625 Z m 0,0"
               id="id-c49714cd-5b6a-4ad0-8a88-e2a0c716bf41" />
          </symbol>
          <symbol
             overflow="visible"
             id="id-276326ac-d402-4598-91d6-2ddf9c80e9d5">
            <path
               style="stroke:none"
               d=""
               id="id-b8fb0a94-9f42-496f-8797-bddc8a27f042" />
          </symbol>
          <symbol
             overflow="visible"
             id="id-511e6ef9-1781-4c49-9ec3-1493cd9c2800">
            <path
               style="stroke:none"
               d="m 4.96875,-3.375 c 0,-0.734375 -0.515625,-1.25 -1.21875,-1.25 -0.734375,0 -1.28125,0.421875 -2.03125,1.578125 L 2.8125,-7.125 2.765625,-7.171875 c -0.53125,0.09375 -0.90625,0.15625 -1.609375,0.234375 V -6.75 c 0.625,0.015625 0.6875,0.046875 0.6875,0.28125 0,0.09375 -0.03125,0.203125 -0.09375,0.453125 L 1.6875,-5.8125 1.671875,-5.75 0.234375,-0.484375 V -0.4375 c 0,0.234375 0.8125,0.546875 1.40625,0.546875 1.578125,0 3.328125,-1.828125 3.328125,-3.484375 z m -0.890625,0.15625 c 0,0.703125 -0.53125,1.828125 -1.15625,2.46875 -0.390625,0.40625 -0.84375,0.625 -1.296875,0.625 -0.328125,0 -0.484375,-0.109375 -0.484375,-0.359375 0,-0.625 0.3125,-1.640625 0.765625,-2.421875 0.453125,-0.8125 0.921875,-1.203125 1.4375,-1.203125 0.453125,0 0.734375,0.34375 0.734375,0.890625 z m 0,0"
               id="id-76cfadcc-f8af-4940-9f65-056a217d2c0c" />
          </symbol>
          <symbol
             overflow="visible"
             id="id-0d547b16-5cc4-44c3-8a10-2c8a92499d72">
            <path
               style="stroke:none"
               d=""
               id="id-58ddcca1-b72d-44b3-9469-decaa7cd7545" />
          </symbol>
          <symbol
             overflow="visible"
             id="id-c497c22f-edf4-4445-9888-8f3bd950c525">
            <path
               style="stroke:none"
               d="M 3.296875,0 V -0.25 H 3.03125 c -0.703125,0 -0.703125,-0.09375 -0.703125,-0.328125 V -4.4375 c 0,-0.1875 0,-0.1875 -0.203125,-0.1875 -0.453125,0.4375 -1.078125,0.4375 -1.359375,0.4375 v 0.25 c 0.15625,0 0.625,0 1,-0.1875 v 3.546875 c 0,0.234375 0,0.328125 -0.6875,0.328125 H 0.8125 V 0 l 1.234375,-0.03125 z m 0,0"
               id="id-1c0f23e9-5440-4392-bfd9-4b69182e5ab8" />
          </symbol>
        </g>
      </defs>
      <g
         id="id-c473b528-aa5d-469f-b3e6-46b12349253a"
         transform="translate(-155.254,-124.781)"
         style="fill:#33d17a">
        <g
           style="fill:#33d17a;fill-opacity:1"
           id="id-b5a0e9c2-8044-451f-b18b-ef56bc8708b9">
          <g
             transform="translate(155.488,132.75)"
             id="g1727"
             style="fill:#33d17a">
            <path
               style="fill:#33d17a;stroke:none"
               d="M 4.59375,-6.859375 3.15625,-7.96875 2.890625,-7.828125 3.59375,-7.15625 H 0.171875 v 0.578125 H 3.59375 L 2.890625,-5.90625 3.15625,-5.765625 Z m 0,0"
               id="id-829f7067-fd8e-4d46-b8e3-d558bbb4d1bc" />
          </g>
        </g>
        <g
           style="fill:#33d17a;fill-opacity:1"
           id="id-c3d84804-7415-44db-8a5a-ace3d99313c1">
          <g
             transform="translate(155.02,135.207)"
             id="g1731"
             style="fill:#33d17a">
            <path
               style="fill:#33d17a;stroke:none"
               d="m 4.96875,-3.375 c 0,-0.734375 -0.515625,-1.25 -1.21875,-1.25 -0.734375,0 -1.28125,0.421875 -2.03125,1.578125 L 2.8125,-7.125 2.765625,-7.171875 c -0.53125,0.09375 -0.90625,0.15625 -1.609375,0.234375 V -6.75 c 0.625,0.015625 0.6875,0.046875 0.6875,0.28125 0,0.09375 -0.03125,0.203125 -0.09375,0.453125 L 1.6875,-5.8125 1.671875,-5.75 0.234375,-0.484375 V -0.4375 c 0,0.234375 0.8125,0.546875 1.40625,0.546875 1.578125,0 3.328125,-1.828125 3.328125,-3.484375 z m -0.890625,0.15625 c 0,0.703125 -0.53125,1.828125 -1.15625,2.46875 -0.390625,0.40625 -0.84375,0.625 -1.296875,0.625 -0.328125,0 -0.484375,-0.109375 -0.484375,-0.359375 0,-0.625 0.3125,-1.640625 0.765625,-2.421875 0.453125,-0.8125 0.921875,-1.203125 1.4375,-1.203125 0.453125,0 0.734375,0.34375 0.734375,0.890625 z m 0,0"
               id="id-656cbeab-7d9a-43bb-bef8-5a44c76b3b9a" />
          </g>
        </g>
        <g
           style="fill:#33d17a;fill-opacity:1"
           id="id-b684b1c2-ad25-4f61-833d-374e841fd120">
          <g
             transform="translate(160.659,136.782)"
             id="g1735"
             style="fill:#33d17a">
            <path
               style="fill:#33d17a;stroke:none"
               d="M 3.296875,0 V -0.25 H 3.03125 c -0.703125,0 -0.703125,-0.09375 -0.703125,-0.328125 V -4.4375 c 0,-0.1875 0,-0.1875 -0.203125,-0.1875 -0.453125,0.4375 -1.078125,0.4375 -1.359375,0.4375 v 0.25 c 0.15625,0 0.625,0 1,-0.1875 v 3.546875 c 0,0.234375 0,0.328125 -0.6875,0.328125 H 0.8125 V 0 l 1.234375,-0.03125 z m 0,0"
               id="id-db493721-3d6f-4e86-9aee-4484c3589541" />
          </g>
        </g>
      </g>
    </g>
    <g
       transform="matrix(0.529167,0,0,0.529167,61.13486,122.1658)"
       ns2:version="1.7.0"
       ns2:texconverter="xelatex"
       ns2:pdfconverter="inkscape"
       ns2:text="$\\vec{b}_2$"
       ns2:preamble="/home/xiaocy/.config/inkscape/extensions/textext/default_packages.tex"
       ns2:scale="1.5"
       ns2:alignment="middle center"
       ns2:stroke-to-path="0"
       ns2:inkscapeversion="1.1.2"
       ns2:jacobian_sqrt="0.529167"
       id="g1833"
       style="fill:#33d17a">
      <defs
         id="id-3157330b-4fb2-4cba-8254-1cd57e341e12">
        <g
           id="id-3947997b-c522-4010-b1df-cf3e1754ac89">
          <symbol
             overflow="visible"
             id="id-2c449ea2-af12-4a32-92f6-5905d2820f58">
            <path
               style="stroke:none"
               d=""
               id="id-e302733b-5c88-427e-a7a8-c8b60369dbc0" />
          </symbol>
          <symbol
             overflow="visible"
             id="id-603dbc29-336d-4123-b627-a7a7db9d3399">
            <path
               style="stroke:none"
               d="M 4.59375,-6.859375 3.15625,-7.96875 2.890625,-7.828125 3.59375,-7.15625 H 0.171875 v 0.578125 H 3.59375 L 2.890625,-5.90625 3.15625,-5.765625 Z m 0,0"
               id="id-5439408a-51d4-4a7f-acaa-ed6389520137" />
          </symbol>
          <symbol
             overflow="visible"
             id="id-cdab1dad-8e17-44db-9483-e20a41fee0b6">
            <path
               style="stroke:none"
               d=""
               id="id-984e1f3e-5d4c-423b-b195-0bd84cd0d571" />
          </symbol>
          <symbol
             overflow="visible"
             id="id-f911bc75-68cd-47d0-b297-fea32f33724d">
            <path
               style="stroke:none"
               d="m 4.96875,-3.375 c 0,-0.734375 -0.515625,-1.25 -1.21875,-1.25 -0.734375,0 -1.28125,0.421875 -2.03125,1.578125 L 2.8125,-7.125 2.765625,-7.171875 c -0.53125,0.09375 -0.90625,0.15625 -1.609375,0.234375 V -6.75 c 0.625,0.015625 0.6875,0.046875 0.6875,0.28125 0,0.09375 -0.03125,0.203125 -0.09375,0.453125 L 1.6875,-5.8125 1.671875,-5.75 0.234375,-0.484375 V -0.4375 c 0,0.234375 0.8125,0.546875 1.40625,0.546875 1.578125,0 3.328125,-1.828125 3.328125,-3.484375 z m -0.890625,0.15625 c 0,0.703125 -0.53125,1.828125 -1.15625,2.46875 -0.390625,0.40625 -0.84375,0.625 -1.296875,0.625 -0.328125,0 -0.484375,-0.109375 -0.484375,-0.359375 0,-0.625 0.3125,-1.640625 0.765625,-2.421875 0.453125,-0.8125 0.921875,-1.203125 1.4375,-1.203125 0.453125,0 0.734375,0.34375 0.734375,0.890625 z m 0,0"
               id="id-b40859d6-e28a-4991-a59e-a8f6a12fb336" />
          </symbol>
          <symbol
             overflow="visible"
             id="id-927d6b4d-4918-4e98-bf81-636639fef0e0">
            <path
               style="stroke:none"
               d=""
               id="id-bd7e5c9d-38f6-4b8b-9813-a125649ab60c" />
          </symbol>
          <symbol
             overflow="visible"
             id="id-58d3876e-b384-48d7-b661-a01bd7d7e487">
            <path
               style="stroke:none"
               d="M 3.515625,-1.265625 H 3.28125 c -0.015625,0.15625 -0.09375,0.5625 -0.1875,0.625 C 3.046875,-0.59375 2.515625,-0.59375 2.40625,-0.59375 H 1.125 c 0.734375,-0.640625 0.984375,-0.84375 1.390625,-1.171875 0.515625,-0.40625 1,-0.84375 1,-1.5 0,-0.84375 -0.734375,-1.359375 -1.625,-1.359375 -0.859375,0 -1.453125,0.609375 -1.453125,1.25 0,0.34375 0.296875,0.390625 0.375,0.390625 0.15625,0 0.359375,-0.125 0.359375,-0.375 0,-0.125 -0.046875,-0.375 -0.40625,-0.375 C 0.984375,-4.21875 1.453125,-4.375 1.78125,-4.375 c 0.703125,0 1.0625,0.546875 1.0625,1.109375 0,0.609375 -0.4375,1.078125 -0.65625,1.328125 L 0.515625,-0.265625 C 0.4375,-0.203125 0.4375,-0.1875 0.4375,0 h 2.875 z m 0,0"
               id="id-1b710274-cb4c-4bee-bb0f-278122787448" />
          </symbol>
        </g>
      </defs>
      <g
         id="id-7af54d45-a35d-4c21-b2ef-0c3888360ac7"
         transform="translate(-155.254,-124.781)"
         style="fill:#33d17a">
        <g
           style="fill:#33d17a;fill-opacity:1"
           id="id-d1dc674e-b1a5-4612-9359-303b69be38d2">
          <g
             transform="translate(155.488,132.75)"
             id="g2183"
             style="fill:#33d17a">
            <path
               style="fill:#33d17a;stroke:none"
               d="M 4.59375,-6.859375 3.15625,-7.96875 2.890625,-7.828125 3.59375,-7.15625 H 0.171875 v 0.578125 H 3.59375 L 2.890625,-5.90625 3.15625,-5.765625 Z m 0,0"
               id="id-d8c717d5-ad96-4df2-9fa4-0c9a0e4994d0" />
          </g>
        </g>
        <g
           style="fill:#33d17a;fill-opacity:1"
           id="id-a45d6fe9-60e7-488e-869e-3216cdb26f81">
          <g
             transform="translate(155.02,135.207)"
             id="g2187"
             style="fill:#33d17a">
            <path
               style="fill:#33d17a;stroke:none"
               d="m 4.96875,-3.375 c 0,-0.734375 -0.515625,-1.25 -1.21875,-1.25 -0.734375,0 -1.28125,0.421875 -2.03125,1.578125 L 2.8125,-7.125 2.765625,-7.171875 c -0.53125,0.09375 -0.90625,0.15625 -1.609375,0.234375 V -6.75 c 0.625,0.015625 0.6875,0.046875 0.6875,0.28125 0,0.09375 -0.03125,0.203125 -0.09375,0.453125 L 1.6875,-5.8125 1.671875,-5.75 0.234375,-0.484375 V -0.4375 c 0,0.234375 0.8125,0.546875 1.40625,0.546875 1.578125,0 3.328125,-1.828125 3.328125,-3.484375 z m -0.890625,0.15625 c 0,0.703125 -0.53125,1.828125 -1.15625,2.46875 -0.390625,0.40625 -0.84375,0.625 -1.296875,0.625 -0.328125,0 -0.484375,-0.109375 -0.484375,-0.359375 0,-0.625 0.3125,-1.640625 0.765625,-2.421875 0.453125,-0.8125 0.921875,-1.203125 1.4375,-1.203125 0.453125,0 0.734375,0.34375 0.734375,0.890625 z m 0,0"
               id="id-7b98d186-2a97-4818-b830-9dd6ca87eaf1" />
          </g>
        </g>
        <g
           style="fill:#33d17a;fill-opacity:1"
           id="id-fad438c7-5ec9-4d9b-a397-1e668eb12517">
          <g
             transform="translate(160.659,136.782)"
             id="g2191"
             style="fill:#33d17a">
            <path
               style="fill:#33d17a;stroke:none"
               d="M 3.515625,-1.265625 H 3.28125 c -0.015625,0.15625 -0.09375,0.5625 -0.1875,0.625 C 3.046875,-0.59375 2.515625,-0.59375 2.40625,-0.59375 H 1.125 c 0.734375,-0.640625 0.984375,-0.84375 1.390625,-1.171875 0.515625,-0.40625 1,-0.84375 1,-1.5 0,-0.84375 -0.734375,-1.359375 -1.625,-1.359375 -0.859375,0 -1.453125,0.609375 -1.453125,1.25 0,0.34375 0.296875,0.390625 0.375,0.390625 0.15625,0 0.359375,-0.125 0.359375,-0.375 0,-0.125 -0.046875,-0.375 -0.40625,-0.375 C 0.984375,-4.21875 1.453125,-4.375 1.78125,-4.375 c 0.703125,0 1.0625,0.546875 1.0625,1.109375 0,0.609375 -0.4375,1.078125 -0.65625,1.328125 L 0.515625,-0.265625 C 0.4375,-0.203125 0.4375,-0.1875 0.4375,0 h 2.875 z m 0,0"
               id="id-0b5d6783-8ae3-4ebf-85ed-78d5a5418b76" />
          </g>
        </g>
      </g>
    </g>
    <g
       transform="matrix(0.529167,0,0,0.529167,77.237783,128.90911)"
       ns2:version="1.7.0"
       ns2:texconverter="xelatex"
       ns2:pdfconverter="inkscape"
       ns2:text="$r_2^a$"
       ns2:preamble="/home/xiaocy/.config/inkscape/extensions/textext/default_packages.tex"
       ns2:scale="1.5"
       ns2:alignment="middle center"
       ns2:stroke-to-path="0"
       ns2:inkscapeversion="1.1.2"
       ns2:jacobian_sqrt="0.529167"
       id="g4660"
       style="fill:#62a0ea">
      <defs
         id="id-d7f5106a-196f-43a1-a25b-3212c7154ed9">
        <g
           id="id-1fd60216-8466-4228-820c-78ecd5e163ae">
          <symbol
             overflow="visible"
             id="id-854275df-e5c0-4bdc-b209-27da67b7045d">
            <path
               style="stroke:none"
               d=""
               id="id-c795c158-5279-4e9b-9fc0-6aef3df77d15" />
          </symbol>
          <symbol
             overflow="visible"
             id="id-1b908195-a82e-4f59-bbba-b72bda9ac2bf">
            <path
               style="stroke:none"
               d="m 4.328125,-4.09375 c 0,-0.3125 -0.203125,-0.53125 -0.5,-0.53125 -0.234375,0 -0.515625,0.15625 -0.796875,0.4375 -0.421875,0.453125 -0.84375,1.0625 -1.015625,1.484375 l -0.140625,0.375 0.546875,-2.28125 -0.03125,-0.015625 -1.625,0.28125 v 0.171875 c 0.078125,0 0.171875,0 0.265625,0 0.234375,0 0.453125,0.03125 0.453125,0.25 0,0.140625 0,0.140625 -0.15625,0.859375 L 0.46875,0 H 1.265625 C 1.8125,-1.765625 1.96875,-2.1875 2.4375,-2.96875 c 0.359375,-0.625 0.671875,-0.984375 0.859375,-0.984375 0.078125,0 0.109375,0.046875 0.171875,0.15625 0.078125,0.171875 0.171875,0.234375 0.375,0.234375 0.3125,0 0.484375,-0.203125 0.484375,-0.53125 z m 0,0"
               id="id-13913b76-2ab7-483a-a8d4-490ed48fd16c" />
          </symbol>
          <symbol
             overflow="visible"
             id="id-44e060e0-9291-4bb0-a33d-7464a4d48624">
            <path
               style="stroke:none"
               d=""
               id="id-2017d37f-b94a-491b-8ae1-4f62863c039f" />
          </symbol>
          <symbol
             overflow="visible"
             id="id-b31e728b-7041-4d99-8022-969c02c96697">
            <path
               style="stroke:none"
               d="m 3.796875,-0.703125 -0.109375,-0.0625 -0.203125,0.1875 C 3.25,-0.34375 3.15625,-0.28125 3.078125,-0.28125 3.015625,-0.28125 2.96875,-0.328125 2.96875,-0.375 2.953125,-0.515625 3.25,-1.71875 3.59375,-2.90625 3.609375,-2.96875 3.609375,-2.984375 3.625,-3.046875 L 3.578125,-3.078125 3.09375,-3.03125 3.0625,-3 2.984375,-2.671875 c -0.078125,-0.25 -0.3125,-0.40625 -0.65625,-0.40625 -1.0625,0 -2.265625,1.265625 -2.21875,2.375 0.015625,0.5 0.328125,0.78125 0.84375,0.78125 0.5625,0 0.953125,-0.203125 1.578125,-1.09375 -0.140625,0.5625 -0.15625,0.625 -0.15625,0.796875 0.015625,0.203125 0.109375,0.28125 0.328125,0.28125 0.328125,0 0.515625,-0.125 1.09375,-0.765625 z M 2.859375,-2.5 C 2.875,-1.90625 2.5,-1.09375 1.96875,-0.578125 c -0.1875,0.1875 -0.46875,0.3125 -0.6875,0.3125 -0.296875,0 -0.484375,-0.1875 -0.5,-0.515625 0,-0.375 0.25,-1.0625 0.578125,-1.5 0.3125,-0.40625 0.65625,-0.640625 0.984375,-0.640625 h 0.046875 c 0.28125,0.015625 0.453125,0.1875 0.46875,0.421875 z m 0,0"
               id="id-1c1eb4ef-48a5-4534-8a04-7af045c57d24" />
          </symbol>
          <symbol
             overflow="visible"
             id="id-46ea0fcc-be70-48e2-93c4-e58dfe63411c">
            <path
               style="stroke:none"
               d=""
               id="id-edad504c-d2d2-404d-9066-ba8cbfa56868" />
          </symbol>
          <symbol
             overflow="visible"
             id="id-50a66a2d-5154-4114-8245-0ef691fbdcf5">
            <path
               style="stroke:none"
               d="M 3.515625,-1.265625 H 3.28125 c -0.015625,0.15625 -0.09375,0.5625 -0.1875,0.625 C 3.046875,-0.59375 2.515625,-0.59375 2.40625,-0.59375 H 1.125 c 0.734375,-0.640625 0.984375,-0.84375 1.390625,-1.171875 0.515625,-0.40625 1,-0.84375 1,-1.5 0,-0.84375 -0.734375,-1.359375 -1.625,-1.359375 -0.859375,0 -1.453125,0.609375 -1.453125,1.25 0,0.34375 0.296875,0.390625 0.375,0.390625 0.15625,0 0.359375,-0.125 0.359375,-0.375 0,-0.125 -0.046875,-0.375 -0.40625,-0.375 C 0.984375,-4.21875 1.453125,-4.375 1.78125,-4.375 c 0.703125,0 1.0625,0.546875 1.0625,1.109375 0,0.609375 -0.4375,1.078125 -0.65625,1.328125 L 0.515625,-0.265625 C 0.4375,-0.203125 0.4375,-0.1875 0.4375,0 h 2.875 z m 0,0"
               id="id-1049f3b2-a48d-49b0-a587-4da5602aec95" />
          </symbol>
        </g>
      </defs>
      <g
         id="id-e4180c3e-6715-4776-8c5c-9c2260e4d710"
         transform="translate(-155.069,-127.875)"
         style="fill:#62a0ea">
        <g
           style="fill:#62a0ea;fill-opacity:1"
           id="id-ffc06332-04e9-4a4d-b134-86561c8ce1cc">
          <g
             transform="translate(154.6,134.765)"
             id="g3496"
             style="fill:#62a0ea">
            <path
               style="fill:#62a0ea;stroke:none"
               d="m 4.328125,-4.09375 c 0,-0.3125 -0.203125,-0.53125 -0.5,-0.53125 -0.234375,0 -0.515625,0.15625 -0.796875,0.4375 -0.421875,0.453125 -0.84375,1.0625 -1.015625,1.484375 l -0.140625,0.375 0.546875,-2.28125 -0.03125,-0.015625 -1.625,0.28125 v 0.171875 c 0.078125,0 0.171875,0 0.265625,0 0.234375,0 0.453125,0.03125 0.453125,0.25 0,0.140625 0,0.140625 -0.15625,0.859375 L 0.46875,0 H 1.265625 C 1.8125,-1.765625 1.96875,-2.1875 2.4375,-2.96875 c 0.359375,-0.625 0.671875,-0.984375 0.859375,-0.984375 0.078125,0 0.109375,0.046875 0.171875,0.15625 0.078125,0.171875 0.171875,0.234375 0.375,0.234375 0.3125,0 0.484375,-0.203125 0.484375,-0.53125 z m 0,0"
               id="id-b613f87d-9e2a-4c3c-a43d-95c1bea562e3" />
          </g>
        </g>
        <g
           style="fill:#62a0ea;fill-opacity:1"
           id="id-19872f7f-24e3-4451-a9ba-a9dfe71d4c23">
          <g
             transform="translate(159.716,130.953)"
             id="g3500"
             style="fill:#62a0ea">
            <path
               style="fill:#62a0ea;stroke:none"
               d="m 3.796875,-0.703125 -0.109375,-0.0625 -0.203125,0.1875 C 3.25,-0.34375 3.15625,-0.28125 3.078125,-0.28125 3.015625,-0.28125 2.96875,-0.328125 2.96875,-0.375 2.953125,-0.515625 3.25,-1.71875 3.59375,-2.90625 3.609375,-2.96875 3.609375,-2.984375 3.625,-3.046875 L 3.578125,-3.078125 3.09375,-3.03125 3.0625,-3 2.984375,-2.671875 c -0.078125,-0.25 -0.3125,-0.40625 -0.65625,-0.40625 -1.0625,0 -2.265625,1.265625 -2.21875,2.375 0.015625,0.5 0.328125,0.78125 0.84375,0.78125 0.5625,0 0.953125,-0.203125 1.578125,-1.09375 -0.140625,0.5625 -0.15625,0.625 -0.15625,0.796875 0.015625,0.203125 0.109375,0.28125 0.328125,0.28125 0.328125,0 0.515625,-0.125 1.09375,-0.765625 z M 2.859375,-2.5 C 2.875,-1.90625 2.5,-1.09375 1.96875,-0.578125 c -0.1875,0.1875 -0.46875,0.3125 -0.6875,0.3125 -0.296875,0 -0.484375,-0.1875 -0.5,-0.515625 0,-0.375 0.25,-1.0625 0.578125,-1.5 0.3125,-0.40625 0.65625,-0.640625 0.984375,-0.640625 h 0.046875 c 0.28125,0.015625 0.453125,0.1875 0.46875,0.421875 z m 0,0"
               id="id-e9dbab68-4e00-4c16-8727-f7d9a5aeb35d" />
          </g>
        </g>
        <g
           style="fill:#62a0ea;fill-opacity:1"
           id="id-3f0e38b9-22d7-4ffa-8820-7f829f348b7f">
          <g
             transform="translate(159.105,137.852)"
             id="g3504"
             style="fill:#62a0ea">
            <path
               style="fill:#62a0ea;stroke:none"
               d="M 3.515625,-1.265625 H 3.28125 c -0.015625,0.15625 -0.09375,0.5625 -0.1875,0.625 C 3.046875,-0.59375 2.515625,-0.59375 2.40625,-0.59375 H 1.125 c 0.734375,-0.640625 0.984375,-0.84375 1.390625,-1.171875 0.515625,-0.40625 1,-0.84375 1,-1.5 0,-0.84375 -0.734375,-1.359375 -1.625,-1.359375 -0.859375,0 -1.453125,0.609375 -1.453125,1.25 0,0.34375 0.296875,0.390625 0.375,0.390625 0.15625,0 0.359375,-0.125 0.359375,-0.375 0,-0.125 -0.046875,-0.375 -0.40625,-0.375 C 0.984375,-4.21875 1.453125,-4.375 1.78125,-4.375 c 0.703125,0 1.0625,0.546875 1.0625,1.109375 0,0.609375 -0.4375,1.078125 -0.65625,1.328125 L 0.515625,-0.265625 C 0.4375,-0.203125 0.4375,-0.1875 0.4375,0 h 2.875 z m 0,0"
               id="id-8ec557e8-4978-476b-9e2b-4d4e13053dd7" />
          </g>
        </g>
      </g>
    </g>
    <g
       transform="matrix(0.529167,0,0,0.529167,103.908,155.66182)"
       ns2:version="1.7.0"
       ns2:texconverter="xelatex"
       ns2:pdfconverter="inkscape"
       ns2:text="$r_1^a$"
       ns2:preamble="/home/xiaocy/.config/inkscape/extensions/textext/default_packages.tex"
       ns2:scale="1.5"
       ns2:alignment="middle center"
       ns2:stroke-to-path="0"
       ns2:inkscapeversion="1.1.2"
       ns2:jacobian_sqrt="0.529167"
       id="g4392"
       style="fill:#62a0ea">
      <defs
         id="id-bca202f5-4033-4915-ae38-69f382f9ec93">
        <g
           id="id-798a90eb-6ec1-4860-b1bb-14543627b669">
          <symbol
             overflow="visible"
             id="id-19ddffae-ae9e-4de5-889c-612747872b12">
            <path
               style="stroke:none"
               d=""
               id="id-a6b3ae77-8744-45bf-abf8-040ea3b4bada" />
          </symbol>
          <symbol
             overflow="visible"
             id="id-05b7d6df-f7ed-4f91-a5ba-7c19ebdaefa4">
            <path
               style="stroke:none"
               d="m 4.328125,-4.09375 c 0,-0.3125 -0.203125,-0.53125 -0.5,-0.53125 -0.234375,0 -0.515625,0.15625 -0.796875,0.4375 -0.421875,0.453125 -0.84375,1.0625 -1.015625,1.484375 l -0.140625,0.375 0.546875,-2.28125 -0.03125,-0.015625 -1.625,0.28125 v 0.171875 c 0.078125,0 0.171875,0 0.265625,0 0.234375,0 0.453125,0.03125 0.453125,0.25 0,0.140625 0,0.140625 -0.15625,0.859375 L 0.46875,0 H 1.265625 C 1.8125,-1.765625 1.96875,-2.1875 2.4375,-2.96875 c 0.359375,-0.625 0.671875,-0.984375 0.859375,-0.984375 0.078125,0 0.109375,0.046875 0.171875,0.15625 0.078125,0.171875 0.171875,0.234375 0.375,0.234375 0.3125,0 0.484375,-0.203125 0.484375,-0.53125 z m 0,0"
               id="id-e572a321-9a1e-4862-854e-3431a9db129f" />
          </symbol>
          <symbol
             overflow="visible"
             id="id-08b37061-a795-4e9c-aa1c-850d713bb1d3">
            <path
               style="stroke:none"
               d=""
               id="id-c776ba3b-648f-4330-bed5-09509dd1c0e4" />
          </symbol>
          <symbol
             overflow="visible"
             id="id-18fcad56-32b8-4153-91bd-ce51e719a6cd">
            <path
               style="stroke:none"
               d="m 3.796875,-0.703125 -0.109375,-0.0625 -0.203125,0.1875 C 3.25,-0.34375 3.15625,-0.28125 3.078125,-0.28125 3.015625,-0.28125 2.96875,-0.328125 2.96875,-0.375 2.953125,-0.515625 3.25,-1.71875 3.59375,-2.90625 3.609375,-2.96875 3.609375,-2.984375 3.625,-3.046875 L 3.578125,-3.078125 3.09375,-3.03125 3.0625,-3 2.984375,-2.671875 c -0.078125,-0.25 -0.3125,-0.40625 -0.65625,-0.40625 -1.0625,0 -2.265625,1.265625 -2.21875,2.375 0.015625,0.5 0.328125,0.78125 0.84375,0.78125 0.5625,0 0.953125,-0.203125 1.578125,-1.09375 -0.140625,0.5625 -0.15625,0.625 -0.15625,0.796875 0.015625,0.203125 0.109375,0.28125 0.328125,0.28125 0.328125,0 0.515625,-0.125 1.09375,-0.765625 z M 2.859375,-2.5 C 2.875,-1.90625 2.5,-1.09375 1.96875,-0.578125 c -0.1875,0.1875 -0.46875,0.3125 -0.6875,0.3125 -0.296875,0 -0.484375,-0.1875 -0.5,-0.515625 0,-0.375 0.25,-1.0625 0.578125,-1.5 0.3125,-0.40625 0.65625,-0.640625 0.984375,-0.640625 h 0.046875 c 0.28125,0.015625 0.453125,0.1875 0.46875,0.421875 z m 0,0"
               id="id-54518c5d-35c1-45a6-9c98-32f083d7515c" />
          </symbol>
          <symbol
             overflow="visible"
             id="id-6093725b-bea4-4531-818c-c6286c0f748b">
            <path
               style="stroke:none"
               d=""
               id="id-0332a830-a717-4613-b455-0e55fdf7c4a7" />
          </symbol>
          <symbol
             overflow="visible"
             id="id-176f4049-a957-4c00-8961-a321cff019e0">
            <path
               style="stroke:none"
               d="M 3.296875,0 V -0.25 H 3.03125 c -0.703125,0 -0.703125,-0.09375 -0.703125,-0.328125 V -4.4375 c 0,-0.1875 0,-0.1875 -0.203125,-0.1875 -0.453125,0.4375 -1.078125,0.4375 -1.359375,0.4375 v 0.25 c 0.15625,0 0.625,0 1,-0.1875 v 3.546875 c 0,0.234375 0,0.328125 -0.6875,0.328125 H 0.8125 V 0 l 1.234375,-0.03125 z m 0,0"
               id="id-bf29e8dd-be5a-4eea-b22b-921b0ff529c2" />
          </symbol>
        </g>
      </defs>
      <g
         id="id-eaa652ac-677c-4e1d-8da1-51a733ff63de"
         transform="translate(-155.069,-127.875)"
         style="fill:#62a0ea">
        <g
           style="fill:#62a0ea;fill-opacity:1"
           id="id-53a5ac21-1f2b-4dcc-897c-e0fe37cb0f95">
          <g
             transform="translate(154.6,134.765)"
             id="g3923"
             style="fill:#62a0ea">
            <path
               style="fill:#62a0ea;stroke:none"
               d="m 4.328125,-4.09375 c 0,-0.3125 -0.203125,-0.53125 -0.5,-0.53125 -0.234375,0 -0.515625,0.15625 -0.796875,0.4375 -0.421875,0.453125 -0.84375,1.0625 -1.015625,1.484375 l -0.140625,0.375 0.546875,-2.28125 -0.03125,-0.015625 -1.625,0.28125 v 0.171875 c 0.078125,0 0.171875,0 0.265625,0 0.234375,0 0.453125,0.03125 0.453125,0.25 0,0.140625 0,0.140625 -0.15625,0.859375 L 0.46875,0 H 1.265625 C 1.8125,-1.765625 1.96875,-2.1875 2.4375,-2.96875 c 0.359375,-0.625 0.671875,-0.984375 0.859375,-0.984375 0.078125,0 0.109375,0.046875 0.171875,0.15625 0.078125,0.171875 0.171875,0.234375 0.375,0.234375 0.3125,0 0.484375,-0.203125 0.484375,-0.53125 z m 0,0"
               id="id-4a923401-1d3c-43ab-b598-fe807296a064" />
          </g>
        </g>
        <g
           style="fill:#62a0ea;fill-opacity:1"
           id="id-aba06188-4813-40df-9b55-bcaff0153f8c">
          <g
             transform="translate(159.716,130.953)"
             id="g3927"
             style="fill:#62a0ea">
            <path
               style="fill:#62a0ea;stroke:none"
               d="m 3.796875,-0.703125 -0.109375,-0.0625 -0.203125,0.1875 C 3.25,-0.34375 3.15625,-0.28125 3.078125,-0.28125 3.015625,-0.28125 2.96875,-0.328125 2.96875,-0.375 2.953125,-0.515625 3.25,-1.71875 3.59375,-2.90625 3.609375,-2.96875 3.609375,-2.984375 3.625,-3.046875 L 3.578125,-3.078125 3.09375,-3.03125 3.0625,-3 2.984375,-2.671875 c -0.078125,-0.25 -0.3125,-0.40625 -0.65625,-0.40625 -1.0625,0 -2.265625,1.265625 -2.21875,2.375 0.015625,0.5 0.328125,0.78125 0.84375,0.78125 0.5625,0 0.953125,-0.203125 1.578125,-1.09375 -0.140625,0.5625 -0.15625,0.625 -0.15625,0.796875 0.015625,0.203125 0.109375,0.28125 0.328125,0.28125 0.328125,0 0.515625,-0.125 1.09375,-0.765625 z M 2.859375,-2.5 C 2.875,-1.90625 2.5,-1.09375 1.96875,-0.578125 c -0.1875,0.1875 -0.46875,0.3125 -0.6875,0.3125 -0.296875,0 -0.484375,-0.1875 -0.5,-0.515625 0,-0.375 0.25,-1.0625 0.578125,-1.5 0.3125,-0.40625 0.65625,-0.640625 0.984375,-0.640625 h 0.046875 c 0.28125,0.015625 0.453125,0.1875 0.46875,0.421875 z m 0,0"
               id="id-e9f09e54-0401-41e0-8367-bc8cfd22fca7" />
          </g>
        </g>
        <g
           style="fill:#62a0ea;fill-opacity:1"
           id="id-e2f72660-917e-4d98-be28-5fd912b9f61d">
          <g
             transform="translate(159.105,137.852)"
             id="g3931"
             style="fill:#62a0ea">
            <path
               style="fill:#62a0ea;stroke:none"
               d="M 3.296875,0 V -0.25 H 3.03125 c -0.703125,0 -0.703125,-0.09375 -0.703125,-0.328125 V -4.4375 c 0,-0.1875 0,-0.1875 -0.203125,-0.1875 -0.453125,0.4375 -1.078125,0.4375 -1.359375,0.4375 v 0.25 c 0.15625,0 0.625,0 1,-0.1875 v 3.546875 c 0,0.234375 0,0.328125 -0.6875,0.328125 H 0.8125 V 0 l 1.234375,-0.03125 z m 0,0"
               id="id-fc001d6d-a988-4226-aea3-4af492d98ff2" />
          </g>
        </g>
      </g>
    </g>
    <g
       transform="matrix(0.529167,0,0,0.529167,111.12686,141.3215)"
       ns2:version="1.7.0"
       ns2:texconverter="xelatex"
       ns2:pdfconverter="inkscape"
       ns2:text="$r_1^b$"
       ns2:preamble="/home/xiaocy/.config/inkscape/extensions/textext/default_packages.tex"
       ns2:scale="1.5"
       ns2:alignment="middle center"
       ns2:stroke-to-path="0"
       ns2:inkscapeversion="1.1.2"
       ns2:jacobian_sqrt="0.529167"
       id="g4223"
       style="fill:#33d17a">
      <defs
         id="id-bfc864bd-f469-4eb1-bdcd-d6638238b17d">
        <g
           id="id-0e2ead57-1ce0-46a5-8b46-a307d630ed50">
          <symbol
             overflow="visible"
             id="id-ebb9d2cb-18d0-4b87-b009-bcb7622c9efc">
            <path
               style="stroke:none"
               d=""
               id="id-ca4eab6c-ce1f-40e3-8bcc-063c6acee107" />
          </symbol>
          <symbol
             overflow="visible"
             id="id-c6392dcb-e15c-4d26-9f10-46206aec90fe">
            <path
               style="stroke:none"
               d="m 4.328125,-4.09375 c 0,-0.3125 -0.203125,-0.53125 -0.5,-0.53125 -0.234375,0 -0.515625,0.15625 -0.796875,0.4375 -0.421875,0.453125 -0.84375,1.0625 -1.015625,1.484375 l -0.140625,0.375 0.546875,-2.28125 -0.03125,-0.015625 -1.625,0.28125 v 0.171875 c 0.078125,0 0.171875,0 0.265625,0 0.234375,0 0.453125,0.03125 0.453125,0.25 0,0.140625 0,0.140625 -0.15625,0.859375 L 0.46875,0 H 1.265625 C 1.8125,-1.765625 1.96875,-2.1875 2.4375,-2.96875 c 0.359375,-0.625 0.671875,-0.984375 0.859375,-0.984375 0.078125,0 0.109375,0.046875 0.171875,0.15625 0.078125,0.171875 0.171875,0.234375 0.375,0.234375 0.3125,0 0.484375,-0.203125 0.484375,-0.53125 z m 0,0"
               id="id-749531d1-0af0-4a69-bbab-c0bfd07bd732" />
          </symbol>
          <symbol
             overflow="visible"
             id="id-92e23938-5cb2-4129-88de-89feae91196d">
            <path
               style="stroke:none"
               d=""
               id="id-65d8e5bf-8577-41f4-b05e-4a984c0b7721" />
          </symbol>
          <symbol
             overflow="visible"
             id="id-a556bd83-ff10-4394-bdd5-e64b08a1d3d2">
            <path
               style="stroke:none"
               d="m 3.734375,-2.234375 c -0.015625,-0.484375 -0.4375,-0.84375 -0.96875,-0.84375 -0.5625,0 -0.96875,0.296875 -1.515625,1.0625 L 2,-4.71875 1.953125,-4.765625 c -0.40625,0.0625 -0.6875,0.109375 -1.21875,0.171875 v 0.109375 c 0.46875,0.015625 0.515625,0.03125 0.53125,0.1875 0,0.0625 -0.03125,0.140625 -0.078125,0.296875 L 1.15625,-3.859375 1.140625,-3.8125 0.171875,-0.328125 0.1875,-0.296875 c 0,0.171875 0.609375,0.375 1.0625,0.375 1.21875,0 2.515625,-1.21875 2.484375,-2.3125 z M 3.046875,-2.125 c 0.015625,0.453125 -0.375,1.203125 -0.828125,1.625 -0.296875,0.265625 -0.625,0.421875 -0.96875,0.421875 -0.25,0 -0.375,-0.078125 -0.375,-0.25 -0.015625,-0.40625 0.203125,-1.078125 0.515625,-1.609375 0.328125,-0.53125 0.6875,-0.796875 1.0625,-0.796875 0.359375,0 0.578125,0.234375 0.59375,0.609375 z m 0,0"
               id="id-f5e51a1c-7c01-44f7-b06a-3198b5764b4a" />
          </symbol>
          <symbol
             overflow="visible"
             id="id-bfcba573-f701-4d7d-87b5-b80f7a776f7d">
            <path
               style="stroke:none"
               d=""
               id="id-4ae1245f-ab53-42eb-8424-5fe5501b0d40" />
          </symbol>
          <symbol
             overflow="visible"
             id="id-64a3bbe7-b906-4298-b930-917ce7aab242">
            <path
               style="stroke:none"
               d="M 3.296875,0 V -0.25 H 3.03125 c -0.703125,0 -0.703125,-0.09375 -0.703125,-0.328125 V -4.4375 c 0,-0.1875 0,-0.1875 -0.203125,-0.1875 -0.453125,0.4375 -1.078125,0.4375 -1.359375,0.4375 v 0.25 c 0.15625,0 0.625,0 1,-0.1875 v 3.546875 c 0,0.234375 0,0.328125 -0.6875,0.328125 H 0.8125 V 0 l 1.234375,-0.03125 z m 0,0"
               id="id-d02f0326-d5b8-4aea-9f02-d2226162d7f3" />
          </symbol>
        </g>
      </defs>
      <g
         id="id-8779ebb9-5014-4f2d-a887-7fdbc42dd13c"
         transform="translate(-155.069,-126.187)"
         style="fill:#33d17a">
        <g
           style="fill:#33d17a;fill-opacity:1"
           id="id-2773d00b-17a7-4394-83f3-09ab64f5253c">
          <g
             transform="translate(154.6,134.765)"
             id="g4651"
             style="fill:#33d17a">
            <path
               style="fill:#33d17a;stroke:none"
               d="m 4.328125,-4.09375 c 0,-0.3125 -0.203125,-0.53125 -0.5,-0.53125 -0.234375,0 -0.515625,0.15625 -0.796875,0.4375 -0.421875,0.453125 -0.84375,1.0625 -1.015625,1.484375 l -0.140625,0.375 0.546875,-2.28125 -0.03125,-0.015625 -1.625,0.28125 v 0.171875 c 0.078125,0 0.171875,0 0.265625,0 0.234375,0 0.453125,0.03125 0.453125,0.25 0,0.140625 0,0.140625 -0.15625,0.859375 L 0.46875,0 H 1.265625 C 1.8125,-1.765625 1.96875,-2.1875 2.4375,-2.96875 c 0.359375,-0.625 0.671875,-0.984375 0.859375,-0.984375 0.078125,0 0.109375,0.046875 0.171875,0.15625 0.078125,0.171875 0.171875,0.234375 0.375,0.234375 0.3125,0 0.484375,-0.203125 0.484375,-0.53125 z m 0,0"
               id="id-9eca921a-650d-44b8-a947-51b621d5d73c" />
          </g>
        </g>
        <g
           style="fill:#33d17a;fill-opacity:1"
           id="id-0bd0f6ac-4203-4c20-9ae9-272cdafb4a1a">
          <g
             transform="translate(159.612,130.953)"
             id="g4655"
             style="fill:#33d17a">
            <path
               style="fill:#33d17a;stroke:none"
               d="m 3.734375,-2.234375 c -0.015625,-0.484375 -0.4375,-0.84375 -0.96875,-0.84375 -0.5625,0 -0.96875,0.296875 -1.515625,1.0625 L 2,-4.71875 1.953125,-4.765625 c -0.40625,0.0625 -0.6875,0.109375 -1.21875,0.171875 v 0.109375 c 0.46875,0.015625 0.515625,0.03125 0.53125,0.1875 0,0.0625 -0.03125,0.140625 -0.078125,0.296875 L 1.15625,-3.859375 1.140625,-3.8125 0.171875,-0.328125 0.1875,-0.296875 c 0,0.171875 0.609375,0.375 1.0625,0.375 1.21875,0 2.515625,-1.21875 2.484375,-2.3125 z M 3.046875,-2.125 c 0.015625,0.453125 -0.375,1.203125 -0.828125,1.625 -0.296875,0.265625 -0.625,0.421875 -0.96875,0.421875 -0.25,0 -0.375,-0.078125 -0.375,-0.25 -0.015625,-0.40625 0.203125,-1.078125 0.515625,-1.609375 0.328125,-0.53125 0.6875,-0.796875 1.0625,-0.796875 0.359375,0 0.578125,0.234375 0.59375,0.609375 z m 0,0"
               id="id-bfdc0bae-909a-4f3d-9495-891274b84632" />
          </g>
        </g>
        <g
           style="fill:#33d17a;fill-opacity:1"
           id="id-3e41b7ee-d2d5-41ab-9b75-6ab414d5c2fe">
          <g
             transform="translate(159.105,137.852)"
             id="g4659"
             style="fill:#33d17a">
            <path
               style="fill:#33d17a;stroke:none"
               d="M 3.296875,0 V -0.25 H 3.03125 c -0.703125,0 -0.703125,-0.09375 -0.703125,-0.328125 V -4.4375 c 0,-0.1875 0,-0.1875 -0.203125,-0.1875 -0.453125,0.4375 -1.078125,0.4375 -1.359375,0.4375 v 0.25 c 0.15625,0 0.625,0 1,-0.1875 v 3.546875 c 0,0.234375 0,0.328125 -0.6875,0.328125 H 0.8125 V 0 l 1.234375,-0.03125 z m 0,0"
               id="id-4e6580fb-35dd-4831-ab70-01f065ad58bc" />
          </g>
        </g>
      </g>
    </g>
    <g
       transform="matrix(0.529167,0,0,0.529167,72.684,143.733)"
       ns2:version="1.7.0"
       ns2:texconverter="xelatex"
       ns2:pdfconverter="inkscape"
       ns2:text="$r_2^b$"
       ns2:preamble="/home/xiaocy/.config/inkscape/extensions/textext/default_packages.tex"
       ns2:scale="1.5"
       ns2:alignment="middle center"
       ns2:stroke-to-path="0"
       ns2:inkscapeversion="1.1.2"
       ns2:jacobian_sqrt="0.529167"
       id="g4757"
       style="fill:#33d17a">
      <defs
         id="id-2a35f70f-78f5-4cf4-98c2-65d97fd69888">
        <g
           id="id-4ac0ce05-46f5-4f7d-9487-364e4fa6052e">
          <symbol
             overflow="visible"
             id="id-ca1e5130-58f6-4401-8677-55041ddd3c7f">
            <path
               style="stroke:none"
               d=""
               id="id-64028cba-5633-493f-9156-fddc8bc3e639" />
          </symbol>
          <symbol
             overflow="visible"
             id="id-95f39b1e-3726-4473-9304-68abfd8d3a9c">
            <path
               style="stroke:none"
               d="m 4.328125,-4.09375 c 0,-0.3125 -0.203125,-0.53125 -0.5,-0.53125 -0.234375,0 -0.515625,0.15625 -0.796875,0.4375 -0.421875,0.453125 -0.84375,1.0625 -1.015625,1.484375 l -0.140625,0.375 0.546875,-2.28125 -0.03125,-0.015625 -1.625,0.28125 v 0.171875 c 0.078125,0 0.171875,0 0.265625,0 0.234375,0 0.453125,0.03125 0.453125,0.25 0,0.140625 0,0.140625 -0.15625,0.859375 L 0.46875,0 H 1.265625 C 1.8125,-1.765625 1.96875,-2.1875 2.4375,-2.96875 c 0.359375,-0.625 0.671875,-0.984375 0.859375,-0.984375 0.078125,0 0.109375,0.046875 0.171875,0.15625 0.078125,0.171875 0.171875,0.234375 0.375,0.234375 0.3125,0 0.484375,-0.203125 0.484375,-0.53125 z m 0,0"
               id="id-b0c34fba-589f-489f-a1e7-44883b498869" />
          </symbol>
          <symbol
             overflow="visible"
             id="id-bec87ef4-2d17-418b-aeec-eb5c6c8a0917">
            <path
               style="stroke:none"
               d=""
               id="id-2f10bcb9-74cd-4132-a075-62415bfa6fd4" />
          </symbol>
          <symbol
             overflow="visible"
             id="id-ac5d5297-ed6a-471a-aa85-024474b47bbc">
            <path
               style="stroke:none"
               d="m 3.734375,-2.234375 c -0.015625,-0.484375 -0.4375,-0.84375 -0.96875,-0.84375 -0.5625,0 -0.96875,0.296875 -1.515625,1.0625 L 2,-4.71875 1.953125,-4.765625 c -0.40625,0.0625 -0.6875,0.109375 -1.21875,0.171875 v 0.109375 c 0.46875,0.015625 0.515625,0.03125 0.53125,0.1875 0,0.0625 -0.03125,0.140625 -0.078125,0.296875 L 1.15625,-3.859375 1.140625,-3.8125 0.171875,-0.328125 0.1875,-0.296875 c 0,0.171875 0.609375,0.375 1.0625,0.375 1.21875,0 2.515625,-1.21875 2.484375,-2.3125 z M 3.046875,-2.125 c 0.015625,0.453125 -0.375,1.203125 -0.828125,1.625 -0.296875,0.265625 -0.625,0.421875 -0.96875,0.421875 -0.25,0 -0.375,-0.078125 -0.375,-0.25 -0.015625,-0.40625 0.203125,-1.078125 0.515625,-1.609375 0.328125,-0.53125 0.6875,-0.796875 1.0625,-0.796875 0.359375,0 0.578125,0.234375 0.59375,0.609375 z m 0,0"
               id="id-0a0b5caa-9fec-4be2-9ea5-1d36db82e376" />
          </symbol>
          <symbol
             overflow="visible"
             id="id-a121a075-d7a2-4502-a4af-1ca74e984e36">
            <path
               style="stroke:none"
               d=""
               id="id-f3ffe693-2def-42f2-b20e-f7f1548cf44e" />
          </symbol>
          <symbol
             overflow="visible"
             id="id-39bd2797-e715-4277-890b-1209ade8fff0">
            <path
               style="stroke:none"
               d="M 3.515625,-1.265625 H 3.28125 c -0.015625,0.15625 -0.09375,0.5625 -0.1875,0.625 C 3.046875,-0.59375 2.515625,-0.59375 2.40625,-0.59375 H 1.125 c 0.734375,-0.640625 0.984375,-0.84375 1.390625,-1.171875 0.515625,-0.40625 1,-0.84375 1,-1.5 0,-0.84375 -0.734375,-1.359375 -1.625,-1.359375 -0.859375,0 -1.453125,0.609375 -1.453125,1.25 0,0.34375 0.296875,0.390625 0.375,0.390625 0.15625,0 0.359375,-0.125 0.359375,-0.375 0,-0.125 -0.046875,-0.375 -0.40625,-0.375 C 0.984375,-4.21875 1.453125,-4.375 1.78125,-4.375 c 0.703125,0 1.0625,0.546875 1.0625,1.109375 0,0.609375 -0.4375,1.078125 -0.65625,1.328125 L 0.515625,-0.265625 C 0.4375,-0.203125 0.4375,-0.1875 0.4375,0 h 2.875 z m 0,0"
               id="id-61ae7966-cc77-4eac-9993-2b969a5d9411" />
          </symbol>
        </g>
      </defs>
      <g
         id="id-760ff164-294c-43ac-bffc-c1dd18916d87"
         transform="translate(-155.069,-126.187)"
         style="fill:#33d17a">
        <g
           style="fill:#33d17a;fill-opacity:1"
           id="id-91e8adc3-bc8a-4f28-9fb0-3f6330e70a97">
          <g
             transform="translate(154.6,134.765)"
             id="g5235"
             style="fill:#33d17a">
            <path
               style="fill:#33d17a;stroke:none"
               d="m 4.328125,-4.09375 c 0,-0.3125 -0.203125,-0.53125 -0.5,-0.53125 -0.234375,0 -0.515625,0.15625 -0.796875,0.4375 -0.421875,0.453125 -0.84375,1.0625 -1.015625,1.484375 l -0.140625,0.375 0.546875,-2.28125 -0.03125,-0.015625 -1.625,0.28125 v 0.171875 c 0.078125,0 0.171875,0 0.265625,0 0.234375,0 0.453125,0.03125 0.453125,0.25 0,0.140625 0,0.140625 -0.15625,0.859375 L 0.46875,0 H 1.265625 C 1.8125,-1.765625 1.96875,-2.1875 2.4375,-2.96875 c 0.359375,-0.625 0.671875,-0.984375 0.859375,-0.984375 0.078125,0 0.109375,0.046875 0.171875,0.15625 0.078125,0.171875 0.171875,0.234375 0.375,0.234375 0.3125,0 0.484375,-0.203125 0.484375,-0.53125 z m 0,0"
               id="id-86ffa111-9798-4f55-a8a2-c82077fb195a" />
          </g>
        </g>
        <g
           style="fill:#33d17a;fill-opacity:1"
           id="id-6d70945a-fe34-4901-8730-9c9e59fa7270">
          <g
             transform="translate(159.612,130.953)"
             id="g5239"
             style="fill:#33d17a">
            <path
               style="fill:#33d17a;stroke:none"
               d="m 3.734375,-2.234375 c -0.015625,-0.484375 -0.4375,-0.84375 -0.96875,-0.84375 -0.5625,0 -0.96875,0.296875 -1.515625,1.0625 L 2,-4.71875 1.953125,-4.765625 c -0.40625,0.0625 -0.6875,0.109375 -1.21875,0.171875 v 0.109375 c 0.46875,0.015625 0.515625,0.03125 0.53125,0.1875 0,0.0625 -0.03125,0.140625 -0.078125,0.296875 L 1.15625,-3.859375 1.140625,-3.8125 0.171875,-0.328125 0.1875,-0.296875 c 0,0.171875 0.609375,0.375 1.0625,0.375 1.21875,0 2.515625,-1.21875 2.484375,-2.3125 z M 3.046875,-2.125 c 0.015625,0.453125 -0.375,1.203125 -0.828125,1.625 -0.296875,0.265625 -0.625,0.421875 -0.96875,0.421875 -0.25,0 -0.375,-0.078125 -0.375,-0.25 -0.015625,-0.40625 0.203125,-1.078125 0.515625,-1.609375 0.328125,-0.53125 0.6875,-0.796875 1.0625,-0.796875 0.359375,0 0.578125,0.234375 0.59375,0.609375 z m 0,0"
               id="id-5fed216a-05af-44d1-8dcf-c07cdb9eda8d" />
          </g>
        </g>
        <g
           style="fill:#33d17a;fill-opacity:1"
           id="id-b977b794-90f2-4313-93b1-b8bce9229087">
          <g
             transform="translate(159.105,137.852)"
             id="g5243"
             style="fill:#33d17a">
            <path
               style="fill:#33d17a;stroke:none"
               d="M 3.515625,-1.265625 H 3.28125 c -0.015625,0.15625 -0.09375,0.5625 -0.1875,0.625 C 3.046875,-0.59375 2.515625,-0.59375 2.40625,-0.59375 H 1.125 c 0.734375,-0.640625 0.984375,-0.84375 1.390625,-1.171875 0.515625,-0.40625 1,-0.84375 1,-1.5 0,-0.84375 -0.734375,-1.359375 -1.625,-1.359375 -0.859375,0 -1.453125,0.609375 -1.453125,1.25 0,0.34375 0.296875,0.390625 0.375,0.390625 0.15625,0 0.359375,-0.125 0.359375,-0.375 0,-0.125 -0.046875,-0.375 -0.40625,-0.375 C 0.984375,-4.21875 1.453125,-4.375 1.78125,-4.375 c 0.703125,0 1.0625,0.546875 1.0625,1.109375 0,0.609375 -0.4375,1.078125 -0.65625,1.328125 L 0.515625,-0.265625 C 0.4375,-0.203125 0.4375,-0.1875 0.4375,0 h 2.875 z m 0,0"
               id="id-0d651971-7914-493b-a50a-8702127b93ee" />
          </g>
        </g>
      </g>
    </g>
    <path
       style="font-variation-settings:normal;opacity:1;vector-effect:none;fill:#ed333b;fill-opacity:1;stroke:#ed333b;stroke-width:0.25;stroke-linecap:round;stroke-linejoin:round;stroke-miterlimit:4;stroke-dasharray:none;stroke-dashoffset:0;stroke-opacity:1;-inkscape-stroke:none;marker-end:url(#Arrow2Lend);stop-color:#000000;stop-opacity:1"
       d="M 83.470029,154.26809 106.40645,132.15021"
       id="path1732" />
  </g>
</svg>
