<?xml version="1.0" encoding="UTF-8" standalone="no"?>
<!-- Created with Inkscape (http://www.inkscape.org/) -->

<svg
   width="66.25489mm"
   height="69.489456mm"
   viewBox="0 0 66.254891 69.489456"
   version="1.1"
   id="svg5"
   inkscape:version="1.1.2 (0a00cf5339, 2022-02-04)"
   sodipodi:docname="rotating.svg"
   inkscape:export-filename="/home/xiaocy/SpringFiles/iChunyu.github.io/content/posts/vectorTransform/rotating.png"
   inkscape:export-xdpi="600"
   inkscape:export-ydpi="600"
   xmlns:inkscape="http://www.inkscape.org/namespaces/inkscape"
   xmlns:sodipodi="http://sodipodi.sourceforge.net/DTD/sodipodi-0.dtd"
   xmlns="http://www.w3.org/2000/svg"
   xmlns:svg="http://www.w3.org/2000/svg"
   xmlns:ns2="http://www.iki.fi/pav/software/textext/">
  <sodipodi:namedview
     id="namedview7"
     pagecolor="#ffffff"
     bordercolor="#cccccc"
     borderopacity="1"
     inkscape:pageshadow="0"
     inkscape:pageopacity="1"
     inkscape:pagecheckerboard="0"
     inkscape:document-units="mm"
     showgrid="false"
     inkscape:zoom="1.877186"
     inkscape:cx="-102.0144"
     inkscape:cy="148.36036"
     inkscape:current-layer="layer1" />
  <defs
     id="defs2">
    <marker
       style="overflow:visible"
       id="marker3949"
       refX="0"
       refY="0"
       orient="auto"
       inkscape:stockid="Arrow2Mstart"
       inkscape:isstock="true">
      <path
         transform="scale(0.6)"
         d="M 8.7185878,4.0337352 -2.2072895,0.01601326 8.7185884,-4.0017078 c -1.7454984,2.3720609 -1.7354408,5.6174519 -6e-7,8.035443 z"
         style="fill:context-stroke;fill-rule:evenodd;stroke:context-stroke;stroke-width:0.625;stroke-linejoin:round"
         id="path3947" />
    </marker>
    <marker
       style="overflow:visible"
       id="Arrow2Mstart"
       refX="0"
       refY="0"
       orient="auto"
       inkscape:stockid="Arrow2Mstart"
       inkscape:isstock="true">
      <path
         transform="scale(0.6)"
         d="M 8.7185878,4.0337352 -2.2072895,0.01601326 8.7185884,-4.0017078 c -1.7454984,2.3720609 -1.7354408,5.6174519 -6e-7,8.035443 z"
         style="fill:context-stroke;fill-rule:evenodd;stroke:context-stroke;stroke-width:0.625;stroke-linejoin:round"
         id="path967" />
    </marker>
    <marker
       style="overflow:visible"
       id="Arrow2Sstart"
       refX="0"
       refY="0"
       orient="auto"
       inkscape:stockid="Arrow2Sstart"
       inkscape:isstock="true">
      <path
         transform="matrix(0.3,0,0,0.3,-0.69,0)"
         d="M 8.7185878,4.0337352 -2.2072895,0.01601326 8.7185884,-4.0017078 c -1.7454984,2.3720609 -1.7354408,5.6174519 -6e-7,8.035443 z"
         style="fill:context-stroke;fill-rule:evenodd;stroke:context-stroke;stroke-width:0.625;stroke-linejoin:round"
         id="path973" />
    </marker>
    <marker
       style="overflow:visible"
       id="Arrow2Lstart"
       refX="0"
       refY="0"
       orient="auto"
       inkscape:stockid="Arrow2Lstart"
       inkscape:isstock="true">
      <path
         transform="matrix(1.1,0,0,1.1,1.1,0)"
         d="M 8.7185878,4.0337352 -2.2072895,0.01601326 8.7185884,-4.0017078 c -1.7454984,2.3720609 -1.7354408,5.6174519 -6e-7,8.035443 z"
         style="fill:context-stroke;fill-rule:evenodd;stroke:context-stroke;stroke-width:0.625;stroke-linejoin:round"
         id="path961" />
    </marker>
    <marker
       style="overflow:visible"
       id="Arrow2Lend"
       refX="0"
       refY="0"
       orient="auto"
       inkscape:stockid="Arrow2Lend"
       inkscape:isstock="true">
      <path
         transform="matrix(-1.1,0,0,-1.1,-1.1,0)"
         d="M 8.7185878,4.0337352 -2.2072895,0.01601326 8.7185884,-4.0017078 c -1.7454984,2.3720609 -1.7354408,5.6174519 -6e-7,8.035443 z"
         style="fill:context-stroke;fill-rule:evenodd;stroke:context-stroke;stroke-width:0.625;stroke-linejoin:round"
         id="path964" />
    </marker>
    <defs
       id="id-44aece69-36e7-4b95-a131-086cbcfd8aa9">
      <g
         id="id-1f822ee6-487e-4306-a306-802ba1a002a1">
        <symbol
           overflow="visible"
           id="id-54c28aae-ba47-4918-9e84-84b0c6ec1972">
          <path
             style="stroke:none;stroke-width:0"
             d=""
             id="id-9bfffa1c-fc19-4980-8636-9c9836f782a5" />
        </symbol>
        <symbol
           overflow="visible"
           id="id-abdc2c4d-54c8-4c17-bda6-d0c08582c03f">
          <path
             style="stroke:none;stroke-width:0"
             d="m 4.96875,-3.375 c 0,-0.734375 -0.515625,-1.25 -1.21875,-1.25 -0.734375,0 -1.28125,0.421875 -2.03125,1.578125 L 2.8125,-7.125 2.765625,-7.171875 c -0.53125,0.09375 -0.90625,0.15625 -1.609375,0.234375 V -6.75 c 0.625,0.015625 0.6875,0.046875 0.6875,0.28125 0,0.09375 -0.03125,0.203125 -0.09375,0.453125 L 1.6875,-5.8125 1.671875,-5.75 0.234375,-0.484375 V -0.4375 c 0,0.234375 0.8125,0.546875 1.40625,0.546875 1.578125,0 3.328125,-1.828125 3.328125,-3.484375 z m -0.890625,0.15625 c 0,0.703125 -0.53125,1.828125 -1.15625,2.46875 -0.390625,0.40625 -0.84375,0.625 -1.296875,0.625 -0.328125,0 -0.484375,-0.109375 -0.484375,-0.359375 0,-0.625 0.3125,-1.640625 0.765625,-2.421875 0.453125,-0.8125 0.921875,-1.203125 1.4375,-1.203125 0.453125,0 0.734375,0.34375 0.734375,0.890625 z m 0,0"
             id="id-973be27a-88fe-4f96-9824-2cf747887e1b" />
        </symbol>
        <symbol
           overflow="visible"
           id="id-5cba6161-4da3-424a-90c3-bd01bf1059bf">
          <path
             style="stroke:none;stroke-width:0"
             d=""
             id="id-2f8c4e9a-4321-439e-9fe4-d35cbfd8427a" />
        </symbol>
        <symbol
           overflow="visible"
           id="id-a358d659-1360-4b00-8999-3a328777830b">
          <path
             style="stroke:none;stroke-width:0"
             d="M 3.296875,0 V -0.25 H 3.03125 c -0.703125,0 -0.703125,-0.09375 -0.703125,-0.328125 V -4.4375 c 0,-0.1875 0,-0.1875 -0.203125,-0.1875 -0.453125,0.4375 -1.078125,0.4375 -1.359375,0.4375 v 0.25 c 0.15625,0 0.625,0 1,-0.1875 v 3.546875 c 0,0.234375 0,0.328125 -0.6875,0.328125 H 0.8125 V 0 l 1.234375,-0.03125 z m 0,0"
             id="id-1addb340-3f4f-43be-a5ca-f5398f0dad20" />
        </symbol>
      </g>
    </defs>
  </defs>
  <g
     inkscape:label="Layer 1"
     inkscape:groupmode="layer"
     id="layer1"
     transform="translate(-60.532035,-83.315563)">
    <path
       style="font-variation-settings:normal;opacity:1;fill:none;fill-opacity:1;stroke:#000000;stroke-width:0.25;stroke-linecap:round;stroke-linejoin:round;stroke-miterlimit:4;stroke-dasharray:none;stroke-dashoffset:0;stroke-opacity:1;marker-end:url(#Arrow2Lend);stop-color:#000000;stop-opacity:1"
       d="M 90.098943,121.8325 V 83.733489"
       id="path857" />
    <path
       style="font-variation-settings:normal;opacity:1;fill:none;fill-opacity:1;stroke:#000000;stroke-width:0.25;stroke-linecap:round;stroke-linejoin:round;stroke-miterlimit:4;stroke-dasharray:none;stroke-dashoffset:0;stroke-opacity:1;marker-end:url(#Arrow2Lend);stop-color:#000000;stop-opacity:1"
       d="M 90.072378,121.82057 H 126.369"
       id="path859" />
    <path
       style="font-variation-settings:normal;opacity:1;fill:none;fill-opacity:1;stroke:#000000;stroke-width:0.25;stroke-linecap:round;stroke-linejoin:round;stroke-miterlimit:4;stroke-dasharray:none;stroke-dashoffset:0;stroke-opacity:1;marker-end:url(#Arrow2Lend);stop-color:#000000;stop-opacity:1"
       d="M 90.099328,121.82152 67.873287,142.3606"
       id="path861" />
    <g
       transform="matrix(0.529167,0,0,0.529167,60.531837,137.67522)"
       ns2:version="1.7.0"
       ns2:texconverter="xelatex"
       ns2:pdfconverter="inkscape"
       ns2:text="$\\vec{b}_1$"
       ns2:preamble="/home/xiaocy/.config/inkscape/extensions/textext/default_packages.tex"
       ns2:scale="1.5"
       ns2:alignment="middle center"
       ns2:stroke-to-path="0"
       ns2:inkscapeversion="1.1.2"
       ns2:jacobian_sqrt="1.0"
       id="g1452">
      <defs
         id="id-97e5057e-e444-41a2-9cda-fe8716422030">
        <g
           id="id-3a392595-bc4a-4186-9baa-57561934202c">
          <symbol
             overflow="visible"
             id="id-d55eb5d2-ebe3-42cb-a7c9-61a1f56c186e">
            <path
               style="stroke:none;stroke-width:0"
               d=""
               id="id-56d1bba4-5ae4-4b83-a7c3-30d94ead2d6b" />
          </symbol>
          <symbol
             overflow="visible"
             id="id-8f9a64a4-89e4-47d1-9d3b-241d509ca9df">
            <path
               style="stroke:none;stroke-width:0"
               d="M 4.59375,-6.859375 3.15625,-7.96875 2.890625,-7.828125 3.59375,-7.15625 H 0.171875 v 0.578125 H 3.59375 L 2.890625,-5.90625 3.15625,-5.765625 Z m 0,0"
               id="id-0507c469-a6af-4588-a2b1-7b8fe840b791" />
          </symbol>
          <symbol
             overflow="visible"
             id="id-c12e7697-77b0-4c5d-8962-7236042b8752">
            <path
               style="stroke:none;stroke-width:0"
               d=""
               id="id-8f5eb6e4-0325-4828-8588-b22083012d00" />
          </symbol>
          <symbol
             overflow="visible"
             id="id-1365bb1c-d26b-4271-8538-94146b5c4c7a">
            <path
               style="stroke:none;stroke-width:0"
               d="m 4.96875,-3.375 c 0,-0.734375 -0.515625,-1.25 -1.21875,-1.25 -0.734375,0 -1.28125,0.421875 -2.03125,1.578125 L 2.8125,-7.125 2.765625,-7.171875 c -0.53125,0.09375 -0.90625,0.15625 -1.609375,0.234375 V -6.75 c 0.625,0.015625 0.6875,0.046875 0.6875,0.28125 0,0.09375 -0.03125,0.203125 -0.09375,0.453125 L 1.6875,-5.8125 1.671875,-5.75 0.234375,-0.484375 V -0.4375 c 0,0.234375 0.8125,0.546875 1.40625,0.546875 1.578125,0 3.328125,-1.828125 3.328125,-3.484375 z m -0.890625,0.15625 c 0,0.703125 -0.53125,1.828125 -1.15625,2.46875 -0.390625,0.40625 -0.84375,0.625 -1.296875,0.625 -0.328125,0 -0.484375,-0.109375 -0.484375,-0.359375 0,-0.625 0.3125,-1.640625 0.765625,-2.421875 0.453125,-0.8125 0.921875,-1.203125 1.4375,-1.203125 0.453125,0 0.734375,0.34375 0.734375,0.890625 z m 0,0"
               id="id-5f13d602-36b3-4cea-bd3a-3e754d133578" />
          </symbol>
          <symbol
             overflow="visible"
             id="id-814aac2c-0d52-49c7-ae12-f49c904055bf">
            <path
               style="stroke:none;stroke-width:0"
               d=""
               id="id-e214d405-a344-4101-8bac-3501a7e2da55" />
          </symbol>
          <symbol
             overflow="visible"
             id="id-dfc10213-93bc-43b7-be58-4f9960229f1b">
            <path
               style="stroke:none;stroke-width:0"
               d="M 3.296875,0 V -0.25 H 3.03125 c -0.703125,0 -0.703125,-0.09375 -0.703125,-0.328125 V -4.4375 c 0,-0.1875 0,-0.1875 -0.203125,-0.1875 -0.453125,0.4375 -1.078125,0.4375 -1.359375,0.4375 v 0.25 c 0.15625,0 0.625,0 1,-0.1875 v 3.546875 c 0,0.234375 0,0.328125 -0.6875,0.328125 H 0.8125 V 0 l 1.234375,-0.03125 z m 0,0"
               id="id-7b26f526-0235-41a1-b072-824de320e83f" />
          </symbol>
        </g>
      </defs>
      <g
         id="id-f0e2ea1c-5563-4015-a928-465b2e8b13ab"
         transform="translate(-155.254,-124.781)">
        <g
           style="fill:#000000;fill-opacity:1"
           id="id-55eb0e77-03a2-4dc8-a75c-a3aba18961cd">
          <g
             transform="translate(155.488,132.75)"
             id="g1440">
            <path
               style="stroke:none;stroke-width:0"
               d="M 4.59375,-6.859375 3.15625,-7.96875 2.890625,-7.828125 3.59375,-7.15625 H 0.171875 v 0.578125 H 3.59375 L 2.890625,-5.90625 3.15625,-5.765625 Z m 0,0"
               id="id-aec8a5fb-ac3b-4a9a-a3c0-f5b405218c1d" />
          </g>
        </g>
        <g
           style="fill:#000000;fill-opacity:1"
           id="id-6254a70b-ad72-4da6-b0d4-0bef26628db6">
          <g
             transform="translate(155.02,135.207)"
             id="g1444">
            <path
               style="stroke:none;stroke-width:0"
               d="m 4.96875,-3.375 c 0,-0.734375 -0.515625,-1.25 -1.21875,-1.25 -0.734375,0 -1.28125,0.421875 -2.03125,1.578125 L 2.8125,-7.125 2.765625,-7.171875 c -0.53125,0.09375 -0.90625,0.15625 -1.609375,0.234375 V -6.75 c 0.625,0.015625 0.6875,0.046875 0.6875,0.28125 0,0.09375 -0.03125,0.203125 -0.09375,0.453125 L 1.6875,-5.8125 1.671875,-5.75 0.234375,-0.484375 V -0.4375 c 0,0.234375 0.8125,0.546875 1.40625,0.546875 1.578125,0 3.328125,-1.828125 3.328125,-3.484375 z m -0.890625,0.15625 c 0,0.703125 -0.53125,1.828125 -1.15625,2.46875 -0.390625,0.40625 -0.84375,0.625 -1.296875,0.625 -0.328125,0 -0.484375,-0.109375 -0.484375,-0.359375 0,-0.625 0.3125,-1.640625 0.765625,-2.421875 0.453125,-0.8125 0.921875,-1.203125 1.4375,-1.203125 0.453125,0 0.734375,0.34375 0.734375,0.890625 z m 0,0"
               id="id-50ee16ca-5192-4a7c-b70c-918f3e1bc35c" />
          </g>
        </g>
        <g
           style="fill:#000000;fill-opacity:1"
           id="id-faec9d92-6a87-4750-a071-f9a3b19df7e4">
          <g
             transform="translate(160.659,136.782)"
             id="g1448">
            <path
               style="stroke:none;stroke-width:0"
               d="M 3.296875,0 V -0.25 H 3.03125 c -0.703125,0 -0.703125,-0.09375 -0.703125,-0.328125 V -4.4375 c 0,-0.1875 0,-0.1875 -0.203125,-0.1875 -0.453125,0.4375 -1.078125,0.4375 -1.359375,0.4375 v 0.25 c 0.15625,0 0.625,0 1,-0.1875 v 3.546875 c 0,0.234375 0,0.328125 -0.6875,0.328125 H 0.8125 V 0 l 1.234375,-0.03125 z m 0,0"
               id="id-07273d64-6cba-4fa2-8bd7-a7a913269023" />
          </g>
        </g>
      </g>
    </g>
    <g
       transform="matrix(0.529167,0,0,0.529167,119.9551,113.29686)"
       ns2:version="1.7.0"
       ns2:texconverter="xelatex"
       ns2:pdfconverter="inkscape"
       ns2:text="$\\vec{b}_2$"
       ns2:preamble="/home/xiaocy/.config/inkscape/extensions/textext/default_packages.tex"
       ns2:scale="1.5"
       ns2:alignment="middle center"
       ns2:stroke-to-path="0"
       ns2:inkscapeversion="1.1.2"
       ns2:jacobian_sqrt="1.0"
       id="g1628">
      <defs
         id="id-931d865a-bd60-48f7-9bac-41291424b5a6">
        <g
           id="id-acecccd0-dfb2-4a2d-a2df-f11248280c6a">
          <symbol
             overflow="visible"
             id="id-463da7cb-208b-460d-8b11-592f51923595">
            <path
               style="stroke:none"
               d=""
               id="id-fae216c0-b275-4f5c-bf77-abbad98a3836" />
          </symbol>
          <symbol
             overflow="visible"
             id="id-dc3529c1-d5f8-498a-9f3a-d1dc4d0058de">
            <path
               style="stroke:none"
               d="M 4.59375,-6.859375 3.15625,-7.96875 2.890625,-7.828125 3.59375,-7.15625 H 0.171875 v 0.578125 H 3.59375 L 2.890625,-5.90625 3.15625,-5.765625 Z m 0,0"
               id="id-fc2a37f7-8d2d-4aff-81a5-ead982910e77" />
          </symbol>
          <symbol
             overflow="visible"
             id="id-d1130a80-7879-4b76-8ddb-b86e3af2470c">
            <path
               style="stroke:none"
               d=""
               id="id-663d8fde-571a-454d-8fdd-1bb8d8822c45" />
          </symbol>
          <symbol
             overflow="visible"
             id="id-ee362deb-79c5-42af-b3d9-51305db2adb0">
            <path
               style="stroke:none"
               d="m 4.96875,-3.375 c 0,-0.734375 -0.515625,-1.25 -1.21875,-1.25 -0.734375,0 -1.28125,0.421875 -2.03125,1.578125 L 2.8125,-7.125 2.765625,-7.171875 c -0.53125,0.09375 -0.90625,0.15625 -1.609375,0.234375 V -6.75 c 0.625,0.015625 0.6875,0.046875 0.6875,0.28125 0,0.09375 -0.03125,0.203125 -0.09375,0.453125 L 1.6875,-5.8125 1.671875,-5.75 0.234375,-0.484375 V -0.4375 c 0,0.234375 0.8125,0.546875 1.40625,0.546875 1.578125,0 3.328125,-1.828125 3.328125,-3.484375 z m -0.890625,0.15625 c 0,0.703125 -0.53125,1.828125 -1.15625,2.46875 -0.390625,0.40625 -0.84375,0.625 -1.296875,0.625 -0.328125,0 -0.484375,-0.109375 -0.484375,-0.359375 0,-0.625 0.3125,-1.640625 0.765625,-2.421875 0.453125,-0.8125 0.921875,-1.203125 1.4375,-1.203125 0.453125,0 0.734375,0.34375 0.734375,0.890625 z m 0,0"
               id="id-e1bc5ab6-101a-4bae-ae6d-5c980458cdd2" />
          </symbol>
          <symbol
             overflow="visible"
             id="id-8f23e6e9-05ec-4497-9272-9170ed00e7d2">
            <path
               style="stroke:none"
               d=""
               id="id-739e280b-bf19-497b-8c14-dee7ba1e064c" />
          </symbol>
          <symbol
             overflow="visible"
             id="id-72a70773-32e4-42d6-b818-d419cf8b1309">
            <path
               style="stroke:none"
               d="M 3.515625,-1.265625 H 3.28125 c -0.015625,0.15625 -0.09375,0.5625 -0.1875,0.625 C 3.046875,-0.59375 2.515625,-0.59375 2.40625,-0.59375 H 1.125 c 0.734375,-0.640625 0.984375,-0.84375 1.390625,-1.171875 0.515625,-0.40625 1,-0.84375 1,-1.5 0,-0.84375 -0.734375,-1.359375 -1.625,-1.359375 -0.859375,0 -1.453125,0.609375 -1.453125,1.25 0,0.34375 0.296875,0.390625 0.375,0.390625 0.15625,0 0.359375,-0.125 0.359375,-0.375 0,-0.125 -0.046875,-0.375 -0.40625,-0.375 C 0.984375,-4.21875 1.453125,-4.375 1.78125,-4.375 c 0.703125,0 1.0625,0.546875 1.0625,1.109375 0,0.609375 -0.4375,1.078125 -0.65625,1.328125 L 0.515625,-0.265625 C 0.4375,-0.203125 0.4375,-0.1875 0.4375,0 h 2.875 z m 0,0"
               id="id-946b4034-3384-40a1-a1fe-099b6b2b82a2" />
          </symbol>
        </g>
      </defs>
      <g
         id="id-ad064c39-703e-4e8a-a1ff-f6f2ffd1dbb4"
         transform="translate(-155.254,-124.781)">
        <g
           style="fill:#000000;fill-opacity:1"
           id="id-78e82668-3f49-4c0b-b121-18d8f9cd1f50">
          <g
             transform="translate(155.488,132.75)"
             id="g1757">
            <path
               style="stroke:none"
               d="M 4.59375,-6.859375 3.15625,-7.96875 2.890625,-7.828125 3.59375,-7.15625 H 0.171875 v 0.578125 H 3.59375 L 2.890625,-5.90625 3.15625,-5.765625 Z m 0,0"
               id="id-85f428ec-f6de-47c0-801d-92e19d5b2cec" />
          </g>
        </g>
        <g
           style="fill:#000000;fill-opacity:1"
           id="id-183b9908-86c4-4e4e-ac4d-344bd7b052d5">
          <g
             transform="translate(155.02,135.207)"
             id="g1761">
            <path
               style="stroke:none"
               d="m 4.96875,-3.375 c 0,-0.734375 -0.515625,-1.25 -1.21875,-1.25 -0.734375,0 -1.28125,0.421875 -2.03125,1.578125 L 2.8125,-7.125 2.765625,-7.171875 c -0.53125,0.09375 -0.90625,0.15625 -1.609375,0.234375 V -6.75 c 0.625,0.015625 0.6875,0.046875 0.6875,0.28125 0,0.09375 -0.03125,0.203125 -0.09375,0.453125 L 1.6875,-5.8125 1.671875,-5.75 0.234375,-0.484375 V -0.4375 c 0,0.234375 0.8125,0.546875 1.40625,0.546875 1.578125,0 3.328125,-1.828125 3.328125,-3.484375 z m -0.890625,0.15625 c 0,0.703125 -0.53125,1.828125 -1.15625,2.46875 -0.390625,0.40625 -0.84375,0.625 -1.296875,0.625 -0.328125,0 -0.484375,-0.109375 -0.484375,-0.359375 0,-0.625 0.3125,-1.640625 0.765625,-2.421875 0.453125,-0.8125 0.921875,-1.203125 1.4375,-1.203125 0.453125,0 0.734375,0.34375 0.734375,0.890625 z m 0,0"
               id="id-63f1fc3e-93a2-4d6c-b1cc-94ad23449b54" />
          </g>
        </g>
        <g
           style="fill:#000000;fill-opacity:1"
           id="id-b7bf1110-8321-4db8-9de0-a0d5bc5d36fb">
          <g
             transform="translate(160.659,136.782)"
             id="g1765">
            <path
               style="stroke:none"
               d="M 3.515625,-1.265625 H 3.28125 c -0.015625,0.15625 -0.09375,0.5625 -0.1875,0.625 C 3.046875,-0.59375 2.515625,-0.59375 2.40625,-0.59375 H 1.125 c 0.734375,-0.640625 0.984375,-0.84375 1.390625,-1.171875 0.515625,-0.40625 1,-0.84375 1,-1.5 0,-0.84375 -0.734375,-1.359375 -1.625,-1.359375 -0.859375,0 -1.453125,0.609375 -1.453125,1.25 0,0.34375 0.296875,0.390625 0.375,0.390625 0.15625,0 0.359375,-0.125 0.359375,-0.375 0,-0.125 -0.046875,-0.375 -0.40625,-0.375 C 0.984375,-4.21875 1.453125,-4.375 1.78125,-4.375 c 0.703125,0 1.0625,0.546875 1.0625,1.109375 0,0.609375 -0.4375,1.078125 -0.65625,1.328125 L 0.515625,-0.265625 C 0.4375,-0.203125 0.4375,-0.1875 0.4375,0 h 2.875 z m 0,0"
               id="id-edf05aec-3097-42d1-9113-46fd343a4c1a" />
          </g>
        </g>
      </g>
    </g>
    <g
       transform="matrix(0.529167,0,0,0.529167,92.804597,85.715153)"
       ns2:version="1.7.0"
       ns2:texconverter="xelatex"
       ns2:pdfconverter="inkscape"
       ns2:text="$\\vec{b}_3$"
       ns2:preamble="/home/xiaocy/.config/inkscape/extensions/textext/default_packages.tex"
       ns2:scale="1.5"
       ns2:alignment="middle center"
       ns2:stroke-to-path="0"
       ns2:inkscapeversion="1.1.2"
       ns2:jacobian_sqrt="1.0"
       id="g1864">
      <defs
         id="id-722b266f-2357-43c9-b54f-83a2c7d07890">
        <g
           id="id-64d57c76-f40d-47ca-b5a2-641ea7db1cc7">
          <symbol
             overflow="visible"
             id="id-d7ad271f-44c7-4e69-a64b-ed34c0acf41a">
            <path
               style="stroke:none"
               d=""
               id="id-513018f6-959e-49a8-8c6d-ddd1f841ea29" />
          </symbol>
          <symbol
             overflow="visible"
             id="id-47f10c28-51e8-4b8f-a660-211537621c8b">
            <path
               style="stroke:none"
               d="M 4.59375,-6.859375 3.15625,-7.96875 2.890625,-7.828125 3.59375,-7.15625 H 0.171875 v 0.578125 H 3.59375 L 2.890625,-5.90625 3.15625,-5.765625 Z m 0,0"
               id="id-2a858bec-8496-4b42-b2f5-a42ca0290ef4" />
          </symbol>
          <symbol
             overflow="visible"
             id="id-4b37401a-7f3c-442f-92bc-b9ef2ab0cdec">
            <path
               style="stroke:none"
               d=""
               id="id-4b9a7aac-a3d3-4a9e-b1ea-70b3a9a6b28e" />
          </symbol>
          <symbol
             overflow="visible"
             id="id-0e57d004-7d55-40cd-bb25-0e61ecef98a0">
            <path
               style="stroke:none"
               d="m 4.96875,-3.375 c 0,-0.734375 -0.515625,-1.25 -1.21875,-1.25 -0.734375,0 -1.28125,0.421875 -2.03125,1.578125 L 2.8125,-7.125 2.765625,-7.171875 c -0.53125,0.09375 -0.90625,0.15625 -1.609375,0.234375 V -6.75 c 0.625,0.015625 0.6875,0.046875 0.6875,0.28125 0,0.09375 -0.03125,0.203125 -0.09375,0.453125 L 1.6875,-5.8125 1.671875,-5.75 0.234375,-0.484375 V -0.4375 c 0,0.234375 0.8125,0.546875 1.40625,0.546875 1.578125,0 3.328125,-1.828125 3.328125,-3.484375 z m -0.890625,0.15625 c 0,0.703125 -0.53125,1.828125 -1.15625,2.46875 -0.390625,0.40625 -0.84375,0.625 -1.296875,0.625 -0.328125,0 -0.484375,-0.109375 -0.484375,-0.359375 0,-0.625 0.3125,-1.640625 0.765625,-2.421875 0.453125,-0.8125 0.921875,-1.203125 1.4375,-1.203125 0.453125,0 0.734375,0.34375 0.734375,0.890625 z m 0,0"
               id="id-b4bd81ee-bd22-4386-bcf4-153291892255" />
          </symbol>
          <symbol
             overflow="visible"
             id="id-274031b0-ca38-468b-a830-cfb83d7eb7e8">
            <path
               style="stroke:none"
               d=""
               id="id-a662856d-3c30-49d8-a671-87fc458cf104" />
          </symbol>
          <symbol
             overflow="visible"
             id="id-1c608ac9-5352-44af-83b1-d455399dd785">
            <path
               style="stroke:none"
               d="m 3.578125,-1.203125 c 0,-0.546875 -0.4375,-1.09375 -1.203125,-1.25 0.71875,-0.265625 0.984375,-0.78125 0.984375,-1.21875 0,-0.546875 -0.625,-0.953125 -1.40625,-0.953125 -0.765625,0 -1.359375,0.375 -1.359375,0.9375 0,0.234375 0.15625,0.359375 0.359375,0.359375 0.21875,0 0.359375,-0.15625 0.359375,-0.34375 0,-0.203125 -0.140625,-0.359375 -0.359375,-0.375 0.25,-0.296875 0.71875,-0.375 0.984375,-0.375 0.3125,0 0.75,0.15625 0.75,0.75 0,0.296875 -0.09375,0.625 -0.28125,0.828125 -0.21875,0.265625 -0.421875,0.28125 -0.765625,0.3125 -0.171875,0.015625 -0.1875,0.015625 -0.21875,0.015625 0,0 -0.078125,0.015625 -0.078125,0.09375 0,0.09375 0.0625,0.09375 0.1875,0.09375 h 0.375 c 0.546875,0 0.9375,0.375 0.9375,1.125 0,0.859375 -0.515625,1.125 -0.90625,1.125 -0.28125,0 -0.90625,-0.078125 -1.1875,-0.5 0.328125,0 0.40625,-0.234375 0.40625,-0.390625 0,-0.21875 -0.171875,-0.375 -0.390625,-0.375 -0.1875,0 -0.390625,0.125 -0.390625,0.40625 0,0.65625 0.71875,1.078125 1.5625,1.078125 0.96875,0 1.640625,-0.65625 1.640625,-1.34375 z m 0,0"
               id="id-99267d66-acc8-4412-b4ba-16fd81c0c564" />
          </symbol>
        </g>
      </defs>
      <g
         id="id-10aaddbb-7cf9-4a71-962a-63089ff4c0da"
         transform="translate(-155.254,-124.781)">
        <g
           style="fill:#000000;fill-opacity:1"
           id="id-149c295e-e540-44fe-984a-13fc387fabdc">
          <g
             transform="translate(155.488,132.75)"
             id="g2043">
            <path
               style="stroke:none"
               d="M 4.59375,-6.859375 3.15625,-7.96875 2.890625,-7.828125 3.59375,-7.15625 H 0.171875 v 0.578125 H 3.59375 L 2.890625,-5.90625 3.15625,-5.765625 Z m 0,0"
               id="id-dd6afaae-088e-400d-a5ed-ada90f25ddcc" />
          </g>
        </g>
        <g
           style="fill:#000000;fill-opacity:1"
           id="id-fedc59ba-5447-4d54-942f-41f9fb59ca3c">
          <g
             transform="translate(155.02,135.207)"
             id="g2047">
            <path
               style="stroke:none"
               d="m 4.96875,-3.375 c 0,-0.734375 -0.515625,-1.25 -1.21875,-1.25 -0.734375,0 -1.28125,0.421875 -2.03125,1.578125 L 2.8125,-7.125 2.765625,-7.171875 c -0.53125,0.09375 -0.90625,0.15625 -1.609375,0.234375 V -6.75 c 0.625,0.015625 0.6875,0.046875 0.6875,0.28125 0,0.09375 -0.03125,0.203125 -0.09375,0.453125 L 1.6875,-5.8125 1.671875,-5.75 0.234375,-0.484375 V -0.4375 c 0,0.234375 0.8125,0.546875 1.40625,0.546875 1.578125,0 3.328125,-1.828125 3.328125,-3.484375 z m -0.890625,0.15625 c 0,0.703125 -0.53125,1.828125 -1.15625,2.46875 -0.390625,0.40625 -0.84375,0.625 -1.296875,0.625 -0.328125,0 -0.484375,-0.109375 -0.484375,-0.359375 0,-0.625 0.3125,-1.640625 0.765625,-2.421875 0.453125,-0.8125 0.921875,-1.203125 1.4375,-1.203125 0.453125,0 0.734375,0.34375 0.734375,0.890625 z m 0,0"
               id="id-5a6502e2-a93c-4e04-8dcd-3f9c8d7550fa" />
          </g>
        </g>
        <g
           style="fill:#000000;fill-opacity:1"
           id="id-3049a9b6-8b01-455c-9c94-c8b837b2ee81">
          <g
             transform="translate(160.659,136.782)"
             id="g2051">
            <path
               style="stroke:none"
               d="m 3.578125,-1.203125 c 0,-0.546875 -0.4375,-1.09375 -1.203125,-1.25 0.71875,-0.265625 0.984375,-0.78125 0.984375,-1.21875 0,-0.546875 -0.625,-0.953125 -1.40625,-0.953125 -0.765625,0 -1.359375,0.375 -1.359375,0.9375 0,0.234375 0.15625,0.359375 0.359375,0.359375 0.21875,0 0.359375,-0.15625 0.359375,-0.34375 0,-0.203125 -0.140625,-0.359375 -0.359375,-0.375 0.25,-0.296875 0.71875,-0.375 0.984375,-0.375 0.3125,0 0.75,0.15625 0.75,0.75 0,0.296875 -0.09375,0.625 -0.28125,0.828125 -0.21875,0.265625 -0.421875,0.28125 -0.765625,0.3125 -0.171875,0.015625 -0.1875,0.015625 -0.21875,0.015625 0,0 -0.078125,0.015625 -0.078125,0.09375 0,0.09375 0.0625,0.09375 0.1875,0.09375 h 0.375 c 0.546875,0 0.9375,0.375 0.9375,1.125 0,0.859375 -0.515625,1.125 -0.90625,1.125 -0.28125,0 -0.90625,-0.078125 -1.1875,-0.5 0.328125,0 0.40625,-0.234375 0.40625,-0.390625 0,-0.21875 -0.171875,-0.375 -0.390625,-0.375 -0.1875,0 -0.390625,0.125 -0.390625,0.40625 0,0.65625 0.71875,1.078125 1.5625,1.078125 0.96875,0 1.640625,-0.65625 1.640625,-1.34375 z m 0,0"
               id="id-bf1ca70b-ced7-489a-98dc-42fbd91108d4" />
          </g>
        </g>
      </g>
    </g>
    <path
       style="font-variation-settings:normal;opacity:1;fill:none;fill-opacity:1;fill-rule:evenodd;stroke:#000000;stroke-width:0.25;stroke-linecap:round;stroke-linejoin:round;stroke-miterlimit:4;stroke-dasharray:none;stroke-dashoffset:0;stroke-opacity:1;marker-start:url(#Arrow2Mstart);stop-color:#000000;stop-opacity:1"
       id="path2219"
       sodipodi:type="arc"
       sodipodi:cx="80.875916"
       sodipodi:cy="130.68867"
       sodipodi:rx="3.2831099"
       sodipodi:ry="1.9865555"
       sodipodi:start="3.4281197"
       sodipodi:end="1.5069575"
       sodipodi:arc-type="arc"
       sodipodi:open="true"
       d="m 77.726654,130.12723 a 3.2831099,1.9865555 0 0 1 3.703859,-1.39656 3.2831099,1.9865555 0 0 1 2.723911,2.06314 3.2831099,1.9865555 0 0 1 -3.069061,1.87737" />
    <path
       style="font-variation-settings:normal;opacity:1;fill:none;fill-opacity:1;fill-rule:evenodd;stroke:#000000;stroke-width:0.25;stroke-linecap:butt;stroke-linejoin:miter;stroke-miterlimit:4;stroke-dasharray:none;stroke-dashoffset:0;stroke-opacity:1;marker-start:url(#marker3949);stop-color:#000000;stop-opacity:1"
       id="path2727"
       sodipodi:type="arc"
       sodipodi:cx="90.097412"
       sodipodi:cy="100.09268"
       sodipodi:rx="3.1251633"
       sodipodi:ry="1.7698992"
       sodipodi:start="5.2415688"
       sodipodi:end="3.6051192"
       sodipodi:arc-type="arc"
       sodipodi:open="true"
       d="m 91.675074,98.564867 a 3.1251633,1.7698992 0 0 1 1.153923,2.387663 3.1251633,1.7698992 0 0 1 -4.189698,0.7056 3.1251633,1.7698992 0 0 1 -1.337287,-2.356779" />
    <path
       style="font-variation-settings:normal;opacity:1;fill:none;fill-opacity:1;fill-rule:evenodd;stroke:#000000;stroke-width:0.25;stroke-linecap:butt;stroke-linejoin:miter;stroke-miterlimit:4;stroke-dasharray:none;stroke-dashoffset:0;stroke-opacity:1;marker-start:url(#Arrow2Mstart);stop-color:#000000;stop-opacity:1"
       id="path4467"
       sodipodi:type="arc"
       sodipodi:cx="104.02868"
       sodipodi:cy="121.52569"
       sodipodi:rx="1.3408802"
       sodipodi:ry="3.1805887"
       sodipodi:start="0.52451621"
       sodipodi:end="5.6290757"
       sodipodi:arc-type="arc"
       sodipodi:open="true"
       d="m 105.1893,123.11851 a 1.3408802,3.1805887 0 0 1 -1.46613,1.50411 1.3408802,3.1805887 0 0 1 -1.03256,-2.89098 1.3408802,3.1805887 0 0 1 0.8664,-3.18327 1.3408802,3.1805887 0 0 1 1.53578,1.04208" />
    <g
       transform="matrix(0.529167,0,0,0.529167,74.629519,124.13725)"
       ns2:version="1.7.0"
       ns2:texconverter="xelatex"
       ns2:pdfconverter="inkscape"
       ns2:text="$\\omega_1$"
       ns2:preamble="/home/xiaocy/.config/inkscape/extensions/textext/default_packages.tex"
       ns2:scale="1.5"
       ns2:alignment="middle center"
       ns2:stroke-to-path="0"
       ns2:inkscapeversion="1.1.2"
       ns2:jacobian_sqrt="1.0"
       id="g5213">
      <defs
         id="id-063719c9-d7e0-4970-99fb-19b60fe663ed">
        <g
           id="id-10f52e23-94e2-4d0e-b7df-b683335afefe">
          <symbol
             overflow="visible"
             id="id-98cee902-722e-4747-a59f-60fe308a3ca7">
            <path
               style="stroke:none;stroke-width:0"
               d=""
               id="id-f2f50b4c-59ba-4599-9d76-5042847abad1" />
          </symbol>
          <symbol
             overflow="visible"
             id="id-0d6f3867-3e61-479f-a23a-dcfbd8852e31">
            <path
               style="stroke:none;stroke-width:0"
               d="M 7,-2.65625 C 7,-3.75 6.296875,-4.53125 6.203125,-4.625 H 5.859375 C 5.9375,-4.5 6.1875,-4 6.1875,-3.25 c 0,1.21875 -0.796875,2.9375 -1.84375,2.9375 -0.390625,0 -0.65625,-0.21875 -0.65625,-0.59375 0,-1.0625 0.5625,-2.046875 0.5625,-2.28125 C 4.25,-3.234375 4.234375,-3.25 4.1875,-3.25 h -0.5 c -0.328125,0 -0.078125,2.9375 -1.703125,2.9375 -0.75,0 -0.78125,-0.734375 -0.78125,-1.015625 0,-1.671875 1.21875,-3.078125 1.4375,-3.296875 H 2.28125 c 0,0 -2.046875,1.375 -2.046875,3.265625 0,0.640625 0.359375,1.46875 1.453125,1.46875 1.28125,0 1.65625,-1.0625 1.65625,-1.078125 h 0.015625 c 0,0.015625 -0.015625,0.09375 -0.015625,0.234375 0,0.328125 0.125,0.84375 1.0625,0.84375 C 5.734375,0.109375 7,-1.3125 7,-2.65625 Z m 0,0"
               id="id-a21f8fba-bde3-4616-9552-beee3986b635" />
          </symbol>
          <symbol
             overflow="visible"
             id="id-2cd3fc14-ad90-4937-8ac2-32ac984330a6">
            <path
               style="stroke:none;stroke-width:0"
               d=""
               id="id-7071d61e-da65-42ee-9a48-8bdac03e9cd5" />
          </symbol>
          <symbol
             overflow="visible"
             id="id-c8fd4c91-479d-4757-ba52-b62754c79142">
            <path
               style="stroke:none;stroke-width:0"
               d="M 3.296875,0 V -0.25 H 3.03125 c -0.703125,0 -0.703125,-0.09375 -0.703125,-0.328125 V -4.4375 c 0,-0.1875 0,-0.1875 -0.203125,-0.1875 -0.453125,0.4375 -1.078125,0.4375 -1.359375,0.4375 v 0.25 c 0.15625,0 0.625,0 1,-0.1875 v 3.546875 c 0,0.234375 0,0.328125 -0.6875,0.328125 H 0.8125 V 0 l 1.234375,-0.03125 z m 0,0"
               id="id-19a72cbe-5cbc-4f1b-b587-678e72dc898e" />
          </symbol>
        </g>
      </defs>
      <g
         id="id-686cae29-72cc-4c73-a49a-fe3c8c2d0b7d"
         transform="translate(-155.002,-130.14)">
        <g
           style="fill:#000000;fill-opacity:1"
           id="id-cecb1110-6944-4225-9218-86e6d034f70c">
          <g
             transform="translate(154.768,134.765)"
             id="g5205">
            <path
               style="stroke:none;stroke-width:0"
               d="M 7,-2.65625 C 7,-3.75 6.296875,-4.53125 6.203125,-4.625 H 5.859375 C 5.9375,-4.5 6.1875,-4 6.1875,-3.25 c 0,1.21875 -0.796875,2.9375 -1.84375,2.9375 -0.390625,0 -0.65625,-0.21875 -0.65625,-0.59375 0,-1.0625 0.5625,-2.046875 0.5625,-2.28125 C 4.25,-3.234375 4.234375,-3.25 4.1875,-3.25 h -0.5 c -0.328125,0 -0.078125,2.9375 -1.703125,2.9375 -0.75,0 -0.78125,-0.734375 -0.78125,-1.015625 0,-1.671875 1.21875,-3.078125 1.4375,-3.296875 H 2.28125 c 0,0 -2.046875,1.375 -2.046875,3.265625 0,0.640625 0.359375,1.46875 1.453125,1.46875 1.28125,0 1.65625,-1.0625 1.65625,-1.078125 h 0.015625 c 0,0.015625 -0.015625,0.09375 -0.015625,0.234375 0,0.328125 0.125,0.84375 1.0625,0.84375 C 5.734375,0.109375 7,-1.3125 7,-2.65625 Z m 0,0"
               id="id-a09f6c10-6903-450e-9d3a-719064b13508" />
          </g>
        </g>
        <g
           style="fill:#000000;fill-opacity:1"
           id="id-f859460b-339a-43a7-9cb0-6d8d554ba6b9">
          <g
             transform="translate(162.234,136.34)"
             id="g5209">
            <path
               style="stroke:none;stroke-width:0"
               d="M 3.296875,0 V -0.25 H 3.03125 c -0.703125,0 -0.703125,-0.09375 -0.703125,-0.328125 V -4.4375 c 0,-0.1875 0,-0.1875 -0.203125,-0.1875 -0.453125,0.4375 -1.078125,0.4375 -1.359375,0.4375 v 0.25 c 0.15625,0 0.625,0 1,-0.1875 v 3.546875 c 0,0.234375 0,0.328125 -0.6875,0.328125 H 0.8125 V 0 l 1.234375,-0.03125 z m 0,0"
               id="id-bb5afbaf-b4db-435d-87c6-4e8a37cbf938" />
          </g>
        </g>
      </g>
    </g>
    <g
       transform="matrix(0.529167,0,0,0.529167,94.91428,98.537082)"
       ns2:version="1.7.0"
       ns2:texconverter="xelatex"
       ns2:pdfconverter="inkscape"
       ns2:text="$\\omega_3$"
       ns2:preamble="/home/xiaocy/.config/inkscape/extensions/textext/default_packages.tex"
       ns2:scale="1.5"
       ns2:alignment="middle center"
       ns2:stroke-to-path="0"
       ns2:inkscapeversion="1.1.2"
       ns2:jacobian_sqrt="1.0"
       id="g5324">
      <defs
         id="id-f04f2eb8-3a06-49d8-a2ea-ea7d6f51daf6">
        <g
           id="id-23944853-ed7b-4791-af3e-6f2a0086e29e">
          <symbol
             overflow="visible"
             id="id-78114341-ba68-4c26-8168-2947394e1623">
            <path
               style="stroke:none"
               d=""
               id="id-d0a344bb-696a-4bff-9722-50418b226027" />
          </symbol>
          <symbol
             overflow="visible"
             id="id-d7cc5ec4-4601-4982-bba2-b432cd13516b">
            <path
               style="stroke:none"
               d="M 7,-2.65625 C 7,-3.75 6.296875,-4.53125 6.203125,-4.625 H 5.859375 C 5.9375,-4.5 6.1875,-4 6.1875,-3.25 c 0,1.21875 -0.796875,2.9375 -1.84375,2.9375 -0.390625,0 -0.65625,-0.21875 -0.65625,-0.59375 0,-1.0625 0.5625,-2.046875 0.5625,-2.28125 C 4.25,-3.234375 4.234375,-3.25 4.1875,-3.25 h -0.5 c -0.328125,0 -0.078125,2.9375 -1.703125,2.9375 -0.75,0 -0.78125,-0.734375 -0.78125,-1.015625 0,-1.671875 1.21875,-3.078125 1.4375,-3.296875 H 2.28125 c 0,0 -2.046875,1.375 -2.046875,3.265625 0,0.640625 0.359375,1.46875 1.453125,1.46875 1.28125,0 1.65625,-1.0625 1.65625,-1.078125 h 0.015625 c 0,0.015625 -0.015625,0.09375 -0.015625,0.234375 0,0.328125 0.125,0.84375 1.0625,0.84375 C 5.734375,0.109375 7,-1.3125 7,-2.65625 Z m 0,0"
               id="id-9c6d65de-9063-42c0-b47d-394dd9f87237" />
          </symbol>
          <symbol
             overflow="visible"
             id="id-9c5510af-d5ab-40a6-8051-9980d2425d6f">
            <path
               style="stroke:none"
               d=""
               id="id-98f05dc8-aba7-4217-931d-fda976481a74" />
          </symbol>
          <symbol
             overflow="visible"
             id="id-d23436ff-9f44-48a3-8d15-c8bcb3e3ff73">
            <path
               style="stroke:none"
               d="m 3.578125,-1.203125 c 0,-0.546875 -0.4375,-1.09375 -1.203125,-1.25 0.71875,-0.265625 0.984375,-0.78125 0.984375,-1.21875 0,-0.546875 -0.625,-0.953125 -1.40625,-0.953125 -0.765625,0 -1.359375,0.375 -1.359375,0.9375 0,0.234375 0.15625,0.359375 0.359375,0.359375 0.21875,0 0.359375,-0.15625 0.359375,-0.34375 0,-0.203125 -0.140625,-0.359375 -0.359375,-0.375 0.25,-0.296875 0.71875,-0.375 0.984375,-0.375 0.3125,0 0.75,0.15625 0.75,0.75 0,0.296875 -0.09375,0.625 -0.28125,0.828125 -0.21875,0.265625 -0.421875,0.28125 -0.765625,0.3125 -0.171875,0.015625 -0.1875,0.015625 -0.21875,0.015625 0,0 -0.078125,0.015625 -0.078125,0.09375 0,0.09375 0.0625,0.09375 0.1875,0.09375 h 0.375 c 0.546875,0 0.9375,0.375 0.9375,1.125 0,0.859375 -0.515625,1.125 -0.90625,1.125 -0.28125,0 -0.90625,-0.078125 -1.1875,-0.5 0.328125,0 0.40625,-0.234375 0.40625,-0.390625 0,-0.21875 -0.171875,-0.375 -0.390625,-0.375 -0.1875,0 -0.390625,0.125 -0.390625,0.40625 0,0.65625 0.71875,1.078125 1.5625,1.078125 0.96875,0 1.640625,-0.65625 1.640625,-1.34375 z m 0,0"
               id="id-d402b168-d710-4f41-8a98-20e5701897b6" />
          </symbol>
        </g>
      </defs>
      <g
         id="id-224aea01-83af-4af4-8925-25e3f2b1d630"
         transform="translate(-155.002,-130.14)">
        <g
           style="fill:#000000;fill-opacity:1"
           id="id-77259893-3027-4b54-9329-d6a4baa324b8">
          <g
             transform="translate(154.768,134.765)"
             id="g5636">
            <path
               style="stroke:none"
               d="M 7,-2.65625 C 7,-3.75 6.296875,-4.53125 6.203125,-4.625 H 5.859375 C 5.9375,-4.5 6.1875,-4 6.1875,-3.25 c 0,1.21875 -0.796875,2.9375 -1.84375,2.9375 -0.390625,0 -0.65625,-0.21875 -0.65625,-0.59375 0,-1.0625 0.5625,-2.046875 0.5625,-2.28125 C 4.25,-3.234375 4.234375,-3.25 4.1875,-3.25 h -0.5 c -0.328125,0 -0.078125,2.9375 -1.703125,2.9375 -0.75,0 -0.78125,-0.734375 -0.78125,-1.015625 0,-1.671875 1.21875,-3.078125 1.4375,-3.296875 H 2.28125 c 0,0 -2.046875,1.375 -2.046875,3.265625 0,0.640625 0.359375,1.46875 1.453125,1.46875 1.28125,0 1.65625,-1.0625 1.65625,-1.078125 h 0.015625 c 0,0.015625 -0.015625,0.09375 -0.015625,0.234375 0,0.328125 0.125,0.84375 1.0625,0.84375 C 5.734375,0.109375 7,-1.3125 7,-2.65625 Z m 0,0"
               id="id-52365eec-2b1a-4170-8036-69cd7699263e" />
          </g>
        </g>
        <g
           style="fill:#000000;fill-opacity:1"
           id="id-37a7ad19-dedc-4f00-bb34-7f7faab37944">
          <g
             transform="translate(162.234,136.34)"
             id="g5640">
            <path
               style="stroke:none"
               d="m 3.578125,-1.203125 c 0,-0.546875 -0.4375,-1.09375 -1.203125,-1.25 0.71875,-0.265625 0.984375,-0.78125 0.984375,-1.21875 0,-0.546875 -0.625,-0.953125 -1.40625,-0.953125 -0.765625,0 -1.359375,0.375 -1.359375,0.9375 0,0.234375 0.15625,0.359375 0.359375,0.359375 0.21875,0 0.359375,-0.15625 0.359375,-0.34375 0,-0.203125 -0.140625,-0.359375 -0.359375,-0.375 0.25,-0.296875 0.71875,-0.375 0.984375,-0.375 0.3125,0 0.75,0.15625 0.75,0.75 0,0.296875 -0.09375,0.625 -0.28125,0.828125 -0.21875,0.265625 -0.421875,0.28125 -0.765625,0.3125 -0.171875,0.015625 -0.1875,0.015625 -0.21875,0.015625 0,0 -0.078125,0.015625 -0.078125,0.09375 0,0.09375 0.0625,0.09375 0.1875,0.09375 h 0.375 c 0.546875,0 0.9375,0.375 0.9375,1.125 0,0.859375 -0.515625,1.125 -0.90625,1.125 -0.28125,0 -0.90625,-0.078125 -1.1875,-0.5 0.328125,0 0.40625,-0.234375 0.40625,-0.390625 0,-0.21875 -0.171875,-0.375 -0.390625,-0.375 -0.1875,0 -0.390625,0.125 -0.390625,0.40625 0,0.65625 0.71875,1.078125 1.5625,1.078125 0.96875,0 1.640625,-0.65625 1.640625,-1.34375 z m 0,0"
               id="id-37442362-9075-41d2-849d-3a8e964b9afd" />
          </g>
        </g>
      </g>
    </g>
    <g
       transform="matrix(0.529167,0,0,0.529167,105.30394,114.461)"
       ns2:version="1.7.0"
       ns2:texconverter="xelatex"
       ns2:pdfconverter="inkscape"
       ns2:text="$\\omega_2$"
       ns2:preamble="/home/xiaocy/.config/inkscape/extensions/textext/default_packages.tex"
       ns2:scale="1.5"
       ns2:alignment="middle center"
       ns2:stroke-to-path="0"
       ns2:inkscapeversion="1.1.2"
       ns2:jacobian_sqrt="1.0"
       id="g5288">
      <defs
         id="id-630cb089-dfb2-4c19-853d-905b9e4adbd7">
        <g
           id="id-2b92312e-8e73-4ee0-a1a3-8a9613b57286">
          <symbol
             overflow="visible"
             id="id-55c3b922-c51e-44a7-8cf5-3a0a0643cc1f">
            <path
               style="stroke:none"
               d=""
               id="id-a1dc6727-1ac2-4247-994f-7f220bb63030" />
          </symbol>
          <symbol
             overflow="visible"
             id="id-1d246600-9812-4599-b5a7-ee5e698d94b1">
            <path
               style="stroke:none"
               d="M 7,-2.65625 C 7,-3.75 6.296875,-4.53125 6.203125,-4.625 H 5.859375 C 5.9375,-4.5 6.1875,-4 6.1875,-3.25 c 0,1.21875 -0.796875,2.9375 -1.84375,2.9375 -0.390625,0 -0.65625,-0.21875 -0.65625,-0.59375 0,-1.0625 0.5625,-2.046875 0.5625,-2.28125 C 4.25,-3.234375 4.234375,-3.25 4.1875,-3.25 h -0.5 c -0.328125,0 -0.078125,2.9375 -1.703125,2.9375 -0.75,0 -0.78125,-0.734375 -0.78125,-1.015625 0,-1.671875 1.21875,-3.078125 1.4375,-3.296875 H 2.28125 c 0,0 -2.046875,1.375 -2.046875,3.265625 0,0.640625 0.359375,1.46875 1.453125,1.46875 1.28125,0 1.65625,-1.0625 1.65625,-1.078125 h 0.015625 c 0,0.015625 -0.015625,0.09375 -0.015625,0.234375 0,0.328125 0.125,0.84375 1.0625,0.84375 C 5.734375,0.109375 7,-1.3125 7,-2.65625 Z m 0,0"
               id="id-00fa3a63-125b-446c-9e2f-d69d0928c9e2" />
          </symbol>
          <symbol
             overflow="visible"
             id="id-bafe6e33-2d08-4540-944b-f7d1c0412c94">
            <path
               style="stroke:none"
               d=""
               id="id-eebd4312-2476-42a5-9bf5-386a639eafb8" />
          </symbol>
          <symbol
             overflow="visible"
             id="id-8339e976-0f9d-47b1-a92c-56d9a803bef9">
            <path
               style="stroke:none"
               d="M 3.515625,-1.265625 H 3.28125 c -0.015625,0.15625 -0.09375,0.5625 -0.1875,0.625 C 3.046875,-0.59375 2.515625,-0.59375 2.40625,-0.59375 H 1.125 c 0.734375,-0.640625 0.984375,-0.84375 1.390625,-1.171875 0.515625,-0.40625 1,-0.84375 1,-1.5 0,-0.84375 -0.734375,-1.359375 -1.625,-1.359375 -0.859375,0 -1.453125,0.609375 -1.453125,1.25 0,0.34375 0.296875,0.390625 0.375,0.390625 0.15625,0 0.359375,-0.125 0.359375,-0.375 0,-0.125 -0.046875,-0.375 -0.40625,-0.375 C 0.984375,-4.21875 1.453125,-4.375 1.78125,-4.375 c 0.703125,0 1.0625,0.546875 1.0625,1.109375 0,0.609375 -0.4375,1.078125 -0.65625,1.328125 L 0.515625,-0.265625 C 0.4375,-0.203125 0.4375,-0.1875 0.4375,0 h 2.875 z m 0,0"
               id="id-bc985449-73e0-4649-b370-f73326bd7a9c" />
          </symbol>
        </g>
      </defs>
      <g
         id="id-a3fb74bd-9cd3-4495-8bdd-3280e0b5a61b"
         transform="translate(-155.002,-130.14)">
        <g
           style="fill:#000000;fill-opacity:1"
           id="id-002ad0c7-eefc-4b56-975f-b79539c74e16">
          <g
             transform="translate(154.768,134.765)"
             id="g5994">
            <path
               style="stroke:none"
               d="M 7,-2.65625 C 7,-3.75 6.296875,-4.53125 6.203125,-4.625 H 5.859375 C 5.9375,-4.5 6.1875,-4 6.1875,-3.25 c 0,1.21875 -0.796875,2.9375 -1.84375,2.9375 -0.390625,0 -0.65625,-0.21875 -0.65625,-0.59375 0,-1.0625 0.5625,-2.046875 0.5625,-2.28125 C 4.25,-3.234375 4.234375,-3.25 4.1875,-3.25 h -0.5 c -0.328125,0 -0.078125,2.9375 -1.703125,2.9375 -0.75,0 -0.78125,-0.734375 -0.78125,-1.015625 0,-1.671875 1.21875,-3.078125 1.4375,-3.296875 H 2.28125 c 0,0 -2.046875,1.375 -2.046875,3.265625 0,0.640625 0.359375,1.46875 1.453125,1.46875 1.28125,0 1.65625,-1.0625 1.65625,-1.078125 h 0.015625 c 0,0.015625 -0.015625,0.09375 -0.015625,0.234375 0,0.328125 0.125,0.84375 1.0625,0.84375 C 5.734375,0.109375 7,-1.3125 7,-2.65625 Z m 0,0"
               id="id-91fe0388-1177-42a7-b2fa-ee30f1335860" />
          </g>
        </g>
        <g
           style="fill:#000000;fill-opacity:1"
           id="id-d91fc05e-95a2-4841-99a3-1658eb6ac037">
          <g
             transform="translate(162.234,136.34)"
             id="g5998">
            <path
               style="stroke:none"
               d="M 3.515625,-1.265625 H 3.28125 c -0.015625,0.15625 -0.09375,0.5625 -0.1875,0.625 C 3.046875,-0.59375 2.515625,-0.59375 2.40625,-0.59375 H 1.125 c 0.734375,-0.640625 0.984375,-0.84375 1.390625,-1.171875 0.515625,-0.40625 1,-0.84375 1,-1.5 0,-0.84375 -0.734375,-1.359375 -1.625,-1.359375 -0.859375,0 -1.453125,0.609375 -1.453125,1.25 0,0.34375 0.296875,0.390625 0.375,0.390625 0.15625,0 0.359375,-0.125 0.359375,-0.375 0,-0.125 -0.046875,-0.375 -0.40625,-0.375 C 0.984375,-4.21875 1.453125,-4.375 1.78125,-4.375 c 0.703125,0 1.0625,0.546875 1.0625,1.109375 0,0.609375 -0.4375,1.078125 -0.65625,1.328125 L 0.515625,-0.265625 C 0.4375,-0.203125 0.4375,-0.1875 0.4375,0 h 2.875 z m 0,0"
               id="id-d11c7fb9-807f-4172-aa4c-5b3338f05425" />
          </g>
        </g>
      </g>
    </g>
    <path
       style="font-variation-settings:normal;fill:none;fill-opacity:1;stroke:#000000;stroke-width:0.25;stroke-linecap:round;stroke-linejoin:round;stroke-miterlimit:4;stroke-dasharray:0.75, 0.75;stroke-dashoffset:0;stroke-opacity:1;stop-color:#000000"
       d="m 67.672972,142.57111 v 10.10891"
       id="path6963" />
    <path
       style="font-variation-settings:normal;opacity:1;fill:none;fill-opacity:1;stroke:#000000;stroke-width:0.25;stroke-linecap:round;stroke-linejoin:round;stroke-miterlimit:4;stroke-dasharray:0.75, 0.75;stroke-dashoffset:0;stroke-opacity:1;stop-color:#000000;stop-opacity:1"
       d="m 67.672971,152.68002 h 11.63983"
       id="path7303" />
    <path
       style="font-variation-settings:normal;opacity:1;fill:none;fill-opacity:1;stroke:#000000;stroke-width:0.25;stroke-linecap:round;stroke-linejoin:round;stroke-miterlimit:4;stroke-dasharray:0.75, 0.75;stroke-dashoffset:0;stroke-opacity:1;stop-color:#000000;stop-opacity:1"
       d="m 67.873287,142.3606 h 11.63983"
       id="path7783" />
    <path
       style="font-variation-settings:normal;fill:none;fill-opacity:1;stroke:#000000;stroke-width:0.25;stroke-linecap:round;stroke-linejoin:round;stroke-miterlimit:4;stroke-dasharray:0.75, 0.75;stroke-dashoffset:0;stroke-opacity:1;stop-color:#000000"
       d="m 79.312801,142.57111 v 10.10891"
       id="path7785" />
    <path
       style="font-variation-settings:normal;opacity:1;fill:none;fill-opacity:1;stroke:#000000;stroke-width:0.25;stroke-linecap:round;stroke-linejoin:round;stroke-miterlimit:4;stroke-dasharray:none;stroke-dashoffset:0;stroke-opacity:1;marker-end:url(#Arrow2Lend);stop-color:#000000;stop-opacity:1"
       d="m 67.675251,142.57313 11.363286,9.89452"
       id="path8197"
       sodipodi:nodetypes="cc" />
    <g
       transform="matrix(0.529167,0,0,0.529167,80.8433,145.30965)"
       ns2:version="1.7.0"
       ns2:texconverter="xelatex"
       ns2:pdfconverter="inkscape"
       ns2:text="$\\mathrm{d}\\vec{b}_1$"
       ns2:preamble="/home/xiaocy/.config/inkscape/extensions/textext/default_packages.tex"
       ns2:scale="1.5"
       ns2:alignment="middle center"
       ns2:stroke-to-path="0"
       ns2:inkscapeversion="1.1.2"
       ns2:jacobian_sqrt="0.529167"
       id="g1140">
      <defs
         id="id-85e6b13b-8e0b-4dd4-9a41-518b9a793d7d">
        <g
           id="id-6a32e78a-9938-44e6-a6c5-94ed0284e1aa">
          <symbol
             overflow="visible"
             id="id-70acda9e-d021-4539-bf61-379cafe7786a">
            <path
               style="stroke:none"
               d=""
               id="id-e2585972-c328-4a2b-bc09-bd443c1f805a" />
          </symbol>
          <symbol
             overflow="visible"
             id="id-c256427f-ddea-4ad0-968c-55194b3207a6">
            <path
               style="stroke:none"
               d="m 5.53125,0 v -0.328125 c -0.734375,0 -0.8125,-0.078125 -0.8125,-0.578125 v -6.375 l -1.515625,0.109375 v 0.328125 c 0.734375,0 0.8125,0.078125 0.8125,0.578125 v 2.28125 c -0.296875,-0.390625 -0.75,-0.65625 -1.3125,-0.65625 -1.25,0 -2.34375,1.03125 -2.34375,2.390625 0,1.328125 1.03125,2.359375 2.21875,2.359375 0.671875,0 1.15625,-0.34375 1.40625,-0.6875 v 0.6875 z M 3.984375,-1.234375 c 0,0.1875 0,0.203125 -0.109375,0.390625 -0.3125,0.5 -0.78125,0.734375 -1.234375,0.734375 -0.484375,0 -0.859375,-0.28125 -1.109375,-0.671875 C 1.265625,-1.21875 1.234375,-1.8125 1.234375,-2.25 c 0,-0.390625 0.015625,-1.015625 0.3125,-1.484375 0.234375,-0.328125 0.625,-0.671875 1.1875,-0.671875 0.375,0 0.8125,0.15625 1.140625,0.625 0.109375,0.1875 0.109375,0.203125 0.109375,0.390625 z m 0,0"
               id="id-546371e9-c5f4-4952-b9a7-abc93d7ec79a" />
          </symbol>
          <symbol
             overflow="visible"
             id="id-110559ef-5026-46c1-b0df-a462060ae5b8">
            <path
               style="stroke:none"
               d=""
               id="id-805c0d39-3219-4d13-96df-8d72e685711a" />
          </symbol>
          <symbol
             overflow="visible"
             id="id-75e832df-212d-4361-9f77-868611140c46">
            <path
               style="stroke:none"
               d="M 4.59375,-6.859375 3.15625,-7.96875 2.890625,-7.828125 3.59375,-7.15625 H 0.171875 v 0.578125 H 3.59375 L 2.890625,-5.90625 3.15625,-5.765625 Z m 0,0"
               id="id-fc7ed103-6d9e-4ff7-88ef-3df163e5d777" />
          </symbol>
          <symbol
             overflow="visible"
             id="id-7a12d716-90b0-408a-b442-463a1f1d72eb">
            <path
               style="stroke:none"
               d=""
               id="id-fc51a692-231e-4bdb-b447-05d50a8d75e4" />
          </symbol>
          <symbol
             overflow="visible"
             id="id-4945bb8f-a261-416e-8d13-554807a646b2">
            <path
               style="stroke:none"
               d="m 4.96875,-3.375 c 0,-0.734375 -0.515625,-1.25 -1.21875,-1.25 -0.734375,0 -1.28125,0.421875 -2.03125,1.578125 L 2.8125,-7.125 2.765625,-7.171875 c -0.53125,0.09375 -0.90625,0.15625 -1.609375,0.234375 V -6.75 c 0.625,0.015625 0.6875,0.046875 0.6875,0.28125 0,0.09375 -0.03125,0.203125 -0.09375,0.453125 L 1.6875,-5.8125 1.671875,-5.75 0.234375,-0.484375 V -0.4375 c 0,0.234375 0.8125,0.546875 1.40625,0.546875 1.578125,0 3.328125,-1.828125 3.328125,-3.484375 z m -0.890625,0.15625 c 0,0.703125 -0.53125,1.828125 -1.15625,2.46875 -0.390625,0.40625 -0.84375,0.625 -1.296875,0.625 -0.328125,0 -0.484375,-0.109375 -0.484375,-0.359375 0,-0.625 0.3125,-1.640625 0.765625,-2.421875 0.453125,-0.8125 0.921875,-1.203125 1.4375,-1.203125 0.453125,0 0.734375,0.34375 0.734375,0.890625 z m 0,0"
               id="id-9292d879-b2e1-4ecc-a023-6167840ddcac" />
          </symbol>
          <symbol
             overflow="visible"
             id="id-dbdfcef7-0e41-4703-8bcb-6d278b6de3a4">
            <path
               style="stroke:none"
               d=""
               id="id-86fc397d-5874-4f21-8cbf-3c7845f00ea2" />
          </symbol>
          <symbol
             overflow="visible"
             id="id-332fa263-a05a-4dd2-9277-41f04fd12c97">
            <path
               style="stroke:none"
               d="M 3.296875,0 V -0.25 H 3.03125 c -0.703125,0 -0.703125,-0.09375 -0.703125,-0.328125 V -4.4375 c 0,-0.1875 0,-0.1875 -0.203125,-0.1875 -0.453125,0.4375 -1.078125,0.4375 -1.359375,0.4375 v 0.25 c 0.15625,0 0.625,0 1,-0.1875 v 3.546875 c 0,0.234375 0,0.328125 -0.6875,0.328125 H 0.8125 V 0 l 1.234375,-0.03125 z m 0,0"
               id="id-e51a50ba-e1a3-4a5d-bed5-42d09e892d75" />
          </symbol>
        </g>
      </defs>
      <g
         id="id-ac6c3a3f-1f85-4021-be12-247ecf92bfa8"
         transform="translate(-155.127,-124.781)">
        <g
           style="fill:#000000;fill-opacity:1"
           id="id-e43e4e71-0d70-4679-ba09-5fe965dd8981">
          <g
             transform="translate(154.768,135.207)"
             id="g1512">
            <path
               style="stroke:none"
               d="m 5.53125,0 v -0.328125 c -0.734375,0 -0.8125,-0.078125 -0.8125,-0.578125 v -6.375 l -1.515625,0.109375 v 0.328125 c 0.734375,0 0.8125,0.078125 0.8125,0.578125 v 2.28125 c -0.296875,-0.390625 -0.75,-0.65625 -1.3125,-0.65625 -1.25,0 -2.34375,1.03125 -2.34375,2.390625 0,1.328125 1.03125,2.359375 2.21875,2.359375 0.671875,0 1.15625,-0.34375 1.40625,-0.6875 v 0.6875 z M 3.984375,-1.234375 c 0,0.1875 0,0.203125 -0.109375,0.390625 -0.3125,0.5 -0.78125,0.734375 -1.234375,0.734375 -0.484375,0 -0.859375,-0.28125 -1.109375,-0.671875 C 1.265625,-1.21875 1.234375,-1.8125 1.234375,-2.25 c 0,-0.390625 0.015625,-1.015625 0.3125,-1.484375 0.234375,-0.328125 0.625,-0.671875 1.1875,-0.671875 0.375,0 0.8125,0.15625 1.140625,0.625 0.109375,0.1875 0.109375,0.203125 0.109375,0.390625 z m 0,0"
               id="id-3f114415-03ed-4ca4-b8ed-7afadacb251e" />
          </g>
        </g>
        <g
           style="fill:#000000;fill-opacity:1"
           id="id-8c6085a2-0aaf-4486-bad1-e83fda51592a">
          <g
             transform="translate(161.321,132.75)"
             id="g1516">
            <path
               style="stroke:none"
               d="M 4.59375,-6.859375 3.15625,-7.96875 2.890625,-7.828125 3.59375,-7.15625 H 0.171875 v 0.578125 H 3.59375 L 2.890625,-5.90625 3.15625,-5.765625 Z m 0,0"
               id="id-acf72959-b7f9-4d42-a2b2-9c073132ff04" />
          </g>
        </g>
        <g
           style="fill:#000000;fill-opacity:1"
           id="id-3d98ee3e-9c77-4412-ad09-222e10424710">
          <g
             transform="translate(160.854,135.207)"
             id="g1520">
            <path
               style="stroke:none"
               d="m 4.96875,-3.375 c 0,-0.734375 -0.515625,-1.25 -1.21875,-1.25 -0.734375,0 -1.28125,0.421875 -2.03125,1.578125 L 2.8125,-7.125 2.765625,-7.171875 c -0.53125,0.09375 -0.90625,0.15625 -1.609375,0.234375 V -6.75 c 0.625,0.015625 0.6875,0.046875 0.6875,0.28125 0,0.09375 -0.03125,0.203125 -0.09375,0.453125 L 1.6875,-5.8125 1.671875,-5.75 0.234375,-0.484375 V -0.4375 c 0,0.234375 0.8125,0.546875 1.40625,0.546875 1.578125,0 3.328125,-1.828125 3.328125,-3.484375 z m -0.890625,0.15625 c 0,0.703125 -0.53125,1.828125 -1.15625,2.46875 -0.390625,0.40625 -0.84375,0.625 -1.296875,0.625 -0.328125,0 -0.484375,-0.109375 -0.484375,-0.359375 0,-0.625 0.3125,-1.640625 0.765625,-2.421875 0.453125,-0.8125 0.921875,-1.203125 1.4375,-1.203125 0.453125,0 0.734375,0.34375 0.734375,0.890625 z m 0,0"
               id="id-1faae3a6-5ed6-461e-baa1-5fc2d93f239c" />
          </g>
        </g>
        <g
           style="fill:#000000;fill-opacity:1"
           id="id-78eb636b-c525-4691-b666-9f5377cb6f9f">
          <g
             transform="translate(166.492,136.782)"
             id="g1524">
            <path
               style="stroke:none"
               d="M 3.296875,0 V -0.25 H 3.03125 c -0.703125,0 -0.703125,-0.09375 -0.703125,-0.328125 V -4.4375 c 0,-0.1875 0,-0.1875 -0.203125,-0.1875 -0.453125,0.4375 -1.078125,0.4375 -1.359375,0.4375 v 0.25 c 0.15625,0 0.625,0 1,-0.1875 v 3.546875 c 0,0.234375 0,0.328125 -0.6875,0.328125 H 0.8125 V 0 l 1.234375,-0.03125 z m 0,0"
               id="id-5171ef58-a491-4a00-b0da-27a691d5950b" />
          </g>
        </g>
      </g>
    </g>
  </g>
</svg>
