<?xml version="1.0" encoding="UTF-8" standalone="no"?>
<!-- Created with Inkscape (http://www.inkscape.org/) -->

<svg
   width="58.10545mm"
   height="66.519196mm"
   viewBox="0 0 58.105449 66.519195"
   version="1.1"
   id="svg5"
   inkscape:version="1.1.2 (0a00cf5339, 2022-02-04, custom)"
   sodipodi:docname="rotation.svg"
   xmlns:inkscape="http://www.inkscape.org/namespaces/inkscape"
   xmlns:sodipodi="http://sodipodi.sourceforge.net/DTD/sodipodi-0.dtd"
   xmlns="http://www.w3.org/2000/svg"
   xmlns:svg="http://www.w3.org/2000/svg"
   xmlns:ns2="http://www.iki.fi/pav/software/textext/">
  <sodipodi:namedview
     id="namedview7"
     pagecolor="#ffffff"
     bordercolor="#cccccc"
     borderopacity="1"
     inkscape:pageshadow="0"
     inkscape:pageopacity="1"
     inkscape:pagecheckerboard="0"
     inkscape:document-units="mm"
     showgrid="false"
     inkscape:snap-intersection-paths="true"
     inkscape:snap-center="true"
     inkscape:snap-smooth-nodes="true"
     inkscape:snap-midpoints="true"
     inkscape:object-paths="true"
     inkscape:zoom="5.3094837"
     inkscape:cx="115.35962"
     inkscape:cy="74.301009"
     inkscape:current-layer="layer1" />
  <defs
     id="defs2">
    <marker
       style="overflow:visible"
       id="Arrow2Mend"
       refX="0"
       refY="0"
       orient="auto"
       inkscape:stockid="Arrow2Mend"
       inkscape:isstock="true">
      <path
         transform="scale(-0.6)"
         d="M 8.7185878,4.0337352 -2.2072895,0.01601326 8.7185884,-4.0017078 c -1.7454984,2.3720609 -1.7354408,5.6174519 -6e-7,8.035443 z"
         style="fill:context-stroke;fill-rule:evenodd;stroke:context-stroke;stroke-width:0.625;stroke-linejoin:round"
         id="path886" />
    </marker>
    <marker
       style="overflow:visible"
       id="Arrow2Mstart"
       refX="0"
       refY="0"
       orient="auto"
       inkscape:stockid="Arrow2Mstart"
       inkscape:isstock="true">
      <path
         transform="scale(0.6)"
         d="M 8.7185878,4.0337352 -2.2072895,0.01601326 8.7185884,-4.0017078 c -1.7454984,2.3720609 -1.7354408,5.6174519 -6e-7,8.035443 z"
         style="fill:context-stroke;fill-rule:evenodd;stroke:context-stroke;stroke-width:0.625;stroke-linejoin:round"
         id="path883" />
    </marker>
    <marker
       style="overflow:visible"
       id="marker3698"
       refX="0"
       refY="0"
       orient="auto"
       inkscape:stockid="Arrow2Lend"
       inkscape:isstock="true">
      <path
         transform="matrix(-1.1,0,0,-1.1,-1.1,0)"
         d="M 8.7185878,4.0337352 -2.2072895,0.01601326 8.7185884,-4.0017078 c -1.7454984,2.3720609 -1.7354408,5.6174519 -6e-7,8.035443 z"
         style="fill:context-stroke;fill-rule:evenodd;stroke:context-stroke;stroke-width:0.625;stroke-linejoin:round"
         id="path3696" />
    </marker>
    <marker
       style="overflow:visible"
       id="Arrow2Lend"
       refX="0"
       refY="0"
       orient="auto"
       inkscape:stockid="Arrow2Lend"
       inkscape:isstock="true">
      <path
         transform="matrix(-1.1,0,0,-1.1,-1.1,0)"
         d="M 8.7185878,4.0337352 -2.2072895,0.01601326 8.7185884,-4.0017078 c -1.7454984,2.3720609 -1.7354408,5.6174519 -6e-7,8.035443 z"
         style="fill:context-stroke;fill-rule:evenodd;stroke:context-stroke;stroke-width:0.625;stroke-linejoin:round"
         id="path880" />
    </marker>
  </defs>
  <g
     inkscape:label="Layer 1"
     inkscape:groupmode="layer"
     id="layer1"
     transform="translate(-78.820248,-94.60314)">
    <path
       style="font-variation-settings:normal;opacity:1;fill:none;fill-opacity:1;stroke:#000000;stroke-width:0.25;stroke-linecap:round;stroke-linejoin:round;stroke-miterlimit:4;stroke-dasharray:none;stroke-dashoffset:0;stroke-opacity:1;marker-end:url(#Arrow2Lend);stop-color:#000000;stop-opacity:1"
       d="M 100.97809,145.19846 V 95.021066"
       id="path857" />
    <ellipse
       style="font-variation-settings:normal;opacity:1;fill:none;fill-opacity:1;fill-rule:evenodd;stroke:#000000;stroke-width:0.25;stroke-linecap:butt;stroke-linejoin:miter;stroke-miterlimit:4;stroke-dasharray:1, 0.500001;stroke-dashoffset:0;stroke-opacity:1;stop-color:#000000;stop-opacity:1"
       id="path1435"
       cx="100.97864"
       cy="113.89708"
       rx="22.03339"
       ry="9.7042265" />
    <path
       style="font-variation-settings:normal;opacity:1;vector-effect:none;fill:none;fill-opacity:1;stroke:#000000;stroke-width:0.249999;stroke-linecap:round;stroke-linejoin:round;stroke-miterlimit:4;stroke-dasharray:none;stroke-dashoffset:0;stroke-opacity:1;-inkscape-stroke:none;marker-end:url(#Arrow2Lend);stop-color:#000000;stop-opacity:1"
       d="M 100.97861,145.18295 88.312691,122.01714"
       id="path1552" />
    <path
       style="font-variation-settings:normal;opacity:1;vector-effect:none;fill:none;fill-opacity:1;stroke:#000000;stroke-width:0.250001;stroke-linecap:round;stroke-linejoin:round;stroke-miterlimit:4;stroke-dasharray:none;stroke-dashoffset:0;stroke-opacity:1;-inkscape-stroke:none;marker-end:url(#Arrow2Lend);stop-color:#000000;stop-opacity:1"
       d="M 100.97675,145.18287 88.362294,152.7685"
       id="path1667" />
    <path
       style="font-variation-settings:normal;opacity:1;vector-effect:none;fill:none;fill-opacity:1;stroke:#000000;stroke-width:0.25;stroke-linecap:round;stroke-linejoin:round;stroke-miterlimit:4;stroke-dasharray:none;stroke-dashoffset:0;stroke-opacity:1;-inkscape-stroke:none;marker-end:url(#Arrow2Lend);stop-color:#000000;stop-opacity:1"
       d="m 100.97604,145.18271 h 21.60771"
       id="path1782" />
    <path
       style="font-variation-settings:normal;opacity:1;fill:none;fill-opacity:1;stroke:#000000;stroke-width:0.25;stroke-linecap:round;stroke-linejoin:round;stroke-miterlimit:4;stroke-dasharray:1.5, 0.5;stroke-dashoffset:0;stroke-opacity:1;stop-color:#000000;stop-opacity:1"
       d="M 109.86517,154.05094 V 122.77701"
       id="path2012" />
    <path
       style="font-variation-settings:normal;opacity:1;fill:none;fill-opacity:1;stroke:#000000;stroke-width:0.25;stroke-linecap:round;stroke-linejoin:round;stroke-miterlimit:4;stroke-dasharray:1.5, 0.5;stroke-dashoffset:0;stroke-opacity:1;stop-color:#000000;stop-opacity:1"
       d="M 88.131327,152.72944 V 121.78091"
       id="path2127" />
    <ellipse
       style="font-variation-settings:normal;opacity:1;fill:none;fill-opacity:1;fill-rule:evenodd;stroke:#000000;stroke-width:0.25;stroke-linecap:butt;stroke-linejoin:miter;stroke-miterlimit:4;stroke-dasharray:1, 0.500001;stroke-dashoffset:0;stroke-opacity:1;stop-color:#000000;stop-opacity:1"
       id="ellipse2209"
       cx="100.97864"
       cy="145.17101"
       rx="22.03339"
       ry="9.7042265" />
    <path
       style="font-variation-settings:normal;opacity:1;vector-effect:none;fill:none;fill-opacity:1;stroke:#000000;stroke-width:0.249999;stroke-linecap:round;stroke-linejoin:round;stroke-miterlimit:4;stroke-dasharray:none;stroke-dashoffset:0;stroke-opacity:1;-inkscape-stroke:none;marker-end:url(#Arrow2Lend);stop-color:#000000;stop-opacity:1"
       d="m 100.97864,145.1828 8.80934,-22.07641"
       id="path2211" />
    <path
       style="font-variation-settings:normal;opacity:1;vector-effect:none;fill:none;fill-opacity:1;stroke:#000000;stroke-width:0.250002;stroke-linecap:round;stroke-linejoin:round;stroke-miterlimit:4;stroke-dasharray:none;stroke-dashoffset:0;stroke-opacity:1;-inkscape-stroke:none;marker-end:url(#Arrow2Lend);stop-color:#000000;stop-opacity:1"
       d="m 100.982,145.18644 8.58127,8.53829"
       id="path2213" />
    <g
       transform="matrix(0.529167,0,0,0.529167,104.61114,95.070708)"
       ns2:version="1.7.0"
       ns2:texconverter="xelatex"
       ns2:pdfconverter="inkscape"
       ns2:text="$\\vec{v}$"
       ns2:preamble="/home/xiaocy/.config/inkscape/extensions/textext/default_packages.tex"
       ns2:scale="1.5"
       ns2:alignment="middle center"
       ns2:stroke-to-path="0"
       ns2:inkscapeversion="1.1.2"
       ns2:jacobian_sqrt="0.529167"
       id="g2318">
      <defs
         id="id-e7269842-811e-46cb-a136-51656b3bc0a5">
        <g
           id="id-53eff678-b932-42a3-b235-17cda29c6848">
          <symbol
             overflow="visible"
             id="id-a2cc4632-a960-41e4-8bc0-412823022f7f">
            <path
               style="stroke:none;stroke-width:0"
               d=""
               id="id-0bb9faa8-bc7f-48f6-bdc3-3ba855e2d2ff" />
          </symbol>
          <symbol
             overflow="visible"
             id="id-2d7d8c84-3162-4e7f-9689-dc1a6ff512a4">
            <path
               style="stroke:none;stroke-width:0"
               d="M 4.59375,-6.859375 3.15625,-7.96875 2.890625,-7.828125 3.59375,-7.15625 H 0.171875 v 0.578125 H 3.59375 L 2.890625,-5.90625 3.15625,-5.765625 Z m 0,0"
               id="id-edb7885e-5f52-4c6d-8649-26ee7db07267" />
          </symbol>
          <symbol
             overflow="visible"
             id="id-6e1c7cad-1ebf-49b3-8bed-1b7d643a448b">
            <path
               style="stroke:none;stroke-width:0"
               d=""
               id="id-682fa12f-1ba5-42ef-bc53-4833321e58fa" />
          </symbol>
          <symbol
             overflow="visible"
             id="id-6107e117-c493-4cbb-9a5b-fea94eb57cb2">
            <path
               style="stroke:none;stroke-width:0"
               d="M 4.46875,-4.015625 C 4.46875,-4.34375 4.203125,-4.625 3.890625,-4.625 3.640625,-4.625 3.5,-4.5 3.5,-4.28125 c 0,0.171875 0.0625,0.296875 0.25,0.46875 0.140625,0.125 0.1875,0.21875 0.1875,0.3125 0,0.5 -0.6875,1.65625 -1.4375,2.421875 l -0.328125,0.34375 c -0.078125,-1.421875 -0.125,-2 -0.265625,-2.703125 -0.1875,-1.125 -0.21875,-1.1875 -0.3125,-1.1875 -0.046875,0 -0.125,0 -0.203125,0.03125 C 1.046875,-4.515625 0.6875,-4.4375 0.21875,-4.375 v 0.140625 c 0.125,0 0.21875,0 0.3125,0 0.390625,0 0.515625,0.1875 0.640625,0.96875 0.125,0.796875 0.25,2.328125 0.25,2.96875 0,0.203125 0,0.484375 0.09375,0.484375 0.265625,0 1.21875,-1.0625 2.3125,-2.609375 0.375,-0.515625 0.640625,-1.1875 0.640625,-1.59375 z m 0,0"
               id="id-2bd059fb-414d-470d-8115-fbf9aedeb278" />
          </symbol>
        </g>
      </defs>
      <g
         id="id-844be1a4-77f7-47f2-b8ea-3e7372132451"
         transform="translate(-155.071,-126.796)">
        <g
           style="fill:#000000;fill-opacity:1"
           id="id-f1ae7578-8ae9-4b12-9d1d-42bfab54b805">
          <g
             transform="translate(155.204,134.765)"
             id="g2310">
            <path
               style="stroke:none;stroke-width:0"
               d="M 4.59375,-6.859375 3.15625,-7.96875 2.890625,-7.828125 3.59375,-7.15625 H 0.171875 v 0.578125 H 3.59375 L 2.890625,-5.90625 3.15625,-5.765625 Z m 0,0"
               id="id-9a3a7357-9c07-4f62-a68c-0b4b3ef4cb33" />
          </g>
        </g>
        <g
           style="fill:#000000;fill-opacity:1"
           id="id-49a8e491-928e-452a-8461-97dd57c08eb3">
          <g
             transform="translate(154.852,134.765)"
             id="g2314">
            <path
               style="stroke:none;stroke-width:0"
               d="M 4.46875,-4.015625 C 4.46875,-4.34375 4.203125,-4.625 3.890625,-4.625 3.640625,-4.625 3.5,-4.5 3.5,-4.28125 c 0,0.171875 0.0625,0.296875 0.25,0.46875 0.140625,0.125 0.1875,0.21875 0.1875,0.3125 0,0.5 -0.6875,1.65625 -1.4375,2.421875 l -0.328125,0.34375 c -0.078125,-1.421875 -0.125,-2 -0.265625,-2.703125 -0.1875,-1.125 -0.21875,-1.1875 -0.3125,-1.1875 -0.046875,0 -0.125,0 -0.203125,0.03125 C 1.046875,-4.515625 0.6875,-4.4375 0.21875,-4.375 v 0.140625 c 0.125,0 0.21875,0 0.3125,0 0.390625,0 0.515625,0.1875 0.640625,0.96875 0.125,0.796875 0.25,2.328125 0.25,2.96875 0,0.203125 0,0.484375 0.09375,0.484375 0.265625,0 1.21875,-1.0625 2.3125,-2.609375 0.375,-0.515625 0.640625,-1.1875 0.640625,-1.59375 z m 0,0"
               id="id-c16ce30b-1843-4f91-9cb6-bcf4993e449d" />
          </g>
        </g>
      </g>
    </g>
    <g
       transform="matrix(0.529167,0,0,0.529167,82.549621,121.86568)"
       ns2:version="1.7.0"
       ns2:texconverter="xelatex"
       ns2:pdfconverter="inkscape"
       ns2:text="$\\vec{a}$"
       ns2:preamble="/home/xiaocy/.config/inkscape/extensions/textext/default_packages.tex"
       ns2:scale="1.5"
       ns2:alignment="middle center"
       ns2:stroke-to-path="0"
       ns2:inkscapeversion="1.1.2"
       ns2:jacobian_sqrt="0.529167"
       id="g2392">
      <defs
         id="id-1e6f625d-cd31-4125-a960-2855d8447ea3">
        <g
           id="id-127be707-309b-4a96-a87d-930d78017d35">
          <symbol
             overflow="visible"
             id="id-bb31e733-a703-4a46-b678-3ab12f5f6a98">
            <path
               style="stroke:none"
               d=""
               id="id-22a42e2a-1b4c-446c-a9c4-ff764806a553" />
          </symbol>
          <symbol
             overflow="visible"
             id="id-5efcd53e-6a43-4341-b047-cec6b38d7c63">
            <path
               style="stroke:none"
               d="M 4.59375,-6.859375 3.15625,-7.96875 2.890625,-7.828125 3.59375,-7.15625 H 0.171875 v 0.578125 H 3.59375 L 2.890625,-5.90625 3.15625,-5.765625 Z m 0,0"
               id="id-aa7be150-ad76-46ce-8e74-3d8f53c87439" />
          </symbol>
          <symbol
             overflow="visible"
             id="id-f907a519-8d2e-43cd-a006-5a5f5fb6fd38">
            <path
               style="stroke:none"
               d=""
               id="id-f82ae64f-347b-4767-af80-57fcbf587df3" />
          </symbol>
          <symbol
             overflow="visible"
             id="id-26c2c99a-40dd-43e5-a8a0-3812ff0e1aa9">
            <path
               style="stroke:none"
               d="M 5,-1.046875 4.875,-1.15625 4.578125,-0.859375 C 4.25,-0.53125 4.125,-0.4375 4.03125,-0.4375 c -0.078125,0 -0.140625,-0.0625 -0.140625,-0.125 0,-0.21875 0.4375,-2.015625 0.921875,-3.8125 C 4.84375,-4.484375 4.859375,-4.5 4.875,-4.59375 L 4.8125,-4.625 l -0.640625,0.0625 -0.03125,0.03125 -0.125,0.515625 C 3.9375,-4.40625 3.640625,-4.625 3.1875,-4.625 c -1.40625,0 -3.015625,1.90625 -3.015625,3.578125 0,0.734375 0.40625,1.15625 1.078125,1.15625 0.734375,0 1.1875,-0.34375 2.109375,-1.640625 -0.21875,0.859375 -0.234375,0.9375 -0.234375,1.203125 0,0.3125 0.125,0.4375 0.40625,0.4375 0.421875,0 0.671875,-0.203125 1.46875,-1.15625 z m -1.171875,-2.71875 c 0,0.890625 -0.53125,2.125 -1.25,2.90625 -0.25,0.28125 -0.609375,0.453125 -0.90625,0.453125 -0.375,0 -0.609375,-0.28125 -0.609375,-0.765625 0,-0.578125 0.359375,-1.59375 0.8125,-2.265625 0.40625,-0.609375 0.890625,-0.96875 1.3125,-0.96875 0.03125,0 0.03125,0 0.0625,0 0.34375,0.03125 0.578125,0.28125 0.578125,0.640625 z m 0,0"
               id="id-d762585f-1e47-48eb-8443-0be168a0feca" />
          </symbol>
        </g>
      </defs>
      <g
         id="id-e7a2fa8d-1ae6-4353-ab71-8eea5caeea4b"
         transform="translate(-155.077,-126.796)">
        <g
           style="fill:#000000;fill-opacity:1"
           id="id-1d498165-191f-4a8b-88e3-1c1df8b7e735">
          <g
             transform="translate(156.007,134.765)"
             id="g3079">
            <path
               style="stroke:none"
               d="M 4.59375,-6.859375 3.15625,-7.96875 2.890625,-7.828125 3.59375,-7.15625 H 0.171875 v 0.578125 H 3.59375 L 2.890625,-5.90625 3.15625,-5.765625 Z m 0,0"
               id="id-0c0b93fd-68f6-4709-99fb-4046c4353c1c" />
          </g>
        </g>
        <g
           style="fill:#000000;fill-opacity:1"
           id="id-cd200056-7c1f-489f-8e9b-20964101b299">
          <g
             transform="translate(154.905,134.765)"
             id="g3083">
            <path
               style="stroke:none"
               d="M 5,-1.046875 4.875,-1.15625 4.578125,-0.859375 C 4.25,-0.53125 4.125,-0.4375 4.03125,-0.4375 c -0.078125,0 -0.140625,-0.0625 -0.140625,-0.125 0,-0.21875 0.4375,-2.015625 0.921875,-3.8125 C 4.84375,-4.484375 4.859375,-4.5 4.875,-4.59375 L 4.8125,-4.625 l -0.640625,0.0625 -0.03125,0.03125 -0.125,0.515625 C 3.9375,-4.40625 3.640625,-4.625 3.1875,-4.625 c -1.40625,0 -3.015625,1.90625 -3.015625,3.578125 0,0.734375 0.40625,1.15625 1.078125,1.15625 0.734375,0 1.1875,-0.34375 2.109375,-1.640625 -0.21875,0.859375 -0.234375,0.9375 -0.234375,1.203125 0,0.3125 0.125,0.4375 0.40625,0.4375 0.421875,0 0.671875,-0.203125 1.46875,-1.15625 z m -1.171875,-2.71875 c 0,0.890625 -0.53125,2.125 -1.25,2.90625 -0.25,0.28125 -0.609375,0.453125 -0.90625,0.453125 -0.375,0 -0.609375,-0.28125 -0.609375,-0.765625 0,-0.578125 0.359375,-1.59375 0.8125,-2.265625 0.40625,-0.609375 0.890625,-0.96875 1.3125,-0.96875 0.03125,0 0.03125,0 0.0625,0 0.34375,0.03125 0.578125,0.28125 0.578125,0.640625 z m 0,0"
               id="id-a865972b-748c-4a49-bb41-882d18368fde" />
          </g>
        </g>
      </g>
    </g>
    <g
       transform="matrix(0.529167,0,0,0.529167,112.58155,123.33325)"
       ns2:version="1.7.0"
       ns2:texconverter="xelatex"
       ns2:pdfconverter="inkscape"
       ns2:text="$\\vec{b}$"
       ns2:preamble="/home/xiaocy/.config/inkscape/extensions/textext/default_packages.tex"
       ns2:scale="1.5"
       ns2:alignment="middle center"
       ns2:stroke-to-path="0"
       ns2:inkscapeversion="1.1.2"
       ns2:jacobian_sqrt="0.529167"
       id="g2428">
      <defs
         id="id-19c32ef5-5efa-4b54-9cb1-7e7712c66bfc">
        <g
           id="id-5368052a-47fc-48b7-975d-2e02c8b55bba">
          <symbol
             overflow="visible"
             id="id-4ecb84f4-d387-49e4-bcda-87efa036936e">
            <path
               style="stroke:none"
               d=""
               id="id-1139e70d-420c-4b7e-9736-bbd6ef4fd41f" />
          </symbol>
          <symbol
             overflow="visible"
             id="id-540a123f-99c3-4484-a35f-644ef359a04c">
            <path
               style="stroke:none"
               d="M 4.59375,-6.859375 3.15625,-7.96875 2.890625,-7.828125 3.59375,-7.15625 H 0.171875 v 0.578125 H 3.59375 L 2.890625,-5.90625 3.15625,-5.765625 Z m 0,0"
               id="id-ab480901-1914-41d8-a8be-9960844ee57a" />
          </symbol>
          <symbol
             overflow="visible"
             id="id-33ec405b-bf6a-40af-b1ea-55a02e2ab33a">
            <path
               style="stroke:none"
               d=""
               id="id-e5962871-0e3d-425b-8ad5-2d67a90bf143" />
          </symbol>
          <symbol
             overflow="visible"
             id="id-50bfce66-8d10-40c6-9e60-93a1541db407">
            <path
               style="stroke:none"
               d="m 4.96875,-3.375 c 0,-0.734375 -0.515625,-1.25 -1.21875,-1.25 -0.734375,0 -1.28125,0.421875 -2.03125,1.578125 L 2.8125,-7.125 2.765625,-7.171875 c -0.53125,0.09375 -0.90625,0.15625 -1.609375,0.234375 V -6.75 c 0.625,0.015625 0.6875,0.046875 0.6875,0.28125 0,0.09375 -0.03125,0.203125 -0.09375,0.453125 L 1.6875,-5.8125 1.671875,-5.75 0.234375,-0.484375 V -0.4375 c 0,0.234375 0.8125,0.546875 1.40625,0.546875 1.578125,0 3.328125,-1.828125 3.328125,-3.484375 z m -0.890625,0.15625 c 0,0.703125 -0.53125,1.828125 -1.15625,2.46875 -0.390625,0.40625 -0.84375,0.625 -1.296875,0.625 -0.328125,0 -0.484375,-0.109375 -0.484375,-0.359375 0,-0.625 0.3125,-1.640625 0.765625,-2.421875 0.453125,-0.8125 0.921875,-1.203125 1.4375,-1.203125 0.453125,0 0.734375,0.34375 0.734375,0.890625 z m 0,0"
               id="id-d4e24a04-ec0b-453d-8322-67fd2b0bc0a9" />
          </symbol>
        </g>
      </defs>
      <g
         id="id-dcfe3be5-ee41-4bcb-a811-fadd58ccd72f"
         transform="translate(-155.254,-124.781)">
        <g
           style="fill:#000000;fill-opacity:1"
           id="id-1ee71988-52fe-45ba-9439-1f93292e1c74">
          <g
             transform="translate(155.488,132.75)"
             id="g3261">
            <path
               style="stroke:none"
               d="M 4.59375,-6.859375 3.15625,-7.96875 2.890625,-7.828125 3.59375,-7.15625 H 0.171875 v 0.578125 H 3.59375 L 2.890625,-5.90625 3.15625,-5.765625 Z m 0,0"
               id="id-45f9af19-cc38-4407-a722-af2cb8c99ca6" />
          </g>
        </g>
        <g
           style="fill:#000000;fill-opacity:1"
           id="id-ca5de2f4-a40b-49dd-8c36-f61ef17b66f7">
          <g
             transform="translate(155.02,135.207)"
             id="g3265">
            <path
               style="stroke:none"
               d="m 4.96875,-3.375 c 0,-0.734375 -0.515625,-1.25 -1.21875,-1.25 -0.734375,0 -1.28125,0.421875 -2.03125,1.578125 L 2.8125,-7.125 2.765625,-7.171875 c -0.53125,0.09375 -0.90625,0.15625 -1.609375,0.234375 V -6.75 c 0.625,0.015625 0.6875,0.046875 0.6875,0.28125 0,0.09375 -0.03125,0.203125 -0.09375,0.453125 L 1.6875,-5.8125 1.671875,-5.75 0.234375,-0.484375 V -0.4375 c 0,0.234375 0.8125,0.546875 1.40625,0.546875 1.578125,0 3.328125,-1.828125 3.328125,-3.484375 z m -0.890625,0.15625 c 0,0.703125 -0.53125,1.828125 -1.15625,2.46875 -0.390625,0.40625 -0.84375,0.625 -1.296875,0.625 -0.328125,0 -0.484375,-0.109375 -0.484375,-0.359375 0,-0.625 0.3125,-1.640625 0.765625,-2.421875 0.453125,-0.8125 0.921875,-1.203125 1.4375,-1.203125 0.453125,0 0.734375,0.34375 0.734375,0.890625 z m 0,0"
               id="id-2292cfec-a0a4-40d7-b1af-20a719054770" />
          </g>
        </g>
      </g>
    </g>
    <path
       style="font-variation-settings:normal;opacity:1;fill:none;fill-opacity:1;stroke:#000000;stroke-width:0.250002;stroke-linecap:round;stroke-linejoin:round;stroke-miterlimit:4;stroke-dasharray:1.50001, 0.500003;stroke-dashoffset:0;stroke-opacity:1;stop-color:#000000;stop-opacity:1"
       d="m 100.97339,113.89351 -12.614458,7.58563"
       id="path3657" />
    <path
       style="font-variation-settings:normal;opacity:1;fill:none;fill-opacity:1;stroke:#000000;stroke-width:0.250002;stroke-linecap:round;stroke-linejoin:round;stroke-miterlimit:4;stroke-dasharray:1.50001, 0.500003;stroke-dashoffset:0;stroke-opacity:1;stop-color:#000000;stop-opacity:1"
       d="m 100.97864,113.89708 8.58127,8.53829"
       id="path3659" />
    <path
       style="font-variation-settings:normal;opacity:1;vector-effect:none;fill:none;fill-opacity:1;stroke:#000000;stroke-width:0.25;stroke-linecap:round;stroke-linejoin:round;stroke-miterlimit:4;stroke-dasharray:none;stroke-dashoffset:0;stroke-opacity:1;-inkscape-stroke:none;marker-end:url(#marker3698);stop-color:#000000;stop-opacity:1"
       d="m 100.97809,145.17497 5.3e-4,-30.78888"
       id="path3694" />
    <g
       transform="matrix(0.529167,0,0,0.529167,83.619387,154.53377)"
       ns2:version="1.7.0"
       ns2:texconverter="xelatex"
       ns2:pdfconverter="inkscape"
       ns2:text="$\\vec{a}_\\perp$"
       ns2:preamble="/home/xiaocy/.config/inkscape/extensions/textext/default_packages.tex"
       ns2:scale="1.5"
       ns2:alignment="middle center"
       ns2:stroke-to-path="0"
       ns2:inkscapeversion="1.1.2"
       ns2:jacobian_sqrt="0.529167"
       id="g3903">
      <defs
         id="id-955a7243-981b-4e63-83f9-6eefa7363f51">
        <g
           id="id-a67ff353-96b7-49fa-8bc8-6d5d0ed08b4f">
          <symbol
             overflow="visible"
             id="id-c1f1ca2b-69e0-46fd-bc54-14af45eff5f7">
            <path
               style="stroke:none"
               d=""
               id="id-6ec2a182-853f-41d1-994c-3090e92fbc20" />
          </symbol>
          <symbol
             overflow="visible"
             id="id-6e7cf16c-abeb-424b-ae14-995fc7e4f33f">
            <path
               style="stroke:none"
               d="M 4.59375,-6.859375 3.15625,-7.96875 2.890625,-7.828125 3.59375,-7.15625 H 0.171875 v 0.578125 H 3.59375 L 2.890625,-5.90625 3.15625,-5.765625 Z m 0,0"
               id="id-9df08078-dadf-4546-92a9-3bfb3ea112fa" />
          </symbol>
          <symbol
             overflow="visible"
             id="id-c24e58a3-3518-46a0-8cbb-10aedaf22d8f">
            <path
               style="stroke:none"
               d=""
               id="id-5b9a0091-d0fa-4410-b1c7-c933edd4c4ce" />
          </symbol>
          <symbol
             overflow="visible"
             id="id-e94fe791-8354-4e6c-a34f-f1cf474854c2">
            <path
               style="stroke:none"
               d="M 5,-1.046875 4.875,-1.15625 4.578125,-0.859375 C 4.25,-0.53125 4.125,-0.4375 4.03125,-0.4375 c -0.078125,0 -0.140625,-0.0625 -0.140625,-0.125 0,-0.21875 0.4375,-2.015625 0.921875,-3.8125 C 4.84375,-4.484375 4.859375,-4.5 4.875,-4.59375 L 4.8125,-4.625 l -0.640625,0.0625 -0.03125,0.03125 -0.125,0.515625 C 3.9375,-4.40625 3.640625,-4.625 3.1875,-4.625 c -1.40625,0 -3.015625,1.90625 -3.015625,3.578125 0,0.734375 0.40625,1.15625 1.078125,1.15625 0.734375,0 1.1875,-0.34375 2.109375,-1.640625 -0.21875,0.859375 -0.234375,0.9375 -0.234375,1.203125 0,0.3125 0.125,0.4375 0.40625,0.4375 0.421875,0 0.671875,-0.203125 1.46875,-1.15625 z m -1.171875,-2.71875 c 0,0.890625 -0.53125,2.125 -1.25,2.90625 -0.25,0.28125 -0.609375,0.453125 -0.90625,0.453125 -0.375,0 -0.609375,-0.28125 -0.609375,-0.765625 0,-0.578125 0.359375,-1.59375 0.8125,-2.265625 0.40625,-0.609375 0.890625,-0.96875 1.3125,-0.96875 0.03125,0 0.03125,0 0.0625,0 0.34375,0.03125 0.578125,0.28125 0.578125,0.640625 z m 0,0"
               id="id-573da33a-6bc3-48b5-8e4e-07a74ed4198c" />
          </symbol>
          <symbol
             overflow="visible"
             id="id-99bbf6b4-d55c-49b0-b44e-338fc69418b2">
            <path
               style="stroke:none"
               d=""
               id="id-c4ceaa73-7f24-4c6d-b427-ca4969dc6ec2" />
          </symbol>
          <symbol
             overflow="visible"
             id="id-1e03a9bc-929d-4411-9886-e95d82f4664a">
            <path
               style="stroke:none"
               d="M 4.53125,0 V -0.390625 H 2.671875 v -3.4375 H 2.28125 v 3.4375 H 0.4375 V 0 Z m 0,0"
               id="id-0fa6ec04-5912-4380-9966-c4c14bf2a4f6" />
          </symbol>
        </g>
      </defs>
      <g
         id="id-8bcd4d59-da2e-4cea-9af1-8cb553cc7ec2"
         transform="translate(-155.077,-126.796)">
        <g
           style="fill:#000000;fill-opacity:1"
           id="id-4f1e6c51-b102-4cab-a421-a99893c071c7">
          <g
             transform="translate(156.007,134.765)"
             id="g4166">
            <path
               style="stroke:none"
               d="M 4.59375,-6.859375 3.15625,-7.96875 2.890625,-7.828125 3.59375,-7.15625 H 0.171875 v 0.578125 H 3.59375 L 2.890625,-5.90625 3.15625,-5.765625 Z m 0,0"
               id="id-b3876112-271c-4041-8f82-4411522fd5c8" />
          </g>
        </g>
        <g
           style="fill:#000000;fill-opacity:1"
           id="id-e037b31e-9930-47fa-9fad-0b5948307661">
          <g
             transform="translate(154.905,134.765)"
             id="g4170">
            <path
               style="stroke:none"
               d="M 5,-1.046875 4.875,-1.15625 4.578125,-0.859375 C 4.25,-0.53125 4.125,-0.4375 4.03125,-0.4375 c -0.078125,0 -0.140625,-0.0625 -0.140625,-0.125 0,-0.21875 0.4375,-2.015625 0.921875,-3.8125 C 4.84375,-4.484375 4.859375,-4.5 4.875,-4.59375 L 4.8125,-4.625 l -0.640625,0.0625 -0.03125,0.03125 -0.125,0.515625 C 3.9375,-4.40625 3.640625,-4.625 3.1875,-4.625 c -1.40625,0 -3.015625,1.90625 -3.015625,3.578125 0,0.734375 0.40625,1.15625 1.078125,1.15625 0.734375,0 1.1875,-0.34375 2.109375,-1.640625 -0.21875,0.859375 -0.234375,0.9375 -0.234375,1.203125 0,0.3125 0.125,0.4375 0.40625,0.4375 0.421875,0 0.671875,-0.203125 1.46875,-1.15625 z m -1.171875,-2.71875 c 0,0.890625 -0.53125,2.125 -1.25,2.90625 -0.25,0.28125 -0.609375,0.453125 -0.90625,0.453125 -0.375,0 -0.609375,-0.28125 -0.609375,-0.765625 0,-0.578125 0.359375,-1.59375 0.8125,-2.265625 0.40625,-0.609375 0.890625,-0.96875 1.3125,-0.96875 0.03125,0 0.03125,0 0.0625,0 0.34375,0.03125 0.578125,0.28125 0.578125,0.640625 z m 0,0"
               id="id-72cd743f-10f5-4305-a21c-797011020647" />
          </g>
        </g>
        <g
           style="fill:#000000;fill-opacity:1"
           id="id-e8eb9b54-2230-4c39-b7c5-4bbbc9e4d4d7">
          <g
             transform="translate(160.543,136.34)"
             id="g4174">
            <path
               style="stroke:none"
               d="M 4.53125,0 V -0.390625 H 2.671875 v -3.4375 H 2.28125 v 3.4375 H 0.4375 V 0 Z m 0,0"
               id="id-2a084c0b-8059-4ffc-a803-4382ccc7dd4d" />
          </g>
        </g>
      </g>
    </g>
    <g
       transform="matrix(0.529167,0,0,0.529167,103.92324,106.97073)"
       ns2:version="1.7.0"
       ns2:texconverter="xelatex"
       ns2:pdfconverter="inkscape"
       ns2:text="$\\vec{b}_\\parallel$"
       ns2:preamble="/home/xiaocy/.config/inkscape/extensions/textext/default_packages.tex"
       ns2:scale="1.5"
       ns2:alignment="middle center"
       ns2:stroke-to-path="0"
       ns2:inkscapeversion="1.1.2"
       ns2:jacobian_sqrt="0.529167"
       id="g4620">
      <defs
         id="id-50fdbc6f-65db-4e25-a926-ec50ca50daa5">
        <g
           id="id-6898c2f3-a03f-4041-8b29-2c1db2ac2d40">
          <symbol
             overflow="visible"
             id="id-0bfe6d68-5226-4557-8363-c87633c0e02f">
            <path
               style="stroke:none"
               d=""
               id="id-0b98502e-98b2-4f94-a0fb-9f7f5e1129f9" />
          </symbol>
          <symbol
             overflow="visible"
             id="id-2c654c4d-b2bd-4708-800f-d5ff187fd5c9">
            <path
               style="stroke:none"
               d="M 4.59375,-6.859375 3.15625,-7.96875 2.890625,-7.828125 3.59375,-7.15625 H 0.171875 v 0.578125 H 3.59375 L 2.890625,-5.90625 3.15625,-5.765625 Z m 0,0"
               id="id-ed8ae143-6ece-48d8-b0d9-69c75d599940" />
          </symbol>
          <symbol
             overflow="visible"
             id="id-b3dc5f8a-8b5f-4834-8799-8e6cde408e9e">
            <path
               style="stroke:none"
               d=""
               id="id-a2679b9c-b93b-4a70-b788-e06e66d51444" />
          </symbol>
          <symbol
             overflow="visible"
             id="id-67cb1f00-8521-4039-84ea-60eb9d244ca4">
            <path
               style="stroke:none"
               d="m 4.96875,-3.375 c 0,-0.734375 -0.515625,-1.25 -1.21875,-1.25 -0.734375,0 -1.28125,0.421875 -2.03125,1.578125 L 2.8125,-7.125 2.765625,-7.171875 c -0.53125,0.09375 -0.90625,0.15625 -1.609375,0.234375 V -6.75 c 0.625,0.015625 0.6875,0.046875 0.6875,0.28125 0,0.09375 -0.03125,0.203125 -0.09375,0.453125 L 1.6875,-5.8125 1.671875,-5.75 0.234375,-0.484375 V -0.4375 c 0,0.234375 0.8125,0.546875 1.40625,0.546875 1.578125,0 3.328125,-1.828125 3.328125,-3.484375 z m -0.890625,0.15625 c 0,0.703125 -0.53125,1.828125 -1.15625,2.46875 -0.390625,0.40625 -0.84375,0.625 -1.296875,0.625 -0.328125,0 -0.484375,-0.109375 -0.484375,-0.359375 0,-0.625 0.3125,-1.640625 0.765625,-2.421875 0.453125,-0.8125 0.921875,-1.203125 1.4375,-1.203125 0.453125,0 0.734375,0.34375 0.734375,0.890625 z m 0,0"
               id="id-4c175923-c3d3-4eaf-ab91-4edb23b5ff82" />
          </symbol>
          <symbol
             overflow="visible"
             id="id-11870bd9-2e80-4d65-81c2-4da689c0a677">
            <path
               style="stroke:none"
               d=""
               id="id-ba74bb74-a525-4b2d-8b14-12137a590a50" />
          </symbol>
          <symbol
             overflow="visible"
             id="id-d1c5f635-aa12-4038-8ea3-676afd645884">
            <path
               style="stroke:none"
               d="M 2.28125,1.34375 V -4.921875 H 1.890625 V 1.34375 Z m -1.390625,0 V -4.921875 H 0.5 V 1.34375 Z m 0,0"
               id="id-49613e0e-6238-4df0-ac9c-6704d4994d2f" />
          </symbol>
        </g>
      </defs>
      <g
         id="id-77f02f44-0748-40df-b1a4-db946204e605"
         transform="translate(-155.254,-124.781)">
        <g
           style="fill:#000000;fill-opacity:1"
           id="id-e8cd4c6d-447d-412e-856d-bbbaf86b552f">
          <g
             transform="translate(155.488,132.75)"
             id="g4964">
            <path
               style="stroke:none"
               d="M 4.59375,-6.859375 3.15625,-7.96875 2.890625,-7.828125 3.59375,-7.15625 H 0.171875 v 0.578125 H 3.59375 L 2.890625,-5.90625 3.15625,-5.765625 Z m 0,0"
               id="id-13df4206-c871-4acd-a8df-840208c0b661" />
          </g>
        </g>
        <g
           style="fill:#000000;fill-opacity:1"
           id="id-7e218a50-fdfb-42b0-9fae-bb60732c8f0f">
          <g
             transform="translate(155.02,135.207)"
             id="g4968">
            <path
               style="stroke:none"
               d="m 4.96875,-3.375 c 0,-0.734375 -0.515625,-1.25 -1.21875,-1.25 -0.734375,0 -1.28125,0.421875 -2.03125,1.578125 L 2.8125,-7.125 2.765625,-7.171875 c -0.53125,0.09375 -0.90625,0.15625 -1.609375,0.234375 V -6.75 c 0.625,0.015625 0.6875,0.046875 0.6875,0.28125 0,0.09375 -0.03125,0.203125 -0.09375,0.453125 L 1.6875,-5.8125 1.671875,-5.75 0.234375,-0.484375 V -0.4375 c 0,0.234375 0.8125,0.546875 1.40625,0.546875 1.578125,0 3.328125,-1.828125 3.328125,-3.484375 z m -0.890625,0.15625 c 0,0.703125 -0.53125,1.828125 -1.15625,2.46875 -0.390625,0.40625 -0.84375,0.625 -1.296875,0.625 -0.328125,0 -0.484375,-0.109375 -0.484375,-0.359375 0,-0.625 0.3125,-1.640625 0.765625,-2.421875 0.453125,-0.8125 0.921875,-1.203125 1.4375,-1.203125 0.453125,0 0.734375,0.34375 0.734375,0.890625 z m 0,0"
               id="id-31ad734c-b6d8-4981-9eff-784073a2d206" />
          </g>
        </g>
        <g
           style="fill:#000000;fill-opacity:1"
           id="id-f73c22e2-5e06-41e9-bf06-a8bef80f2fda">
          <g
             transform="translate(161.426,136.782)"
             id="g4972">
            <path
               style="stroke:none"
               d="M 2.28125,1.34375 V -4.921875 H 1.890625 V 1.34375 Z m -1.390625,0 V -4.921875 H 0.5 V 1.34375 Z m 0,0"
               id="id-8dacb97c-7fb4-467a-a307-ec4d9cb3d2e4" />
          </g>
        </g>
      </g>
    </g>
    <g
       transform="matrix(0.529167,0,0,0.529167,93.211396,107.34133)"
       ns2:version="1.7.0"
       ns2:texconverter="xelatex"
       ns2:pdfconverter="inkscape"
       ns2:text="$\\vec{a}_\\parallel$"
       ns2:preamble="/home/xiaocy/.config/inkscape/extensions/textext/default_packages.tex"
       ns2:scale="1.5"
       ns2:alignment="middle center"
       ns2:stroke-to-path="0"
       ns2:inkscapeversion="1.1.2"
       ns2:jacobian_sqrt="0.529167"
       id="g4471">
      <defs
         id="id-b2cc3fbb-2247-4bd4-ac7f-8ef9e8eb4575">
        <g
           id="id-231a59f1-37ca-4d5c-939e-2541dc3c1bd6">
          <symbol
             overflow="visible"
             id="id-ed806903-6643-4914-b176-7d8aa683039a">
            <path
               style="stroke:none"
               d=""
               id="id-bda26714-cdc0-4660-bf76-d421c0697fa2" />
          </symbol>
          <symbol
             overflow="visible"
             id="id-c7d5d7b6-ef6c-419c-85a6-816cf7ab6363">
            <path
               style="stroke:none"
               d="M 4.59375,-6.859375 3.15625,-7.96875 2.890625,-7.828125 3.59375,-7.15625 H 0.171875 v 0.578125 H 3.59375 L 2.890625,-5.90625 3.15625,-5.765625 Z m 0,0"
               id="id-abae6f7d-508f-49c8-a97e-c0b8fcd563f2" />
          </symbol>
          <symbol
             overflow="visible"
             id="id-056111db-85eb-4199-834e-1f264c7a9490">
            <path
               style="stroke:none"
               d=""
               id="id-03eebdd6-e57b-403b-8de8-d57bec87d692" />
          </symbol>
          <symbol
             overflow="visible"
             id="id-e787edbe-a71c-4823-b5c5-191fb1bc83ce">
            <path
               style="stroke:none"
               d="M 5,-1.046875 4.875,-1.15625 4.578125,-0.859375 C 4.25,-0.53125 4.125,-0.4375 4.03125,-0.4375 c -0.078125,0 -0.140625,-0.0625 -0.140625,-0.125 0,-0.21875 0.4375,-2.015625 0.921875,-3.8125 C 4.84375,-4.484375 4.859375,-4.5 4.875,-4.59375 L 4.8125,-4.625 l -0.640625,0.0625 -0.03125,0.03125 -0.125,0.515625 C 3.9375,-4.40625 3.640625,-4.625 3.1875,-4.625 c -1.40625,0 -3.015625,1.90625 -3.015625,3.578125 0,0.734375 0.40625,1.15625 1.078125,1.15625 0.734375,0 1.1875,-0.34375 2.109375,-1.640625 -0.21875,0.859375 -0.234375,0.9375 -0.234375,1.203125 0,0.3125 0.125,0.4375 0.40625,0.4375 0.421875,0 0.671875,-0.203125 1.46875,-1.15625 z m -1.171875,-2.71875 c 0,0.890625 -0.53125,2.125 -1.25,2.90625 -0.25,0.28125 -0.609375,0.453125 -0.90625,0.453125 -0.375,0 -0.609375,-0.28125 -0.609375,-0.765625 0,-0.578125 0.359375,-1.59375 0.8125,-2.265625 0.40625,-0.609375 0.890625,-0.96875 1.3125,-0.96875 0.03125,0 0.03125,0 0.0625,0 0.34375,0.03125 0.578125,0.28125 0.578125,0.640625 z m 0,0"
               id="id-5f14d28d-0247-445e-941d-a7e7aa47d71f" />
          </symbol>
          <symbol
             overflow="visible"
             id="id-31375b5d-dd00-43a3-9ed2-8a8250036482">
            <path
               style="stroke:none"
               d=""
               id="id-da68d3d6-08b0-4269-9728-a5b57ffad7e5" />
          </symbol>
          <symbol
             overflow="visible"
             id="id-b9509f3a-894e-46c5-9351-356322709d8a">
            <path
               style="stroke:none"
               d="M 2.28125,1.34375 V -4.921875 H 1.890625 V 1.34375 Z m -1.390625,0 V -4.921875 H 0.5 V 1.34375 Z m 0,0"
               id="id-33a10998-5957-417d-a594-d752eb063053" />
          </symbol>
        </g>
      </defs>
      <g
         id="id-dd6961c2-d5cc-4c93-9ac7-38968c82ae3c"
         transform="translate(-155.077,-126.796)">
        <g
           style="fill:#000000;fill-opacity:1"
           id="id-8381333c-6df6-4be7-9020-57f6ebb89abd">
          <g
             transform="translate(156.007,134.765)"
             id="g5328">
            <path
               style="stroke:none"
               d="M 4.59375,-6.859375 3.15625,-7.96875 2.890625,-7.828125 3.59375,-7.15625 H 0.171875 v 0.578125 H 3.59375 L 2.890625,-5.90625 3.15625,-5.765625 Z m 0,0"
               id="id-e1ba7dee-bf2d-42ef-a892-a6ed5d7e5317" />
          </g>
        </g>
        <g
           style="fill:#000000;fill-opacity:1"
           id="id-402d79ba-a3bf-45d7-89d7-ba903a2a068b">
          <g
             transform="translate(154.905,134.765)"
             id="g5332">
            <path
               style="stroke:none"
               d="M 5,-1.046875 4.875,-1.15625 4.578125,-0.859375 C 4.25,-0.53125 4.125,-0.4375 4.03125,-0.4375 c -0.078125,0 -0.140625,-0.0625 -0.140625,-0.125 0,-0.21875 0.4375,-2.015625 0.921875,-3.8125 C 4.84375,-4.484375 4.859375,-4.5 4.875,-4.59375 L 4.8125,-4.625 l -0.640625,0.0625 -0.03125,0.03125 -0.125,0.515625 C 3.9375,-4.40625 3.640625,-4.625 3.1875,-4.625 c -1.40625,0 -3.015625,1.90625 -3.015625,3.578125 0,0.734375 0.40625,1.15625 1.078125,1.15625 0.734375,0 1.1875,-0.34375 2.109375,-1.640625 -0.21875,0.859375 -0.234375,0.9375 -0.234375,1.203125 0,0.3125 0.125,0.4375 0.40625,0.4375 0.421875,0 0.671875,-0.203125 1.46875,-1.15625 z m -1.171875,-2.71875 c 0,0.890625 -0.53125,2.125 -1.25,2.90625 -0.25,0.28125 -0.609375,0.453125 -0.90625,0.453125 -0.375,0 -0.609375,-0.28125 -0.609375,-0.765625 0,-0.578125 0.359375,-1.59375 0.8125,-2.265625 0.40625,-0.609375 0.890625,-0.96875 1.3125,-0.96875 0.03125,0 0.03125,0 0.0625,0 0.34375,0.03125 0.578125,0.28125 0.578125,0.640625 z m 0,0"
               id="id-ce43b02e-6a70-4b87-9852-f45203fcf21f" />
          </g>
        </g>
        <g
           style="fill:#000000;fill-opacity:1"
           id="id-b0e13758-1ca1-4a6b-b472-764bff4b91d9">
          <g
             transform="translate(161.31,136.34)"
             id="g5336">
            <path
               style="stroke:none"
               d="M 2.28125,1.34375 V -4.921875 H 1.890625 V 1.34375 Z m -1.390625,0 V -4.921875 H 0.5 V 1.34375 Z m 0,0"
               id="id-00e0fd15-4d3a-4cf2-b00e-8ddc43d52b16" />
          </g>
        </g>
      </g>
    </g>
    <g
       transform="matrix(0.529167,0,0,0.529167,125.236,143.38783)"
       ns2:version="1.7.0"
       ns2:texconverter="xelatex"
       ns2:pdfconverter="inkscape"
       ns2:text="$\\vec{v} \\times \\vec{a}$"
       ns2:preamble="/home/xiaocy/.config/inkscape/extensions/textext/default_packages.tex"
       ns2:scale="1.5"
       ns2:alignment="middle center"
       ns2:stroke-to-path="0"
       ns2:inkscapeversion="1.1.2"
       ns2:jacobian_sqrt="0.529167"
       id="g6210">
      <defs
         id="id-c427d0c1-be46-483a-bfde-da38791f7fc9">
        <g
           id="id-9832d8c1-97ef-4642-ae8d-c7387c60c798">
          <symbol
             overflow="visible"
             id="id-820ada4c-279f-4109-a31e-acdad5f3394b">
            <path
               style="stroke:none"
               d=""
               id="id-2b5ba089-ee90-4ca8-889b-df89d7b96bfa" />
          </symbol>
          <symbol
             overflow="visible"
             id="id-b01f48d8-0d55-488f-a9de-70ec96802691">
            <path
               style="stroke:none"
               d="M 4.59375,-6.859375 3.15625,-7.96875 2.890625,-7.828125 3.59375,-7.15625 H 0.171875 v 0.578125 H 3.59375 L 2.890625,-5.90625 3.15625,-5.765625 Z m 0,0"
               id="id-0a7f1821-04df-4f98-b004-6f57cea69168" />
          </symbol>
          <symbol
             overflow="visible"
             id="id-959e74c4-0a7b-4fbd-8fdd-76cbd4a97752">
            <path
               style="stroke:none"
               d="M 6.09375,-0.375 3.75,-2.703125 6.09375,-5.046875 5.671875,-5.453125 3.34375,-3.125 1.015625,-5.453125 0.59375,-5.046875 2.921875,-2.703125 0.59375,-0.375 1.015625,0.046875 3.34375,-2.28125 5.671875,0.046875 Z m 0,0"
               id="id-ae1523bf-e13b-4a17-8d28-ad2bd008d0ee" />
          </symbol>
          <symbol
             overflow="visible"
             id="id-9eb97a25-48ca-4131-99d3-0eaba6be880f">
            <path
               style="stroke:none"
               d=""
               id="id-557c034c-423e-41ed-b41a-1372a405b640" />
          </symbol>
          <symbol
             overflow="visible"
             id="id-e5adf212-09aa-4887-a2b6-f90b74c2da6f">
            <path
               style="stroke:none"
               d="M 4.46875,-4.015625 C 4.46875,-4.34375 4.203125,-4.625 3.890625,-4.625 3.640625,-4.625 3.5,-4.5 3.5,-4.28125 c 0,0.171875 0.0625,0.296875 0.25,0.46875 0.140625,0.125 0.1875,0.21875 0.1875,0.3125 0,0.5 -0.6875,1.65625 -1.4375,2.421875 l -0.328125,0.34375 c -0.078125,-1.421875 -0.125,-2 -0.265625,-2.703125 -0.1875,-1.125 -0.21875,-1.1875 -0.3125,-1.1875 -0.046875,0 -0.125,0 -0.203125,0.03125 C 1.046875,-4.515625 0.6875,-4.4375 0.21875,-4.375 v 0.140625 c 0.125,0 0.21875,0 0.3125,0 0.390625,0 0.515625,0.1875 0.640625,0.96875 0.125,0.796875 0.25,2.328125 0.25,2.96875 0,0.203125 0,0.484375 0.09375,0.484375 0.265625,0 1.21875,-1.0625 2.3125,-2.609375 0.375,-0.515625 0.640625,-1.1875 0.640625,-1.59375 z m 0,0"
               id="id-9cddc005-7d03-4de8-908b-c047e38daba8" />
          </symbol>
          <symbol
             overflow="visible"
             id="id-6f3747b5-50d9-44d1-8e29-10ed9158d71b">
            <path
               style="stroke:none"
               d="M 5,-1.046875 4.875,-1.15625 4.578125,-0.859375 C 4.25,-0.53125 4.125,-0.4375 4.03125,-0.4375 c -0.078125,0 -0.140625,-0.0625 -0.140625,-0.125 0,-0.21875 0.4375,-2.015625 0.921875,-3.8125 C 4.84375,-4.484375 4.859375,-4.5 4.875,-4.59375 L 4.8125,-4.625 l -0.640625,0.0625 -0.03125,0.03125 -0.125,0.515625 C 3.9375,-4.40625 3.640625,-4.625 3.1875,-4.625 c -1.40625,0 -3.015625,1.90625 -3.015625,3.578125 0,0.734375 0.40625,1.15625 1.078125,1.15625 0.734375,0 1.1875,-0.34375 2.109375,-1.640625 -0.21875,0.859375 -0.234375,0.9375 -0.234375,1.203125 0,0.3125 0.125,0.4375 0.40625,0.4375 0.421875,0 0.671875,-0.203125 1.46875,-1.15625 z m -1.171875,-2.71875 c 0,0.890625 -0.53125,2.125 -1.25,2.90625 -0.25,0.28125 -0.609375,0.453125 -0.90625,0.453125 -0.375,0 -0.609375,-0.28125 -0.609375,-0.765625 0,-0.578125 0.359375,-1.59375 0.8125,-2.265625 0.40625,-0.609375 0.890625,-0.96875 1.3125,-0.96875 0.03125,0 0.03125,0 0.0625,0 0.34375,0.03125 0.578125,0.28125 0.578125,0.640625 z m 0,0"
               id="id-cc299dd0-4818-43c0-a412-3ce13489f91e" />
          </symbol>
        </g>
      </defs>
      <g
         id="id-518fe9f2-eae2-4b72-98ba-9063c8b7aaae"
         transform="translate(-155.071,-126.796)">
        <g
           style="fill:#000000;fill-opacity:1"
           id="id-924b11ef-b2dd-4209-8116-a6b0529121ee">
          <g
             transform="translate(155.204,134.765)"
             id="g6543">
            <path
               style="stroke:none"
               d="M 4.59375,-6.859375 3.15625,-7.96875 2.890625,-7.828125 3.59375,-7.15625 H 0.171875 v 0.578125 H 3.59375 L 2.890625,-5.90625 3.15625,-5.765625 Z m 0,0"
               id="id-218b13bd-4b8c-485e-9127-528c67d3372b" />
          </g>
        </g>
        <g
           style="fill:#000000;fill-opacity:1"
           id="id-b5bf382a-03ee-4a34-9e27-37d22b9721bb">
          <g
             transform="translate(154.852,134.765)"
             id="g6547">
            <path
               style="stroke:none"
               d="M 4.46875,-4.015625 C 4.46875,-4.34375 4.203125,-4.625 3.890625,-4.625 3.640625,-4.625 3.5,-4.5 3.5,-4.28125 c 0,0.171875 0.0625,0.296875 0.25,0.46875 0.140625,0.125 0.1875,0.21875 0.1875,0.3125 0,0.5 -0.6875,1.65625 -1.4375,2.421875 l -0.328125,0.34375 c -0.078125,-1.421875 -0.125,-2 -0.265625,-2.703125 -0.1875,-1.125 -0.21875,-1.1875 -0.3125,-1.1875 -0.046875,0 -0.125,0 -0.203125,0.03125 C 1.046875,-4.515625 0.6875,-4.4375 0.21875,-4.375 v 0.140625 c 0.125,0 0.21875,0 0.3125,0 0.390625,0 0.515625,0.1875 0.640625,0.96875 0.125,0.796875 0.25,2.328125 0.25,2.96875 0,0.203125 0,0.484375 0.09375,0.484375 0.265625,0 1.21875,-1.0625 2.3125,-2.609375 0.375,-0.515625 0.640625,-1.1875 0.640625,-1.59375 z m 0,0"
               id="id-d6e74485-e754-438f-9ac7-39ba91a39830" />
          </g>
        </g>
        <g
           style="fill:#000000;fill-opacity:1"
           id="id-f366ac2d-2555-4b9f-8c1e-e555c839d95c">
          <g
             transform="translate(162.32,134.765)"
             id="g6551">
            <path
               style="stroke:none"
               d="M 6.09375,-0.375 3.75,-2.703125 6.09375,-5.046875 5.671875,-5.453125 3.34375,-3.125 1.015625,-5.453125 0.59375,-5.046875 2.921875,-2.703125 0.59375,-0.375 1.015625,0.046875 3.34375,-2.28125 5.671875,0.046875 Z m 0,0"
               id="id-c094f654-f23f-4569-88df-60728bd29332" />
          </g>
        </g>
        <g
           style="fill:#000000;fill-opacity:1"
           id="id-f6ebf166-2d89-4902-b6e6-f56643a217ed">
          <g
             transform="translate(172.568,134.765)"
             id="g6555">
            <path
               style="stroke:none"
               d="M 4.59375,-6.859375 3.15625,-7.96875 2.890625,-7.828125 3.59375,-7.15625 H 0.171875 v 0.578125 H 3.59375 L 2.890625,-5.90625 3.15625,-5.765625 Z m 0,0"
               id="id-2e25dbf6-f364-428c-bfc1-d08a8b1b2698" />
          </g>
        </g>
        <g
           style="fill:#000000;fill-opacity:1"
           id="id-54cc0a34-4a3f-45e2-958d-12ff953fa554">
          <g
             transform="translate(171.468,134.765)"
             id="g6559">
            <path
               style="stroke:none"
               d="M 5,-1.046875 4.875,-1.15625 4.578125,-0.859375 C 4.25,-0.53125 4.125,-0.4375 4.03125,-0.4375 c -0.078125,0 -0.140625,-0.0625 -0.140625,-0.125 0,-0.21875 0.4375,-2.015625 0.921875,-3.8125 C 4.84375,-4.484375 4.859375,-4.5 4.875,-4.59375 L 4.8125,-4.625 l -0.640625,0.0625 -0.03125,0.03125 -0.125,0.515625 C 3.9375,-4.40625 3.640625,-4.625 3.1875,-4.625 c -1.40625,0 -3.015625,1.90625 -3.015625,3.578125 0,0.734375 0.40625,1.15625 1.078125,1.15625 0.734375,0 1.1875,-0.34375 2.109375,-1.640625 -0.21875,0.859375 -0.234375,0.9375 -0.234375,1.203125 0,0.3125 0.125,0.4375 0.40625,0.4375 0.421875,0 0.671875,-0.203125 1.46875,-1.15625 z m -1.171875,-2.71875 c 0,0.890625 -0.53125,2.125 -1.25,2.90625 -0.25,0.28125 -0.609375,0.453125 -0.90625,0.453125 -0.375,0 -0.609375,-0.28125 -0.609375,-0.765625 0,-0.578125 0.359375,-1.59375 0.8125,-2.265625 0.40625,-0.609375 0.890625,-0.96875 1.3125,-0.96875 0.03125,0 0.03125,0 0.0625,0 0.34375,0.03125 0.578125,0.28125 0.578125,0.640625 z m 0,0"
               id="id-d176be78-77f2-4130-bb2f-129d132be2d8" />
          </g>
        </g>
      </g>
    </g>
    <path
       style="font-variation-settings:normal;opacity:1;fill:none;fill-opacity:1;fill-rule:evenodd;stroke:#000000;stroke-width:0.25;stroke-linecap:butt;stroke-linejoin:miter;stroke-miterlimit:4;stroke-dasharray:none;stroke-dashoffset:0;stroke-opacity:1;marker-start:url(#Arrow2Mstart);marker-end:url(#Arrow2Mend);stop-color:#000000;stop-opacity:1"
       id="path6818"
       sodipodi:type="arc"
       sodipodi:cx="100.97809"
       sodipodi:cy="145.17497"
       sodipodi:rx="7.2160382"
       sodipodi:ry="4.1887817"
       sodipodi:start="1.1168022"
       sodipodi:end="2.269019"
       sodipodi:open="true"
       sodipodi:arc-type="arc"
       d="m 104.14274,148.93944 a 7.2160382,4.1887817 0 0 1 -7.803534,-0.55592" />
    <g
       transform="matrix(0.529167,0,0,0.529167,98.879511,150.40323)"
       ns2:version="1.7.0"
       ns2:texconverter="xelatex"
       ns2:pdfconverter="inkscape"
       ns2:text="$\\varphi$"
       ns2:preamble="/home/xiaocy/.config/inkscape/extensions/textext/default_packages.tex"
       ns2:scale="1.5"
       ns2:alignment="middle center"
       ns2:stroke-to-path="0"
       ns2:inkscapeversion="1.1.2"
       ns2:jacobian_sqrt="0.529167"
       id="g7707">
      <defs
         id="id-31aca383-591e-4553-9630-77d5c27fb3ae">
        <g
           id="id-1770f8a0-95fc-464f-9bad-7981665dc28e">
          <symbol
             overflow="visible"
             id="id-b4fe8838-ce69-4568-978e-a69afd338950">
            <path
               style="stroke:none;stroke-width:0"
               d=""
               id="id-c1891fe7-b66c-4d8e-ad7c-79a5fa890c13" />
          </symbol>
          <symbol
             overflow="visible"
             id="id-250650a8-ba1b-4126-8cae-099e123f274c">
            <path
               style="stroke:none;stroke-width:0"
               d="m 5.71875,-3.203125 c 0,-0.640625 -0.171875,-1.421875 -1.1875,-1.421875 -1.0625,0 -1.4375,0.796875 -2.28125,3.875 -0.5,0 -1.328125,-0.140625 -1.328125,-1.1875 0,-1.703125 0.921875,-2.40625 0.921875,-2.53125 0,-0.015625 -0.015625,-0.03125 -0.0625,-0.03125 -0.109375,0 -1.546875,1.078125 -1.546875,2.9375 0,1.125 1.125,1.671875 1.78125,1.671875 C 1.65625,1.5 1.28125,2.046875 1.1875,2.171875 h 0.84375 l 0.515625,-2.0625 c 1.921875,0 3.171875,-1.59375 3.171875,-3.3125 z M 5.40625,-2.9375 c 0,0.75 -0.59375,2.1875 -2.609375,2.1875 L 3,-1.640625 C 3.484375,-3.84375 4.3125,-3.96875 4.609375,-3.96875 c 0.59375,0 0.796875,0.375 0.796875,1.03125 z m 0,0"
               id="id-a112f4c6-c050-4f01-828f-768fa3bce99b" />
          </symbol>
        </g>
      </defs>
      <g
         id="id-93ba9282-0fb7-42c3-b73a-44ecc2448bd8"
         transform="translate(-155.296,-130.14)">
        <g
           style="fill:#000000;fill-opacity:1"
           id="id-582dd9c2-cbe3-42ce-abe9-f57d79b65f46">
          <g
             transform="translate(155.062,134.765)"
             id="g7703">
            <path
               style="stroke:none;stroke-width:0"
               d="m 5.71875,-3.203125 c 0,-0.640625 -0.171875,-1.421875 -1.1875,-1.421875 -1.0625,0 -1.4375,0.796875 -2.28125,3.875 -0.5,0 -1.328125,-0.140625 -1.328125,-1.1875 0,-1.703125 0.921875,-2.40625 0.921875,-2.53125 0,-0.015625 -0.015625,-0.03125 -0.0625,-0.03125 -0.109375,0 -1.546875,1.078125 -1.546875,2.9375 0,1.125 1.125,1.671875 1.78125,1.671875 C 1.65625,1.5 1.28125,2.046875 1.1875,2.171875 h 0.84375 l 0.515625,-2.0625 c 1.921875,0 3.171875,-1.59375 3.171875,-3.3125 z M 5.40625,-2.9375 c 0,0.75 -0.59375,2.1875 -2.609375,2.1875 L 3,-1.640625 C 3.484375,-3.84375 4.3125,-3.96875 4.609375,-3.96875 c 0.59375,0 0.796875,0.375 0.796875,1.03125 z m 0,0"
               id="id-c5050aa2-2d1d-4ddc-89b9-20c3a74845a4" />
          </g>
        </g>
      </g>
    </g>
    <g
       transform="matrix(0.529167,0,0,0.529167,110.85244,154.7718)"
       ns2:version="1.7.0"
       ns2:texconverter="xelatex"
       ns2:pdfconverter="inkscape"
       ns2:text="$\\vec{b}_\\perp$"
       ns2:preamble="/home/xiaocy/.config/inkscape/extensions/textext/default_packages.tex"
       ns2:scale="1.5"
       ns2:alignment="middle center"
       ns2:stroke-to-path="0"
       ns2:inkscapeversion="1.1.2"
       ns2:jacobian_sqrt="0.529167"
       id="g8284">
      <defs
         id="id-76e7a4ca-cfbd-442b-83cc-51a986d3c410">
        <g
           id="id-3e117337-755f-491f-a540-7958251682c0">
          <symbol
             overflow="visible"
             id="id-1cbbbfe7-b817-49dd-8bbd-e4b84e62921b">
            <path
               style="stroke:none"
               d=""
               id="id-310e522d-ca27-4be9-9cd4-ad1c56fdf446" />
          </symbol>
          <symbol
             overflow="visible"
             id="id-e0f82281-b0bc-4eb5-8da1-4e655759c40f">
            <path
               style="stroke:none"
               d="M 4.59375,-6.859375 3.15625,-7.96875 2.890625,-7.828125 3.59375,-7.15625 H 0.171875 v 0.578125 H 3.59375 L 2.890625,-5.90625 3.15625,-5.765625 Z m 0,0"
               id="id-3e4bbd2f-f0e0-4945-9daa-ade005ef0d2c" />
          </symbol>
          <symbol
             overflow="visible"
             id="id-e4adcb2a-bcc4-451e-a73a-a5cf3bdbfc8a">
            <path
               style="stroke:none"
               d=""
               id="id-051bc550-8b24-4938-b76c-1fee99e0bb21" />
          </symbol>
          <symbol
             overflow="visible"
             id="id-58ac6324-7487-4d00-a80e-19be7c346070">
            <path
               style="stroke:none"
               d="m 4.96875,-3.375 c 0,-0.734375 -0.515625,-1.25 -1.21875,-1.25 -0.734375,0 -1.28125,0.421875 -2.03125,1.578125 L 2.8125,-7.125 2.765625,-7.171875 c -0.53125,0.09375 -0.90625,0.15625 -1.609375,0.234375 V -6.75 c 0.625,0.015625 0.6875,0.046875 0.6875,0.28125 0,0.09375 -0.03125,0.203125 -0.09375,0.453125 L 1.6875,-5.8125 1.671875,-5.75 0.234375,-0.484375 V -0.4375 c 0,0.234375 0.8125,0.546875 1.40625,0.546875 1.578125,0 3.328125,-1.828125 3.328125,-3.484375 z m -0.890625,0.15625 c 0,0.703125 -0.53125,1.828125 -1.15625,2.46875 -0.390625,0.40625 -0.84375,0.625 -1.296875,0.625 -0.328125,0 -0.484375,-0.109375 -0.484375,-0.359375 0,-0.625 0.3125,-1.640625 0.765625,-2.421875 0.453125,-0.8125 0.921875,-1.203125 1.4375,-1.203125 0.453125,0 0.734375,0.34375 0.734375,0.890625 z m 0,0"
               id="id-00bca29c-9d5f-4d15-a64c-28f47b710dca" />
          </symbol>
          <symbol
             overflow="visible"
             id="id-41f268db-3cb5-40e3-86a8-e23b132cf82f">
            <path
               style="stroke:none"
               d=""
               id="id-44405de2-9234-47d1-8b8f-d1bf8268ec05" />
          </symbol>
          <symbol
             overflow="visible"
             id="id-b01f5a5a-3910-41a8-acab-bcda1e26f20e">
            <path
               style="stroke:none"
               d="M 4.53125,0 V -0.390625 H 2.671875 v -3.4375 H 2.28125 v 3.4375 H 0.4375 V 0 Z m 0,0"
               id="id-2cfb1a6e-4fb7-40fd-9adf-17935e8182df" />
          </symbol>
        </g>
      </defs>
      <g
         id="id-1ef3bcf1-f70f-4f16-90d3-3cdf02bf0193"
         transform="translate(-155.254,-124.781)">
        <g
           style="fill:#000000;fill-opacity:1"
           id="id-342c75f6-bde5-471c-8078-608bfff96864">
          <g
             transform="translate(155.488,132.75)"
             id="g8718">
            <path
               style="stroke:none"
               d="M 4.59375,-6.859375 3.15625,-7.96875 2.890625,-7.828125 3.59375,-7.15625 H 0.171875 v 0.578125 H 3.59375 L 2.890625,-5.90625 3.15625,-5.765625 Z m 0,0"
               id="id-84770564-5247-4a0b-bff9-4d65998a4e2e" />
          </g>
        </g>
        <g
           style="fill:#000000;fill-opacity:1"
           id="id-b58ad3df-663e-4e5e-ad0e-fca4e3fcc705">
          <g
             transform="translate(155.02,135.207)"
             id="g8722">
            <path
               style="stroke:none"
               d="m 4.96875,-3.375 c 0,-0.734375 -0.515625,-1.25 -1.21875,-1.25 -0.734375,0 -1.28125,0.421875 -2.03125,1.578125 L 2.8125,-7.125 2.765625,-7.171875 c -0.53125,0.09375 -0.90625,0.15625 -1.609375,0.234375 V -6.75 c 0.625,0.015625 0.6875,0.046875 0.6875,0.28125 0,0.09375 -0.03125,0.203125 -0.09375,0.453125 L 1.6875,-5.8125 1.671875,-5.75 0.234375,-0.484375 V -0.4375 c 0,0.234375 0.8125,0.546875 1.40625,0.546875 1.578125,0 3.328125,-1.828125 3.328125,-3.484375 z m -0.890625,0.15625 c 0,0.703125 -0.53125,1.828125 -1.15625,2.46875 -0.390625,0.40625 -0.84375,0.625 -1.296875,0.625 -0.328125,0 -0.484375,-0.109375 -0.484375,-0.359375 0,-0.625 0.3125,-1.640625 0.765625,-2.421875 0.453125,-0.8125 0.921875,-1.203125 1.4375,-1.203125 0.453125,0 0.734375,0.34375 0.734375,0.890625 z m 0,0"
               id="id-ed60fd78-7c0e-4f21-8c83-d81fe722eb75" />
          </g>
        </g>
        <g
           style="fill:#000000;fill-opacity:1"
           id="id-a43a2975-8881-4432-a61f-44f495802533">
          <g
             transform="translate(160.659,136.782)"
             id="g8726">
            <path
               style="stroke:none"
               d="M 4.53125,0 V -0.390625 H 2.671875 v -3.4375 H 2.28125 v 3.4375 H 0.4375 V 0 Z m 0,0"
               id="id-232c7330-8b7d-45dc-81da-8dd0fd752d50" />
          </g>
        </g>
      </g>
    </g>
  </g>
</svg>
