<?xml version="1.0" encoding="UTF-8" standalone="no"?>
<!-- Created with Inkscape (http://www.inkscape.org/) -->

<svg
   width="70.726707mm"
   height="46.495884mm"
   viewBox="0 0 70.726707 46.495884"
   version="1.1"
   id="svg5"
   sodipodi:docname="vecProj.svg"
   inkscape:version="1.1.1 (3bf5ae0d25, 2021-09-20, custom)"
   xmlns:inkscape="http://www.inkscape.org/namespaces/inkscape"
   xmlns:sodipodi="http://sodipodi.sourceforge.net/DTD/sodipodi-0.dtd"
   xmlns="http://www.w3.org/2000/svg"
   xmlns:svg="http://www.w3.org/2000/svg"
   xmlns:ns1="http://www.iki.fi/pav/software/textext/">
  <sodipodi:namedview
     id="namedview7"
     pagecolor="#ffffff"
     bordercolor="#cccccc"
     borderopacity="1"
     inkscape:pageshadow="0"
     inkscape:pageopacity="1"
     inkscape:pagecheckerboard="0"
     inkscape:document-units="mm"
     showgrid="false"
     inkscape:zoom="2.2378227"
     inkscape:cx="49.154923"
     inkscape:cy="64.348262"
     inkscape:current-layer="layer1" />
  <defs
     id="defs2">
    <marker
       style="overflow:visible"
       id="marker1825"
       refX="0"
       refY="0"
       orient="auto"
       inkscape:stockid="Arrow2Lend"
       inkscape:isstock="true">
      <path
         transform="matrix(-1.1,0,0,-1.1,-1.1,0)"
         d="M 8.7185878,4.0337352 -2.2072895,0.01601326 8.7185884,-4.0017078 c -1.7454984,2.3720609 -1.7354408,5.6174519 -6e-7,8.035443 z"
         style="fill:context-stroke;fill-rule:evenodd;stroke:context-stroke;stroke-width:0.625;stroke-linejoin:round"
         id="path1823" />
    </marker>
    <marker
       style="overflow:visible"
       id="Arrow2Lend"
       refX="0"
       refY="0"
       orient="auto"
       inkscape:stockid="Arrow2Lend"
       inkscape:isstock="true">
      <path
         transform="matrix(-1.1,0,0,-1.1,-1.1,0)"
         d="M 8.7185878,4.0337352 -2.2072895,0.01601326 8.7185884,-4.0017078 c -1.7454984,2.3720609 -1.7354408,5.6174519 -6e-7,8.035443 z"
         style="fill:context-stroke;fill-rule:evenodd;stroke:context-stroke;stroke-width:0.625;stroke-linejoin:round"
         id="path880" />
    </marker>
    <defs
       id="id-b2475308-dc40-458d-ab8e-a3d6a3445765">
      <g
         id="id-6c036132-0af5-45c9-913d-61f2e0a7290d">
        <symbol
           overflow="visible"
           id="id-2870a8e2-5f96-4f3c-baae-86393b98c0fe">
          <path
             style="stroke:none"
             d=""
             id="id-af386807-c460-438f-9cd9-44be8de25e3e" />
        </symbol>
        <symbol
           overflow="visible"
           id="id-c9038bcb-be74-4486-9769-c9bff627af88">
          <path
             style="stroke:none"
             d="M 4.46875,-4.046875 C 4.46875,-4.375 4.203125,-4.625 3.890625,-4.625 c -0.234375,0 -0.40625,0.15625 -0.40625,0.390625 0,0.15625 0.078125,0.265625 0.296875,0.40625 0.203125,0.109375 0.265625,0.203125 0.265625,0.359375 0,0.40625 -0.375,1.21875 -1.28125,2.71875 L 2.5625,-1.96875 C 2.40625,-2.90625 1.8125,-4.625 1.65625,-4.625 H 1.515625 L 0.5,-4.4375 0.15625,-4.375 v 0.171875 c 0.125,-0.03125 0.21875,-0.03125 0.328125,-0.03125 0.421875,0 0.609375,0.15625 0.8125,0.671875 0.28125,0.703125 0.859375,3.0625 0.859375,3.484375 0,0.109375 -0.046875,0.234375 -0.109375,0.359375 -0.078125,0.140625 -0.5625,0.765625 -0.75,0.953125 C 1.0625,1.5 0.9375,1.578125 0.796875,1.578125 0.71875,1.578125 0.65625,1.546875 0.546875,1.46875 0.390625,1.34375 0.28125,1.296875 0.15625,1.296875 c -0.234375,0 -0.40625,0.171875 -0.40625,0.40625 0,0.265625 0.21875,0.453125 0.53125,0.453125 0.59375,0 1.734375,-1.203125 2.8125,-3 0.890625,-1.453125 1.375,-2.609375 1.375,-3.203125 z m 0,0"
             id="id-15d7be82-7231-4a2e-91a5-de9784ea9afb" />
        </symbol>
      </g>
    </defs>
  </defs>
  <g
     inkscape:label="Layer 1"
     inkscape:groupmode="layer"
     id="layer1"
     transform="translate(-83.497492,-117.55756)">
    <path
       style="font-variation-settings:normal;fill:#c0bfbc;fill-opacity:1;stroke:#000000;stroke-width:0.1;stroke-linecap:round;stroke-linejoin:round;stroke-miterlimit:4;stroke-dasharray:0.6, 0.6;stroke-dashoffset:0;stroke-opacity:1;stop-color:#000000"
       d="M 91.089865,136.67284 H 137.70192"
       id="path1394" />
    <path
       style="font-variation-settings:normal;fill:#c0bfbc;fill-opacity:1;stroke:#000000;stroke-width:0.0999998;stroke-linecap:round;stroke-linejoin:round;stroke-miterlimit:4;stroke-dasharray:0.6, 0.6;stroke-dashoffset:0;stroke-opacity:1;stop-color:#000000"
       d="m 137.70192,136.67284 v 19.51974"
       id="path1400" />
    <path
       style="font-variation-settings:normal;opacity:1;vector-effect:none;fill:none;fill-opacity:1;stroke:#000000;stroke-width:0.25;stroke-linecap:round;stroke-linejoin:round;stroke-miterlimit:4;stroke-dasharray:none;stroke-dashoffset:0;stroke-opacity:1;marker-end:url(#Arrow2Lend);stop-color:#000000;stop-opacity:1"
       d="M 91.074537,157.2567 H 149.37093"
       id="path857" />
    <path
       style="font-variation-settings:normal;opacity:1;vector-effect:none;fill:none;fill-opacity:1;stroke:#000000;stroke-width:0.25;stroke-linecap:round;stroke-linejoin:round;stroke-miterlimit:4;stroke-dasharray:none;stroke-dashoffset:0;stroke-opacity:1;marker-end:url(#Arrow2Lend);stop-color:#000000;stop-opacity:1"
       d="M 91.088061,157.30824 V 117.97549"
       id="path1243" />
    <path
       style="font-variation-settings:normal;opacity:1;vector-effect:none;fill:#9141ac;fill-opacity:1;stroke:#9141ac;stroke-width:0.25;stroke-linecap:round;stroke-linejoin:round;stroke-miterlimit:4;stroke-dasharray:none;stroke-dashoffset:0;stroke-opacity:1;marker-end:url(#marker1825);stop-color:#000000;stop-opacity:1"
       d="M 91.052789,157.28507 137.36719,136.84049"
       id="path1821" />
    <g
       transform="matrix(0.529167,0,0,0.529167,151.59503,160.09654)"
       ns1:version="1.6.1"
       ns1:texconverter="xelatex"
       ns1:pdfconverter="inkscape"
       ns1:text="$x$"
       ns1:preamble="/home/xiaocy/.config/inkscape/extensions/textext/default_packages.tex"
       ns1:scale="1.5"
       ns1:alignment="middle center"
       ns1:stroke-to-path="0"
       ns1:jacobian_sqrt="0.529167"
       id="g2040">
      <defs
         id="id-c18ed416-b150-477b-840b-87db7c397145">
        <g
           id="id-a833315b-074b-4147-9a7b-08af409284b7">
          <symbol
             overflow="visible"
             id="id-83ef0e37-15d2-4be0-85b8-488ac23b6dac">
            <path
               style="stroke:none;stroke-width:0"
               d=""
               id="id-48f40f04-d414-4e19-919e-9e3cf61fec9c" />
          </symbol>
          <symbol
             overflow="visible"
             id="id-c349fff2-f9b2-4c41-a19e-a606bd035a0c">
            <path
               style="stroke:none;stroke-width:0"
               d="M 4.375,-1.078125 4.21875,-1.171875 C 4.140625,-1.0625 4.078125,-1.015625 3.984375,-0.875 3.75,-0.5625 3.640625,-0.46875 3.5,-0.46875 c -0.15625,0 -0.25,-0.125 -0.3125,-0.421875 -0.03125,-0.09375 -0.03125,-0.15625 -0.046875,-0.171875 -0.25,-0.984375 -0.375,-1.546875 -0.375,-1.703125 0.453125,-0.8125 0.828125,-1.28125 1.03125,-1.28125 0.0625,0 0.15625,0.03125 0.25,0.09375 0.125,0.0625 0.1875,0.09375 0.296875,0.09375 0.203125,0 0.34375,-0.15625 0.34375,-0.375 0,-0.234375 -0.171875,-0.390625 -0.421875,-0.390625 -0.46875,0 -0.859375,0.375 -1.59375,1.5 L 2.5625,-3.703125 C 2.421875,-4.421875 2.296875,-4.625 2.015625,-4.625 1.78125,-4.625 1.4375,-4.546875 0.78125,-4.328125 L 0.671875,-4.28125 0.71875,-4.125 0.890625,-4.171875 c 0.203125,-0.046875 0.328125,-0.0625 0.40625,-0.0625 0.265625,0 0.328125,0.09375 0.484375,0.71875 L 2.078125,-2.21875 1.21875,-1 C 1,-0.6875 0.796875,-0.5 0.6875,-0.5 0.625,-0.5 0.515625,-0.53125 0.40625,-0.59375 0.265625,-0.65625 0.171875,-0.6875 0.078125,-0.6875 c -0.21875,0 -0.359375,0.15625 -0.359375,0.359375 0,0.28125 0.203125,0.4375 0.515625,0.4375 0.328125,0 0.453125,-0.09375 0.984375,-0.71875 l 0.9375,-1.234375 0.328125,1.25 c 0.125,0.546875 0.265625,0.703125 0.609375,0.703125 0.390625,0 0.671875,-0.25 1.28125,-1.1875 z m 0,0"
               id="id-06b5eea0-bae9-43e5-b11b-d3e5d5457715" />
          </symbol>
        </g>
      </defs>
      <g
         id="id-746870fb-1ab0-436a-a89b-420f4bb1b942"
         transform="translate(-154.487,-130.14)">
        <g
           style="fill:#000000;fill-opacity:1"
           id="id-29da6ef4-e9eb-45a1-aae9-914051e2ff34">
          <g
             transform="translate(154.768,134.765)"
             id="g2036">
            <path
               style="stroke:none;stroke-width:0"
               d="M 4.375,-1.078125 4.21875,-1.171875 C 4.140625,-1.0625 4.078125,-1.015625 3.984375,-0.875 3.75,-0.5625 3.640625,-0.46875 3.5,-0.46875 c -0.15625,0 -0.25,-0.125 -0.3125,-0.421875 -0.03125,-0.09375 -0.03125,-0.15625 -0.046875,-0.171875 -0.25,-0.984375 -0.375,-1.546875 -0.375,-1.703125 0.453125,-0.8125 0.828125,-1.28125 1.03125,-1.28125 0.0625,0 0.15625,0.03125 0.25,0.09375 0.125,0.0625 0.1875,0.09375 0.296875,0.09375 0.203125,0 0.34375,-0.15625 0.34375,-0.375 0,-0.234375 -0.171875,-0.390625 -0.421875,-0.390625 -0.46875,0 -0.859375,0.375 -1.59375,1.5 L 2.5625,-3.703125 C 2.421875,-4.421875 2.296875,-4.625 2.015625,-4.625 1.78125,-4.625 1.4375,-4.546875 0.78125,-4.328125 L 0.671875,-4.28125 0.71875,-4.125 0.890625,-4.171875 c 0.203125,-0.046875 0.328125,-0.0625 0.40625,-0.0625 0.265625,0 0.328125,0.09375 0.484375,0.71875 L 2.078125,-2.21875 1.21875,-1 C 1,-0.6875 0.796875,-0.5 0.6875,-0.5 0.625,-0.5 0.515625,-0.53125 0.40625,-0.59375 0.265625,-0.65625 0.171875,-0.6875 0.078125,-0.6875 c -0.21875,0 -0.359375,0.15625 -0.359375,0.359375 0,0.28125 0.203125,0.4375 0.515625,0.4375 0.328125,0 0.453125,-0.09375 0.984375,-0.71875 l 0.9375,-1.234375 0.328125,1.25 c 0.125,0.546875 0.265625,0.703125 0.609375,0.703125 0.390625,0 0.671875,-0.25 1.28125,-1.1875 z m 0,0"
               id="id-facd5852-679c-414d-91ad-c4938fdc58a5" />
          </g>
        </g>
      </g>
    </g>
    <g
       id="id-67f5140e-c312-46b9-85a7-6b451def7651"
       transform="matrix(0.529167,0,0,0.529167,2.1571261,49.433872)">
      <g
         style="fill:#000000;fill-opacity:1"
         id="id-77a1003f-8212-43f7-8a26-985e430365d6">
        <g
           transform="translate(155.188,134.765)"
           id="g2165">
          <path
             style="stroke:none"
             d="M 4.46875,-4.046875 C 4.46875,-4.375 4.203125,-4.625 3.890625,-4.625 c -0.234375,0 -0.40625,0.15625 -0.40625,0.390625 0,0.15625 0.078125,0.265625 0.296875,0.40625 0.203125,0.109375 0.265625,0.203125 0.265625,0.359375 0,0.40625 -0.375,1.21875 -1.28125,2.71875 L 2.5625,-1.96875 C 2.40625,-2.90625 1.8125,-4.625 1.65625,-4.625 H 1.515625 L 0.5,-4.4375 0.15625,-4.375 v 0.171875 c 0.125,-0.03125 0.21875,-0.03125 0.328125,-0.03125 0.421875,0 0.609375,0.15625 0.8125,0.671875 0.28125,0.703125 0.859375,3.0625 0.859375,3.484375 0,0.109375 -0.046875,0.234375 -0.109375,0.359375 -0.078125,0.140625 -0.5625,0.765625 -0.75,0.953125 C 1.0625,1.5 0.9375,1.578125 0.796875,1.578125 0.71875,1.578125 0.65625,1.546875 0.546875,1.46875 0.390625,1.34375 0.28125,1.296875 0.15625,1.296875 c -0.234375,0 -0.40625,0.171875 -0.40625,0.40625 0,0.265625 0.21875,0.453125 0.53125,0.453125 0.59375,0 1.734375,-1.203125 2.8125,-3 0.890625,-1.453125 1.375,-2.609375 1.375,-3.203125 z m 0,0"
             id="id-2abd3ca0-cfb0-4d4f-acbd-405e8d2e90d3" />
        </g>
      </g>
    </g>
    <g
       transform="matrix(0.529167,0,0,0.529167,84.225055,133.70931)"
       ns1:version="1.6.1"
       ns1:texconverter="xelatex"
       ns1:pdfconverter="inkscape"
       ns1:text="$r_y$"
       ns1:preamble="/home/xiaocy/.config/inkscape/extensions/textext/default_packages.tex"
       ns1:scale="1.5"
       ns1:alignment="middle center"
       ns1:stroke-to-path="0"
       ns1:jacobian_sqrt="1.0"
       id="g3604">
      <defs
         id="id-4b43c491-c4c1-430f-b677-02349467f065">
        <g
           id="id-33e7c496-3818-430e-b905-2df0461950af">
          <symbol
             overflow="visible"
             id="id-464df21b-0761-4f85-aa3a-32f6f58f373f">
            <path
               style="stroke:none;stroke-width:0"
               d=""
               id="id-7eed09de-3bdd-4648-8680-9e5bb905cbb9" />
          </symbol>
          <symbol
             overflow="visible"
             id="id-c2e61391-30cf-4b93-83c6-69c20d173acb">
            <path
               style="stroke:none;stroke-width:0"
               d="m 4.328125,-4.09375 c 0,-0.3125 -0.203125,-0.53125 -0.5,-0.53125 -0.234375,0 -0.515625,0.15625 -0.796875,0.4375 -0.421875,0.453125 -0.84375,1.0625 -1.015625,1.484375 l -0.140625,0.375 0.546875,-2.28125 -0.03125,-0.015625 -1.625,0.28125 v 0.171875 c 0.078125,0 0.171875,0 0.265625,0 0.234375,0 0.453125,0.03125 0.453125,0.25 0,0.140625 0,0.140625 -0.15625,0.859375 L 0.46875,0 H 1.265625 C 1.8125,-1.765625 1.96875,-2.1875 2.4375,-2.96875 c 0.359375,-0.625 0.671875,-0.984375 0.859375,-0.984375 0.078125,0 0.109375,0.046875 0.171875,0.15625 0.078125,0.171875 0.171875,0.234375 0.375,0.234375 0.3125,0 0.484375,-0.203125 0.484375,-0.53125 z m 0,0"
               id="id-652638d3-850f-4168-b488-1218d6b8dd89" />
          </symbol>
          <symbol
             overflow="visible"
             id="id-d8653686-f940-4025-86ea-870ae14b86ae">
            <path
               style="stroke:none;stroke-width:0"
               d=""
               id="id-9c59b028-47c8-44e2-bf1d-e19f7e63df3d" />
          </symbol>
          <symbol
             overflow="visible"
             id="id-376e4a78-5f05-460b-8335-0c3796876c1a">
            <path
               style="stroke:none;stroke-width:0"
               d="M 3.3125,-2.6875 C 3.296875,-2.90625 3.09375,-3.078125 2.859375,-3.078125 c -0.1875,0 -0.3125,0.109375 -0.296875,0.265625 0,0.109375 0.0625,0.171875 0.21875,0.265625 C 2.9375,-2.46875 2.984375,-2.40625 3,-2.3125 c 0,0.28125 -0.234375,0.765625 -0.890625,1.75 l -0.203125,-0.75 c -0.171875,-0.609375 -0.625,-1.765625 -0.75,-1.765625 H 1.125 L 1.046875,-3.0625 0.28125,-2.953125 0.015625,-2.90625 v 0.125 c 0.109375,-0.03125 0.15625,-0.03125 0.25,-0.03125 0.3125,0 0.484375,0.109375 0.640625,0.4375 0.234375,0.484375 0.71875,2.046875 0.734375,2.3125 0,0.078125 -0.046875,0.171875 -0.09375,0.25 C 1.484375,0.28125 1.140625,0.6875 1,0.828125 0.828125,1 0.75,1.046875 0.640625,1.046875 0.59375,1.046875 0.546875,1.03125 0.453125,0.96875 0.328125,0.890625 0.25,0.859375 0.140625,0.859375 c -0.171875,0 -0.296875,0.109375 -0.296875,0.265625 0,0.1875 0.1875,0.3125 0.421875,0.3125 0.5625,-0.015625 1.28125,-0.796875 2.0625,-2 0.640625,-0.96875 1,-1.734375 0.984375,-2.125 z m 0,0"
               id="id-f79bb8a5-69a0-4046-97a8-f552a484dee4" />
          </symbol>
        </g>
      </defs>
      <g
         id="id-c01a004e-dcf5-4641-be18-f966d4c62fb5"
         transform="translate(-155.069,-130.14)">
        <g
           style="fill:#000000;fill-opacity:1"
           id="id-d01c339d-3412-419d-b24f-b612c4191d36">
          <g
             transform="translate(154.6,134.765)"
             id="g3596">
            <path
               style="stroke:none;stroke-width:0"
               d="m 4.328125,-4.09375 c 0,-0.3125 -0.203125,-0.53125 -0.5,-0.53125 -0.234375,0 -0.515625,0.15625 -0.796875,0.4375 -0.421875,0.453125 -0.84375,1.0625 -1.015625,1.484375 l -0.140625,0.375 0.546875,-2.28125 -0.03125,-0.015625 -1.625,0.28125 v 0.171875 c 0.078125,0 0.171875,0 0.265625,0 0.234375,0 0.453125,0.03125 0.453125,0.25 0,0.140625 0,0.140625 -0.15625,0.859375 L 0.46875,0 H 1.265625 C 1.8125,-1.765625 1.96875,-2.1875 2.4375,-2.96875 c 0.359375,-0.625 0.671875,-0.984375 0.859375,-0.984375 0.078125,0 0.109375,0.046875 0.171875,0.15625 0.078125,0.171875 0.171875,0.234375 0.375,0.234375 0.3125,0 0.484375,-0.203125 0.484375,-0.53125 z m 0,0"
               id="id-879974c0-61f6-4cb7-81bd-aa4e908dad99" />
          </g>
        </g>
        <g
           style="fill:#000000;fill-opacity:1"
           id="id-2752e830-c8de-4d38-8bd2-0ce7774e2ee1">
          <g
             transform="translate(159.488,136.34)"
             id="g3600">
            <path
               style="stroke:none;stroke-width:0"
               d="M 3.3125,-2.6875 C 3.296875,-2.90625 3.09375,-3.078125 2.859375,-3.078125 c -0.1875,0 -0.3125,0.109375 -0.296875,0.265625 0,0.109375 0.0625,0.171875 0.21875,0.265625 C 2.9375,-2.46875 2.984375,-2.40625 3,-2.3125 c 0,0.28125 -0.234375,0.765625 -0.890625,1.75 l -0.203125,-0.75 c -0.171875,-0.609375 -0.625,-1.765625 -0.75,-1.765625 H 1.125 L 1.046875,-3.0625 0.28125,-2.953125 0.015625,-2.90625 v 0.125 c 0.109375,-0.03125 0.15625,-0.03125 0.25,-0.03125 0.3125,0 0.484375,0.109375 0.640625,0.4375 0.234375,0.484375 0.71875,2.046875 0.734375,2.3125 0,0.078125 -0.046875,0.171875 -0.09375,0.25 C 1.484375,0.28125 1.140625,0.6875 1,0.828125 0.828125,1 0.75,1.046875 0.640625,1.046875 0.59375,1.046875 0.546875,1.03125 0.453125,0.96875 0.328125,0.890625 0.25,0.859375 0.140625,0.859375 c -0.171875,0 -0.296875,0.109375 -0.296875,0.265625 0,0.1875 0.1875,0.3125 0.421875,0.3125 0.5625,-0.015625 1.28125,-0.796875 2.0625,-2 0.640625,-0.96875 1,-1.734375 0.984375,-2.125 z m 0,0"
               id="id-e33f0a91-fc08-45da-b1f9-662904d76cf9" />
          </g>
        </g>
      </g>
    </g>
    <g
       transform="matrix(0.529167,0,0,0.529167,135.52336,160.01408)"
       ns1:version="1.6.1"
       ns1:texconverter="xelatex"
       ns1:pdfconverter="inkscape"
       ns1:text="$r_x$"
       ns1:preamble="/home/xiaocy/.config/inkscape/extensions/textext/default_packages.tex"
       ns1:scale="1.5"
       ns1:alignment="middle center"
       ns1:stroke-to-path="0"
       ns1:jacobian_sqrt="1.0"
       id="g4038">
      <defs
         id="id-ad409be5-200f-4a14-b5c5-904f165f7829">
        <g
           id="id-f96b4ba9-e596-44af-b2b1-66fc6310b96b">
          <symbol
             overflow="visible"
             id="id-eea63813-b003-4a36-80ed-ede55666d700">
            <path
               style="stroke:none;stroke-width:0"
               d=""
               id="id-434d38cd-0dfe-45ae-962a-b55109805de6" />
          </symbol>
          <symbol
             overflow="visible"
             id="id-edeac8e8-6961-46ae-af66-36dd6bf2357d">
            <path
               style="stroke:none;stroke-width:0"
               d="m 4.328125,-4.09375 c 0,-0.3125 -0.203125,-0.53125 -0.5,-0.53125 -0.234375,0 -0.515625,0.15625 -0.796875,0.4375 -0.421875,0.453125 -0.84375,1.0625 -1.015625,1.484375 l -0.140625,0.375 0.546875,-2.28125 -0.03125,-0.015625 -1.625,0.28125 v 0.171875 c 0.078125,0 0.171875,0 0.265625,0 0.234375,0 0.453125,0.03125 0.453125,0.25 0,0.140625 0,0.140625 -0.15625,0.859375 L 0.46875,0 H 1.265625 C 1.8125,-1.765625 1.96875,-2.1875 2.4375,-2.96875 c 0.359375,-0.625 0.671875,-0.984375 0.859375,-0.984375 0.078125,0 0.109375,0.046875 0.171875,0.15625 0.078125,0.171875 0.171875,0.234375 0.375,0.234375 0.3125,0 0.484375,-0.203125 0.484375,-0.53125 z m 0,0"
               id="id-57534f80-362b-4672-b2a9-4f13efa94a81" />
          </symbol>
          <symbol
             overflow="visible"
             id="id-a8cc165d-bd08-4582-91e9-0b8e648dc138">
            <path
               style="stroke:none;stroke-width:0"
               d=""
               id="id-dfe04e30-2779-4c1d-8eef-8efa77735b91" />
          </symbol>
          <symbol
             overflow="visible"
             id="id-29133a01-e5b0-4e21-991a-a01e8234f984">
            <path
               style="stroke:none;stroke-width:0"
               d="m 3.234375,-0.71875 -0.09375,-0.0625 C 3.09375,-0.703125 3.046875,-0.671875 2.984375,-0.578125 2.828125,-0.375 2.75,-0.3125 2.65625,-0.3125 2.5625,-0.3125 2.515625,-0.390625 2.453125,-0.59375 2.4375,-0.65625 2.421875,-0.6875 2.421875,-0.703125 2.1875,-1.359375 2.09375,-1.734375 2.09375,-1.84375 2.40625,-2.375 2.671875,-2.6875 2.8125,-2.6875 c 0.046875,0 0.125,0.03125 0.1875,0.0625 0.09375,0.046875 0.15625,0.0625 0.21875,0.0625 0.15625,0 0.265625,-0.109375 0.25,-0.25 0,-0.15625 -0.140625,-0.265625 -0.328125,-0.265625 -0.359375,0 -0.640625,0.25 -1.171875,1 l -0.125,-0.375 c -0.125,-0.484375 -0.234375,-0.625 -0.4375,-0.625 -0.1875,0 -0.4375,0.0625 -0.9375,0.203125 l -0.078125,0.03125 0.03125,0.109375 0.125,-0.03125 c 0.15625,-0.03125 0.25,-0.046875 0.3125,-0.046875 0.203125,0 0.25,0.0625 0.375,0.484375 l 0.28125,0.84375 -0.625,0.828125 c -0.15625,0.203125 -0.3125,0.328125 -0.390625,0.328125 -0.046875,0 -0.125,-0.015625 -0.203125,-0.0625 -0.109375,-0.046875 -0.1875,-0.0625 -0.265625,-0.0625 -0.15625,0 -0.265625,0.09375 -0.25,0.234375 0,0.1875 0.15625,0.296875 0.40625,0.296875 0.25,0 0.328125,-0.0625 0.71875,-0.484375 l 0.6875,-0.8125 0.28125,0.828125 c 0.109375,0.359375 0.203125,0.46875 0.453125,0.46875 0.296875,0 0.5,-0.171875 0.90625,-0.796875 z m 0,0"
               id="id-d90e74ad-89df-4287-bebf-c67d404fefca" />
          </symbol>
        </g>
      </defs>
      <g
         id="id-ae8bddfd-95cc-4188-b3cf-ba04594e7c05"
         transform="translate(-155.069,-130.14)">
        <g
           style="fill:#000000;fill-opacity:1"
           id="id-50bee70c-1d00-44b8-99b6-c6a81c84517d">
          <g
             transform="translate(154.6,134.765)"
             id="g4030">
            <path
               style="stroke:none;stroke-width:0"
               d="m 4.328125,-4.09375 c 0,-0.3125 -0.203125,-0.53125 -0.5,-0.53125 -0.234375,0 -0.515625,0.15625 -0.796875,0.4375 -0.421875,0.453125 -0.84375,1.0625 -1.015625,1.484375 l -0.140625,0.375 0.546875,-2.28125 -0.03125,-0.015625 -1.625,0.28125 v 0.171875 c 0.078125,0 0.171875,0 0.265625,0 0.234375,0 0.453125,0.03125 0.453125,0.25 0,0.140625 0,0.140625 -0.15625,0.859375 L 0.46875,0 H 1.265625 C 1.8125,-1.765625 1.96875,-2.1875 2.4375,-2.96875 c 0.359375,-0.625 0.671875,-0.984375 0.859375,-0.984375 0.078125,0 0.109375,0.046875 0.171875,0.15625 0.078125,0.171875 0.171875,0.234375 0.375,0.234375 0.3125,0 0.484375,-0.203125 0.484375,-0.53125 z m 0,0"
               id="id-73d6d347-0a0f-4736-a768-a210e1a1123e" />
          </g>
        </g>
        <g
           style="fill:#000000;fill-opacity:1"
           id="id-00ad1fe3-c06a-4c95-8548-e785466290a6">
          <g
             transform="translate(159.523,136.34)"
             id="g4034">
            <path
               style="stroke:none;stroke-width:0"
               d="m 3.234375,-0.71875 -0.09375,-0.0625 C 3.09375,-0.703125 3.046875,-0.671875 2.984375,-0.578125 2.828125,-0.375 2.75,-0.3125 2.65625,-0.3125 2.5625,-0.3125 2.515625,-0.390625 2.453125,-0.59375 2.4375,-0.65625 2.421875,-0.6875 2.421875,-0.703125 2.1875,-1.359375 2.09375,-1.734375 2.09375,-1.84375 2.40625,-2.375 2.671875,-2.6875 2.8125,-2.6875 c 0.046875,0 0.125,0.03125 0.1875,0.0625 0.09375,0.046875 0.15625,0.0625 0.21875,0.0625 0.15625,0 0.265625,-0.109375 0.25,-0.25 0,-0.15625 -0.140625,-0.265625 -0.328125,-0.265625 -0.359375,0 -0.640625,0.25 -1.171875,1 l -0.125,-0.375 c -0.125,-0.484375 -0.234375,-0.625 -0.4375,-0.625 -0.1875,0 -0.4375,0.0625 -0.9375,0.203125 l -0.078125,0.03125 0.03125,0.109375 0.125,-0.03125 c 0.15625,-0.03125 0.25,-0.046875 0.3125,-0.046875 0.203125,0 0.25,0.0625 0.375,0.484375 l 0.28125,0.84375 -0.625,0.828125 c -0.15625,0.203125 -0.3125,0.328125 -0.390625,0.328125 -0.046875,0 -0.125,-0.015625 -0.203125,-0.0625 -0.109375,-0.046875 -0.1875,-0.0625 -0.265625,-0.0625 -0.15625,0 -0.265625,0.09375 -0.25,0.234375 0,0.1875 0.15625,0.296875 0.40625,0.296875 0.25,0 0.328125,-0.0625 0.71875,-0.484375 l 0.6875,-0.8125 0.28125,0.828125 c 0.109375,0.359375 0.203125,0.46875 0.453125,0.46875 0.296875,0 0.5,-0.171875 0.90625,-0.796875 z m 0,0"
               id="id-a2c41cf4-bf77-47a4-8537-1f5bd62a41b1" />
          </g>
        </g>
      </g>
    </g>
    <path
       style="font-variation-settings:normal;opacity:1;vector-effect:none;fill:#3584e4;fill-opacity:1;stroke:#3584e4;stroke-width:0.25;stroke-linecap:round;stroke-linejoin:round;stroke-miterlimit:4;stroke-dasharray:none;stroke-dashoffset:0;stroke-opacity:1;marker-end:url(#Arrow2Lend);stop-color:#000000;stop-opacity:1"
       d="m 90.98678,157.2536 h 15.22036"
       id="path2366" />
    <path
       style="font-variation-settings:normal;opacity:1;vector-effect:none;fill:#3584e4;fill-opacity:1;stroke:#3584e4;stroke-width:0.25;stroke-linecap:round;stroke-linejoin:round;stroke-miterlimit:4;stroke-dasharray:none;stroke-dashoffset:0;stroke-opacity:1;marker-end:url(#Arrow2Lend);stop-color:#000000;stop-opacity:1"
       d="M 91.085386,157.38413 V 142.11962"
       id="path2368" />
    <g
       transform="matrix(0.529167,0,0,0.529167,105.95827,159.00308)"
       ns1:version="1.6.1"
       ns1:texconverter="xelatex"
       ns1:pdfconverter="inkscape"
       ns1:text="$\\vec{e}_1$"
       ns1:preamble="/home/xiaocy/.config/inkscape/extensions/textext/default_packages.tex"
       ns1:scale="1.5"
       ns1:alignment="middle center"
       ns1:stroke-to-path="0"
       ns1:jacobian_sqrt="0.529167"
       id="g2444"
       style="fill:#3584e4">
      <defs
         id="id-2a191c1a-573a-4b56-9ee0-61446e017ed8">
        <g
           id="id-57e324d5-23b7-4ffe-9c48-1aa766f6efcd">
          <symbol
             overflow="visible"
             id="id-9d09ec98-90a1-4e1a-91a7-5498cfca4577">
            <path
               style="stroke:none"
               d=""
               id="id-805b3f10-10e9-4e70-b1c7-b51c9b262a1a" />
          </symbol>
          <symbol
             overflow="visible"
             id="id-524ba100-6e1e-4c0e-a6e1-674780a2c961">
            <path
               style="stroke:none"
               d="M 4.59375,-6.859375 3.15625,-7.96875 2.890625,-7.828125 3.59375,-7.15625 H 0.171875 v 0.578125 H 3.59375 L 2.890625,-5.90625 3.15625,-5.765625 Z m 0,0"
               id="id-6b681932-8402-4dd3-b451-b8c60869da93" />
          </symbol>
          <symbol
             overflow="visible"
             id="id-e6c0085a-0794-4f7a-9d9e-bd7a6e7a0d83">
            <path
               style="stroke:none"
               d=""
               id="id-020773db-90ea-4792-bce2-e6dd93ae8a06" />
          </symbol>
          <symbol
             overflow="visible"
             id="id-5e3141c6-ab0f-49a8-ba3e-fe0339060a9a">
            <path
               style="stroke:none"
               d="m 3.890625,-1.015625 -0.125,-0.125 C 3,-0.53125 2.671875,-0.359375 2.21875,-0.359375 c -0.59375,0 -0.984375,-0.375 -0.984375,-0.953125 0,-0.15625 0.03125,-0.296875 0.109375,-0.640625 L 1.640625,-2 c 1.578125,-0.21875 2.6875,-1.015625 2.6875,-1.921875 0,-0.4375 -0.3125,-0.703125 -0.84375,-0.703125 -1.515625,0 -3.15625,1.71875 -3.15625,3.296875 0,0.859375 0.5625,1.4375 1.390625,1.4375 0.734375,0 1.546875,-0.40625 2.171875,-1.125 z m -0.25,-2.96875 c 0,0.328125 -0.203125,0.703125 -0.53125,1.015625 -0.390625,0.375 -0.78125,0.5625 -1.6875,0.78125 L 1.59375,-2.640625 c 0.359375,-0.9375 1.140625,-1.75 1.671875,-1.75 0.21875,0 0.375,0.15625 0.375,0.40625 z m 0,0"
               id="id-0708cc41-0bae-4f33-8daf-ed0e093e510d" />
          </symbol>
          <symbol
             overflow="visible"
             id="id-90fd593d-751c-448b-a424-1dfb70682894">
            <path
               style="stroke:none"
               d=""
               id="id-fdc338b7-d4a9-476b-b5fc-11538525d491" />
          </symbol>
          <symbol
             overflow="visible"
             id="id-8fa972b5-4178-4661-b125-0c537bf849f4">
            <path
               style="stroke:none"
               d="M 3.296875,0 V -0.25 H 3.03125 c -0.703125,0 -0.703125,-0.09375 -0.703125,-0.328125 V -4.4375 c 0,-0.1875 0,-0.1875 -0.203125,-0.1875 -0.453125,0.4375 -1.078125,0.4375 -1.359375,0.4375 v 0.25 c 0.15625,0 0.625,0 1,-0.1875 v 3.546875 c 0,0.234375 0,0.328125 -0.6875,0.328125 H 0.8125 V 0 l 1.234375,-0.03125 z m 0,0"
               id="id-c0717898-6b0e-48f1-9997-ba656f2dfa95" />
          </symbol>
        </g>
      </defs>
      <g
         id="id-2bdcf9ad-3568-41fa-8cb9-e0a48bcbb515"
         transform="translate(-155.254,-126.796)"
         style="fill:#3584e4">
        <g
           style="fill:#3584e4;fill-opacity:1"
           id="id-a3f354a0-93e5-475c-80dc-51ec9f6b74fd">
          <g
             transform="translate(155.96,134.765)"
             id="g2586"
             style="fill:#3584e4">
            <path
               style="fill:#3584e4;stroke:none"
               d="M 4.59375,-6.859375 3.15625,-7.96875 2.890625,-7.828125 3.59375,-7.15625 H 0.171875 v 0.578125 H 3.59375 L 2.890625,-5.90625 3.15625,-5.765625 Z m 0,0"
               id="id-2c08539f-3ea0-46c0-abe5-59ce2d640005" />
          </g>
        </g>
        <g
           style="fill:#3584e4;fill-opacity:1"
           id="id-450d9501-6811-4535-983d-22778c623594">
          <g
             transform="translate(154.926,134.765)"
             id="g2590"
             style="fill:#3584e4">
            <path
               style="fill:#3584e4;stroke:none"
               d="m 3.890625,-1.015625 -0.125,-0.125 C 3,-0.53125 2.671875,-0.359375 2.21875,-0.359375 c -0.59375,0 -0.984375,-0.375 -0.984375,-0.953125 0,-0.15625 0.03125,-0.296875 0.109375,-0.640625 L 1.640625,-2 c 1.578125,-0.21875 2.6875,-1.015625 2.6875,-1.921875 0,-0.4375 -0.3125,-0.703125 -0.84375,-0.703125 -1.515625,0 -3.15625,1.71875 -3.15625,3.296875 0,0.859375 0.5625,1.4375 1.390625,1.4375 0.734375,0 1.546875,-0.40625 2.171875,-1.125 z m -0.25,-2.96875 c 0,0.328125 -0.203125,0.703125 -0.53125,1.015625 -0.390625,0.375 -0.78125,0.5625 -1.6875,0.78125 L 1.59375,-2.640625 c 0.359375,-0.9375 1.140625,-1.75 1.671875,-1.75 0.21875,0 0.375,0.15625 0.375,0.40625 z m 0,0"
               id="id-991d2746-bf50-4bec-8f63-c7567ea4334e" />
          </g>
        </g>
        <g
           style="fill:#3584e4;fill-opacity:1"
           id="id-c2ee1713-e16f-4f1d-a71f-08ca14cb7ec8">
          <g
             transform="translate(159.945,136.34)"
             id="g2594"
             style="fill:#3584e4">
            <path
               style="fill:#3584e4;stroke:none"
               d="M 3.296875,0 V -0.25 H 3.03125 c -0.703125,0 -0.703125,-0.09375 -0.703125,-0.328125 V -4.4375 c 0,-0.1875 0,-0.1875 -0.203125,-0.1875 -0.453125,0.4375 -1.078125,0.4375 -1.359375,0.4375 v 0.25 c 0.15625,0 0.625,0 1,-0.1875 v 3.546875 c 0,0.234375 0,0.328125 -0.6875,0.328125 H 0.8125 V 0 l 1.234375,-0.03125 z m 0,0"
               id="id-94677955-cddc-499f-b840-5da3544d9762" />
          </g>
        </g>
      </g>
    </g>
    <g
       transform="matrix(0.529167,0,0,0.529167,85.2412,140.77)"
       ns1:version="1.6.1"
       ns1:texconverter="xelatex"
       ns1:pdfconverter="inkscape"
       ns1:text="$\\vec{e}_1$"
       ns1:preamble="/home/xiaocy/.config/inkscape/extensions/textext/default_packages.tex"
       ns1:scale="1.5"
       ns1:alignment="middle center"
       ns1:stroke-to-path="0"
       ns1:jacobian_sqrt="0.529167"
       id="g2692"
       style="fill:#3584e4">
      <defs
         id="defs2670">
        <g
           id="g2668">
          <symbol
             overflow="visible"
             id="symbol2646">
            <path
               style="stroke:none"
               d=""
               id="path2644" />
          </symbol>
          <symbol
             overflow="visible"
             id="symbol2650">
            <path
               style="stroke:none"
               d="M 4.59375,-6.859375 3.15625,-7.96875 2.890625,-7.828125 3.59375,-7.15625 H 0.171875 v 0.578125 H 3.59375 L 2.890625,-5.90625 3.15625,-5.765625 Z m 0,0"
               id="path2648" />
          </symbol>
          <symbol
             overflow="visible"
             id="symbol2654">
            <path
               style="stroke:none"
               d=""
               id="path2652" />
          </symbol>
          <symbol
             overflow="visible"
             id="symbol2658">
            <path
               style="stroke:none"
               d="m 3.890625,-1.015625 -0.125,-0.125 C 3,-0.53125 2.671875,-0.359375 2.21875,-0.359375 c -0.59375,0 -0.984375,-0.375 -0.984375,-0.953125 0,-0.15625 0.03125,-0.296875 0.109375,-0.640625 L 1.640625,-2 c 1.578125,-0.21875 2.6875,-1.015625 2.6875,-1.921875 0,-0.4375 -0.3125,-0.703125 -0.84375,-0.703125 -1.515625,0 -3.15625,1.71875 -3.15625,3.296875 0,0.859375 0.5625,1.4375 1.390625,1.4375 0.734375,0 1.546875,-0.40625 2.171875,-1.125 z m -0.25,-2.96875 c 0,0.328125 -0.203125,0.703125 -0.53125,1.015625 -0.390625,0.375 -0.78125,0.5625 -1.6875,0.78125 L 1.59375,-2.640625 c 0.359375,-0.9375 1.140625,-1.75 1.671875,-1.75 0.21875,0 0.375,0.15625 0.375,0.40625 z m 0,0"
               id="path2656" />
          </symbol>
          <symbol
             overflow="visible"
             id="symbol2662">
            <path
               style="stroke:none"
               d=""
               id="path2660" />
          </symbol>
          <symbol
             overflow="visible"
             id="symbol2666">
            <path
               style="stroke:none"
               d="M 3.296875,0 V -0.25 H 3.03125 c -0.703125,0 -0.703125,-0.09375 -0.703125,-0.328125 V -4.4375 c 0,-0.1875 0,-0.1875 -0.203125,-0.1875 -0.453125,0.4375 -1.078125,0.4375 -1.359375,0.4375 v 0.25 c 0.15625,0 0.625,0 1,-0.1875 v 3.546875 c 0,0.234375 0,0.328125 -0.6875,0.328125 H 0.8125 V 0 l 1.234375,-0.03125 z m 0,0"
               id="path2664" />
          </symbol>
        </g>
      </defs>
      <g
         transform="translate(10.2048,4.52857)"
         ns1:version="1.6.1"
         ns1:texconverter="xelatex"
         ns1:pdfconverter="inkscape"
         ns1:text="$\\vec{e}_2$"
         ns1:preamble="/home/xiaocy/.config/inkscape/extensions/textext/default_packages.tex"
         ns1:scale="1.5"
         ns1:alignment="middle center"
         ns1:stroke-to-path="0"
         ns1:jacobian_sqrt="1.0"
         id="g3240">
        <defs
           id="id-11e0e342-ef2a-4336-943d-5415f337d46c">
          <g
             id="id-472bd726-e9d3-4b85-ab75-cb7a8c2e0160">
            <symbol
               overflow="visible"
               id="id-baab7716-14db-40f8-83f2-770cb5be2123">
              <path
                 style="stroke:none;stroke-width:0"
                 d=""
                 id="id-454a7331-c6ff-4085-8e00-1a8da23faa1c" />
            </symbol>
            <symbol
               overflow="visible"
               id="id-1aac93e9-b60c-4cf0-b059-e82f7937032b">
              <path
                 style="stroke:none;stroke-width:0"
                 d="M 4.59375,-6.859375 3.15625,-7.96875 2.890625,-7.828125 3.59375,-7.15625 H 0.171875 v 0.578125 H 3.59375 L 2.890625,-5.90625 3.15625,-5.765625 Z m 0,0"
                 id="id-4dcfbda0-ec90-480b-a7c9-c72c53f1b6f5" />
            </symbol>
            <symbol
               overflow="visible"
               id="id-0f04ffdf-d43f-4f32-9866-90382dadf8b4">
              <path
                 style="stroke:none;stroke-width:0"
                 d=""
                 id="id-8161e7d4-25d6-4c22-9db9-aec7e64ec462" />
            </symbol>
            <symbol
               overflow="visible"
               id="id-8878da80-3db5-4f71-810e-588709a234fa">
              <path
                 style="stroke:none;stroke-width:0"
                 d="m 3.890625,-1.015625 -0.125,-0.125 C 3,-0.53125 2.671875,-0.359375 2.21875,-0.359375 c -0.59375,0 -0.984375,-0.375 -0.984375,-0.953125 0,-0.15625 0.03125,-0.296875 0.109375,-0.640625 L 1.640625,-2 c 1.578125,-0.21875 2.6875,-1.015625 2.6875,-1.921875 0,-0.4375 -0.3125,-0.703125 -0.84375,-0.703125 -1.515625,0 -3.15625,1.71875 -3.15625,3.296875 0,0.859375 0.5625,1.4375 1.390625,1.4375 0.734375,0 1.546875,-0.40625 2.171875,-1.125 z m -0.25,-2.96875 c 0,0.328125 -0.203125,0.703125 -0.53125,1.015625 -0.390625,0.375 -0.78125,0.5625 -1.6875,0.78125 L 1.59375,-2.640625 c 0.359375,-0.9375 1.140625,-1.75 1.671875,-1.75 0.21875,0 0.375,0.15625 0.375,0.40625 z m 0,0"
                 id="id-e3a23dd2-7930-44fe-9c74-f7560e3f1ac1" />
            </symbol>
            <symbol
               overflow="visible"
               id="id-64d67639-fbde-43b3-ad0a-d6aaf63fac3e">
              <path
                 style="stroke:none;stroke-width:0"
                 d=""
                 id="id-cc78dd1b-bc53-452a-b81c-49d88dda0a81" />
            </symbol>
            <symbol
               overflow="visible"
               id="id-0a66a427-2300-458c-9a37-d03fd5a9a432">
              <path
                 style="stroke:none;stroke-width:0"
                 d="M 3.515625,-1.265625 H 3.28125 c -0.015625,0.15625 -0.09375,0.5625 -0.1875,0.625 C 3.046875,-0.59375 2.515625,-0.59375 2.40625,-0.59375 H 1.125 c 0.734375,-0.640625 0.984375,-0.84375 1.390625,-1.171875 0.515625,-0.40625 1,-0.84375 1,-1.5 0,-0.84375 -0.734375,-1.359375 -1.625,-1.359375 -0.859375,0 -1.453125,0.609375 -1.453125,1.25 0,0.34375 0.296875,0.390625 0.375,0.390625 0.15625,0 0.359375,-0.125 0.359375,-0.375 0,-0.125 -0.046875,-0.375 -0.40625,-0.375 C 0.984375,-4.21875 1.453125,-4.375 1.78125,-4.375 c 0.703125,0 1.0625,0.546875 1.0625,1.109375 0,0.609375 -0.4375,1.078125 -0.65625,1.328125 L 0.515625,-0.265625 C 0.4375,-0.203125 0.4375,-0.1875 0.4375,0 h 2.875 z m 0,0"
                 id="id-51898b62-15f0-4441-92dd-a474f296667c" />
            </symbol>
          </g>
        </defs>
        <g
           id="id-06056368-878c-400e-8dcf-3f8e85d9d776"
           transform="translate(-168.75412,-131.11901)"
           style="fill:#3584e4">
          <g
             style="fill:#3584e4;fill-opacity:1"
             id="id-70ef1fe2-485e-4db7-9099-b37fd453966e">
            <g
               transform="translate(155.96,134.765)"
               id="g3228"
               style="fill:#3584e4">
              <path
                 style="fill:#3584e4;stroke:none;stroke-width:0"
                 d="M 4.59375,-6.859375 3.15625,-7.96875 2.890625,-7.828125 3.59375,-7.15625 H 0.171875 v 0.578125 H 3.59375 L 2.890625,-5.90625 3.15625,-5.765625 Z m 0,0"
                 id="id-d83c371a-9c99-4419-97a7-ebf51c7498cd" />
            </g>
          </g>
          <g
             style="fill:#3584e4;fill-opacity:1"
             id="id-d15e24a4-adf8-46cc-9940-5d1259d30b69">
            <g
               transform="translate(154.926,134.765)"
               id="g3232"
               style="fill:#3584e4">
              <path
                 style="fill:#3584e4;stroke:none;stroke-width:0"
                 d="m 3.890625,-1.015625 -0.125,-0.125 C 3,-0.53125 2.671875,-0.359375 2.21875,-0.359375 c -0.59375,0 -0.984375,-0.375 -0.984375,-0.953125 0,-0.15625 0.03125,-0.296875 0.109375,-0.640625 L 1.640625,-2 c 1.578125,-0.21875 2.6875,-1.015625 2.6875,-1.921875 0,-0.4375 -0.3125,-0.703125 -0.84375,-0.703125 -1.515625,0 -3.15625,1.71875 -3.15625,3.296875 0,0.859375 0.5625,1.4375 1.390625,1.4375 0.734375,0 1.546875,-0.40625 2.171875,-1.125 z m -0.25,-2.96875 c 0,0.328125 -0.203125,0.703125 -0.53125,1.015625 -0.390625,0.375 -0.78125,0.5625 -1.6875,0.78125 L 1.59375,-2.640625 c 0.359375,-0.9375 1.140625,-1.75 1.671875,-1.75 0.21875,0 0.375,0.15625 0.375,0.40625 z m 0,0"
                 id="id-ec1c9424-6f8f-4995-8cca-454edea9d74a" />
            </g>
          </g>
          <g
             style="fill:#3584e4;fill-opacity:1"
             id="id-4eda5890-bd13-436e-80d7-688e668d0bd9">
            <g
               transform="translate(159.945,136.34)"
               id="g3236"
               style="fill:#3584e4">
              <path
                 style="fill:#3584e4;stroke:none;stroke-width:0"
                 d="M 3.515625,-1.265625 H 3.28125 c -0.015625,0.15625 -0.09375,0.5625 -0.1875,0.625 C 3.046875,-0.59375 2.515625,-0.59375 2.40625,-0.59375 H 1.125 c 0.734375,-0.640625 0.984375,-0.84375 1.390625,-1.171875 0.515625,-0.40625 1,-0.84375 1,-1.5 0,-0.84375 -0.734375,-1.359375 -1.625,-1.359375 -0.859375,0 -1.453125,0.609375 -1.453125,1.25 0,0.34375 0.296875,0.390625 0.375,0.390625 0.15625,0 0.359375,-0.125 0.359375,-0.375 0,-0.125 -0.046875,-0.375 -0.40625,-0.375 C 0.984375,-4.21875 1.453125,-4.375 1.78125,-4.375 c 0.703125,0 1.0625,0.546875 1.0625,1.109375 0,0.609375 -0.4375,1.078125 -0.65625,1.328125 L 0.515625,-0.265625 C 0.4375,-0.203125 0.4375,-0.1875 0.4375,0 h 2.875 z m 0,0"
                 id="id-c6cdd95b-05b5-46d4-9e51-caa0f5829574" />
            </g>
          </g>
        </g>
      </g>
    </g>
    <g
       transform="matrix(0.529167,0,0,0.529167,101.97031,128.88392)"
       ns1:version="1.6.1"
       ns1:texconverter="xelatex"
       ns1:pdfconverter="inkscape"
       ns1:text="$\\vec{r}=r_x \\vec{e}_1 + r_y \\vec{e}_2$"
       ns1:preamble="/home/xiaocy/.config/inkscape/extensions/textext/default_packages.tex"
       ns1:scale="1.5"
       ns1:alignment="middle center"
       ns1:stroke-to-path="0"
       ns1:jacobian_sqrt="0.529167"
       id="g2221"
       style="fill:#9141ac">
      <defs
         id="id-00271ea4-5987-4e2a-91cb-218a877becc3">
        <g
           id="id-feb7a1c5-e0b9-4551-a9e9-d2220f9ef671">
          <symbol
             overflow="visible"
             id="id-dc5c08f3-f434-473a-af26-8a79a481af9f">
            <path
               style="stroke:none"
               d=""
               id="id-307bec54-3c20-46e6-bbb4-f42053f2d075" />
          </symbol>
          <symbol
             overflow="visible"
             id="id-30e7e812-bacc-458e-889b-e65cc49676b8">
            <path
               style="stroke:none"
               d="M 4.59375,-6.859375 3.15625,-7.96875 2.890625,-7.828125 3.59375,-7.15625 H 0.171875 v 0.578125 H 3.59375 L 2.890625,-5.90625 3.15625,-5.765625 Z m 0,0"
               id="id-86d01bad-3d22-4079-97cf-0f49e2b4e570" />
          </symbol>
          <symbol
             overflow="visible"
             id="id-eeab3bc4-0a0e-4aba-aba5-e46658655e70">
            <path
               style="stroke:none"
               d="M 2.609375,-3 H 0.3125 v 0.6875 H 2.609375 V 0 H 3.3125 V -2.3125 H 5.609375 V -3 H 3.3125 V -5.3125 H 2.609375 Z m 0,0"
               id="id-98849431-8f9e-4a50-bb30-fbc185d4c6d0" />
          </symbol>
          <symbol
             overflow="visible"
             id="id-ca14d353-4053-450a-b87c-980b69e2fe1f">
            <path
               style="stroke:none"
               d=""
               id="id-4236d4da-5871-41ee-84c4-8aa229cd5223" />
          </symbol>
          <symbol
             overflow="visible"
             id="id-27ba81f8-0041-4b0e-9a30-2b283b88141a">
            <path
               style="stroke:none"
               d="m 4.328125,-4.09375 c 0,-0.3125 -0.203125,-0.53125 -0.5,-0.53125 -0.234375,0 -0.515625,0.15625 -0.796875,0.4375 -0.421875,0.453125 -0.84375,1.0625 -1.015625,1.484375 l -0.140625,0.375 0.546875,-2.28125 -0.03125,-0.015625 -1.625,0.28125 v 0.171875 c 0.078125,0 0.171875,0 0.265625,0 0.234375,0 0.453125,0.03125 0.453125,0.25 0,0.140625 0,0.140625 -0.15625,0.859375 L 0.46875,0 H 1.265625 C 1.8125,-1.765625 1.96875,-2.1875 2.4375,-2.96875 c 0.359375,-0.625 0.671875,-0.984375 0.859375,-0.984375 0.078125,0 0.109375,0.046875 0.171875,0.15625 0.078125,0.171875 0.171875,0.234375 0.375,0.234375 0.3125,0 0.484375,-0.203125 0.484375,-0.53125 z m 0,0"
               id="id-e77684bd-998b-4121-8b91-aef159a93c34" />
          </symbol>
          <symbol
             overflow="visible"
             id="id-f1c4ec99-f0b2-4df2-be03-fdef69edeb99">
            <path
               style="stroke:none"
               d="m 3.890625,-1.015625 -0.125,-0.125 C 3,-0.53125 2.671875,-0.359375 2.21875,-0.359375 c -0.59375,0 -0.984375,-0.375 -0.984375,-0.953125 0,-0.15625 0.03125,-0.296875 0.109375,-0.640625 L 1.640625,-2 c 1.578125,-0.21875 2.6875,-1.015625 2.6875,-1.921875 0,-0.4375 -0.3125,-0.703125 -0.84375,-0.703125 -1.515625,0 -3.15625,1.71875 -3.15625,3.296875 0,0.859375 0.5625,1.4375 1.390625,1.4375 0.734375,0 1.546875,-0.40625 2.171875,-1.125 z m -0.25,-2.96875 c 0,0.328125 -0.203125,0.703125 -0.53125,1.015625 -0.390625,0.375 -0.78125,0.5625 -1.6875,0.78125 L 1.59375,-2.640625 c 0.359375,-0.9375 1.140625,-1.75 1.671875,-1.75 0.21875,0 0.375,0.15625 0.375,0.40625 z m 0,0"
               id="id-f77da472-5078-4a9b-8931-2b4f78603622" />
          </symbol>
          <symbol
             overflow="visible"
             id="id-b91e1614-aedd-4f84-9456-2d0eea64e7d0">
            <path
               style="stroke:none"
               d=""
               id="id-15584639-c018-48d5-98e6-1fb7b2869f26" />
          </symbol>
          <symbol
             overflow="visible"
             id="id-5c41a918-44a3-451b-9c74-c5890b27ff20">
            <path
               style="stroke:none"
               d="m 5.796875,-3.46875 v -0.578125 h -5.375 v 0.578125 z m 0,2.140625 v -0.59375 h -5.375 v 0.59375 z m 0,0"
               id="id-41b2b28f-8e3e-4e74-ab1c-a62d73e2aa33" />
          </symbol>
          <symbol
             overflow="visible"
             id="id-f2a90c47-7e91-4884-9b03-64ef4282d51a">
            <path
               style="stroke:none"
               d=""
               id="id-c5b14ec2-8356-4845-ae2c-945fc60668e0" />
          </symbol>
          <symbol
             overflow="visible"
             id="id-7c2a5b4f-02e5-440c-97e9-5568ca542caf">
            <path
               style="stroke:none"
               d="m 3.234375,-0.71875 -0.09375,-0.0625 C 3.09375,-0.703125 3.046875,-0.671875 2.984375,-0.578125 2.828125,-0.375 2.75,-0.3125 2.65625,-0.3125 2.5625,-0.3125 2.515625,-0.390625 2.453125,-0.59375 2.4375,-0.65625 2.421875,-0.6875 2.421875,-0.703125 2.1875,-1.359375 2.09375,-1.734375 2.09375,-1.84375 2.40625,-2.375 2.671875,-2.6875 2.8125,-2.6875 c 0.046875,0 0.125,0.03125 0.1875,0.0625 0.09375,0.046875 0.15625,0.0625 0.21875,0.0625 0.15625,0 0.265625,-0.109375 0.25,-0.25 0,-0.15625 -0.140625,-0.265625 -0.328125,-0.265625 -0.359375,0 -0.640625,0.25 -1.171875,1 l -0.125,-0.375 c -0.125,-0.484375 -0.234375,-0.625 -0.4375,-0.625 -0.1875,0 -0.4375,0.0625 -0.9375,0.203125 l -0.078125,0.03125 0.03125,0.109375 0.125,-0.03125 c 0.15625,-0.03125 0.25,-0.046875 0.3125,-0.046875 0.203125,0 0.25,0.0625 0.375,0.484375 l 0.28125,0.84375 -0.625,0.828125 c -0.15625,0.203125 -0.3125,0.328125 -0.390625,0.328125 -0.046875,0 -0.125,-0.015625 -0.203125,-0.0625 -0.109375,-0.046875 -0.1875,-0.0625 -0.265625,-0.0625 -0.15625,0 -0.265625,0.09375 -0.25,0.234375 0,0.1875 0.15625,0.296875 0.40625,0.296875 0.25,0 0.328125,-0.0625 0.71875,-0.484375 l 0.6875,-0.8125 0.28125,0.828125 c 0.109375,0.359375 0.203125,0.46875 0.453125,0.46875 0.296875,0 0.5,-0.171875 0.90625,-0.796875 z m 0,0"
               id="id-ad66c738-51f1-464b-a946-9b8341b3ee81" />
          </symbol>
          <symbol
             overflow="visible"
             id="id-40e1c5c2-0690-4b1c-8a33-4e5cef9e0231">
            <path
               style="stroke:none"
               d="M 3.3125,-2.6875 C 3.296875,-2.90625 3.09375,-3.078125 2.859375,-3.078125 c -0.1875,0 -0.3125,0.109375 -0.296875,0.265625 0,0.109375 0.0625,0.171875 0.21875,0.265625 C 2.9375,-2.46875 2.984375,-2.40625 3,-2.3125 c 0,0.28125 -0.234375,0.765625 -0.890625,1.75 l -0.203125,-0.75 c -0.171875,-0.609375 -0.625,-1.765625 -0.75,-1.765625 H 1.125 L 1.046875,-3.0625 0.28125,-2.953125 0.015625,-2.90625 v 0.125 c 0.109375,-0.03125 0.15625,-0.03125 0.25,-0.03125 0.3125,0 0.484375,0.109375 0.640625,0.4375 0.234375,0.484375 0.71875,2.046875 0.734375,2.3125 0,0.078125 -0.046875,0.171875 -0.09375,0.25 C 1.484375,0.28125 1.140625,0.6875 1,0.828125 0.828125,1 0.75,1.046875 0.640625,1.046875 0.59375,1.046875 0.546875,1.03125 0.453125,0.96875 0.328125,0.890625 0.25,0.859375 0.140625,0.859375 c -0.171875,0 -0.296875,0.109375 -0.296875,0.265625 0,0.1875 0.1875,0.3125 0.421875,0.3125 0.5625,-0.015625 1.28125,-0.796875 2.0625,-2 0.640625,-0.96875 1,-1.734375 0.984375,-2.125 z m 0,0"
               id="id-8dad2507-1359-4f8c-842a-9429957ba15a" />
          </symbol>
          <symbol
             overflow="visible"
             id="id-33f9bde4-5d3c-4b4e-93d7-a534eb290690">
            <path
               style="stroke:none"
               d=""
               id="id-4d5436c8-dc2e-4e50-9854-3a924fb32c43" />
          </symbol>
          <symbol
             overflow="visible"
             id="id-2f8b7675-73fc-49e7-8ff9-83550bac2d54">
            <path
               style="stroke:none"
               d="M 3.296875,0 V -0.25 H 3.03125 c -0.703125,0 -0.703125,-0.09375 -0.703125,-0.328125 V -4.4375 c 0,-0.1875 0,-0.1875 -0.203125,-0.1875 -0.453125,0.4375 -1.078125,0.4375 -1.359375,0.4375 v 0.25 c 0.15625,0 0.625,0 1,-0.1875 v 3.546875 c 0,0.234375 0,0.328125 -0.6875,0.328125 H 0.8125 V 0 l 1.234375,-0.03125 z m 0,0"
               id="id-ee2140c2-3bbd-4bc9-a085-fd016b0d3637" />
          </symbol>
          <symbol
             overflow="visible"
             id="id-5b7124d5-3796-45a9-b7dd-fc81a8f61c81">
            <path
               style="stroke:none"
               d="M 3.515625,-1.265625 H 3.28125 c -0.015625,0.15625 -0.09375,0.5625 -0.1875,0.625 C 3.046875,-0.59375 2.515625,-0.59375 2.40625,-0.59375 H 1.125 c 0.734375,-0.640625 0.984375,-0.84375 1.390625,-1.171875 0.515625,-0.40625 1,-0.84375 1,-1.5 0,-0.84375 -0.734375,-1.359375 -1.625,-1.359375 -0.859375,0 -1.453125,0.609375 -1.453125,1.25 0,0.34375 0.296875,0.390625 0.375,0.390625 0.15625,0 0.359375,-0.125 0.359375,-0.375 0,-0.125 -0.046875,-0.375 -0.40625,-0.375 C 0.984375,-4.21875 1.453125,-4.375 1.78125,-4.375 c 0.703125,0 1.0625,0.546875 1.0625,1.109375 0,0.609375 -0.4375,1.078125 -0.65625,1.328125 L 0.515625,-0.265625 C 0.4375,-0.203125 0.4375,-0.1875 0.4375,0 h 2.875 z m 0,0"
               id="id-5c3d1d3d-13a6-4a0e-92b0-b783463b9ceb" />
          </symbol>
        </g>
      </defs>
      <g
         id="id-352a8fdb-d9ac-4fce-aa08-520a963586bb"
         transform="translate(-155.069,-126.796)"
         style="fill:#9141ac">
        <g
           style="fill:#9141ac;fill-opacity:1"
           id="id-0b0743b9-0168-4c09-be69-d2b7408ecc53">
          <g
             transform="translate(155.272,134.765)"
             id="g4771"
             style="fill:#9141ac">
            <path
               style="fill:#9141ac;stroke:none"
               d="M 4.59375,-6.859375 3.15625,-7.96875 2.890625,-7.828125 3.59375,-7.15625 H 0.171875 v 0.578125 H 3.59375 L 2.890625,-5.90625 3.15625,-5.765625 Z m 0,0"
               id="id-d2e27a87-5dd6-4a65-b4f0-f29be55ae498" />
          </g>
        </g>
        <g
           style="fill:#9141ac;fill-opacity:1"
           id="id-4b5659f3-0448-4e48-99a3-30d779f80db7">
          <g
             transform="translate(154.6,134.765)"
             id="g4775"
             style="fill:#9141ac">
            <path
               style="fill:#9141ac;stroke:none"
               d="m 4.328125,-4.09375 c 0,-0.3125 -0.203125,-0.53125 -0.5,-0.53125 -0.234375,0 -0.515625,0.15625 -0.796875,0.4375 -0.421875,0.453125 -0.84375,1.0625 -1.015625,1.484375 l -0.140625,0.375 0.546875,-2.28125 -0.03125,-0.015625 -1.625,0.28125 v 0.171875 c 0.078125,0 0.171875,0 0.265625,0 0.234375,0 0.453125,0.03125 0.453125,0.25 0,0.140625 0,0.140625 -0.15625,0.859375 L 0.46875,0 H 1.265625 C 1.8125,-1.765625 1.96875,-2.1875 2.4375,-2.96875 c 0.359375,-0.625 0.671875,-0.984375 0.859375,-0.984375 0.078125,0 0.109375,0.046875 0.171875,0.15625 0.078125,0.171875 0.171875,0.234375 0.375,0.234375 0.3125,0 0.484375,-0.203125 0.484375,-0.53125 z m 0,0"
               id="id-3bafc88f-e17c-42db-b545-0ae94f4a7f66" />
          </g>
        </g>
        <g
           style="fill:#9141ac;fill-opacity:1"
           id="id-2ce3066d-369b-4529-85c7-fbbfe92becbb">
          <g
             transform="translate(162.389,134.765)"
             id="g4779"
             style="fill:#9141ac">
            <path
               style="fill:#9141ac;stroke:none"
               d="m 5.796875,-3.46875 v -0.578125 h -5.375 v 0.578125 z m 0,2.140625 v -0.59375 h -5.375 v 0.59375 z m 0,0"
               id="id-71d4e751-f59a-45f9-834d-185d4b1a5cc6" />
          </g>
        </g>
        <g
           style="fill:#9141ac;fill-opacity:1"
           id="id-7dcfa81f-e04f-4cfe-8513-67073a50b45b">
          <g
             transform="translate(171.354,134.765)"
             id="g4783"
             style="fill:#9141ac">
            <path
               style="fill:#9141ac;stroke:none"
               d="m 4.328125,-4.09375 c 0,-0.3125 -0.203125,-0.53125 -0.5,-0.53125 -0.234375,0 -0.515625,0.15625 -0.796875,0.4375 -0.421875,0.453125 -0.84375,1.0625 -1.015625,1.484375 l -0.140625,0.375 0.546875,-2.28125 -0.03125,-0.015625 -1.625,0.28125 v 0.171875 c 0.078125,0 0.171875,0 0.265625,0 0.234375,0 0.453125,0.03125 0.453125,0.25 0,0.140625 0,0.140625 -0.15625,0.859375 L 0.46875,0 H 1.265625 C 1.8125,-1.765625 1.96875,-2.1875 2.4375,-2.96875 c 0.359375,-0.625 0.671875,-0.984375 0.859375,-0.984375 0.078125,0 0.109375,0.046875 0.171875,0.15625 0.078125,0.171875 0.171875,0.234375 0.375,0.234375 0.3125,0 0.484375,-0.203125 0.484375,-0.53125 z m 0,0"
               id="id-90467b5e-b551-4d44-829f-5783fc7b8659" />
          </g>
        </g>
        <g
           style="fill:#9141ac;fill-opacity:1"
           id="id-040136fa-9fcf-40f0-b19b-df9ee78aed6d">
          <g
             transform="translate(176.276,136.34)"
             id="g4787"
             style="fill:#9141ac">
            <path
               style="fill:#9141ac;stroke:none"
               d="m 3.234375,-0.71875 -0.09375,-0.0625 C 3.09375,-0.703125 3.046875,-0.671875 2.984375,-0.578125 2.828125,-0.375 2.75,-0.3125 2.65625,-0.3125 2.5625,-0.3125 2.515625,-0.390625 2.453125,-0.59375 2.4375,-0.65625 2.421875,-0.6875 2.421875,-0.703125 2.1875,-1.359375 2.09375,-1.734375 2.09375,-1.84375 2.40625,-2.375 2.671875,-2.6875 2.8125,-2.6875 c 0.046875,0 0.125,0.03125 0.1875,0.0625 0.09375,0.046875 0.15625,0.0625 0.21875,0.0625 0.15625,0 0.265625,-0.109375 0.25,-0.25 0,-0.15625 -0.140625,-0.265625 -0.328125,-0.265625 -0.359375,0 -0.640625,0.25 -1.171875,1 l -0.125,-0.375 c -0.125,-0.484375 -0.234375,-0.625 -0.4375,-0.625 -0.1875,0 -0.4375,0.0625 -0.9375,0.203125 l -0.078125,0.03125 0.03125,0.109375 0.125,-0.03125 c 0.15625,-0.03125 0.25,-0.046875 0.3125,-0.046875 0.203125,0 0.25,0.0625 0.375,0.484375 l 0.28125,0.84375 -0.625,0.828125 c -0.15625,0.203125 -0.3125,0.328125 -0.390625,0.328125 -0.046875,0 -0.125,-0.015625 -0.203125,-0.0625 -0.109375,-0.046875 -0.1875,-0.0625 -0.265625,-0.0625 -0.15625,0 -0.265625,0.09375 -0.25,0.234375 0,0.1875 0.15625,0.296875 0.40625,0.296875 0.25,0 0.328125,-0.0625 0.71875,-0.484375 l 0.6875,-0.8125 0.28125,0.828125 c 0.109375,0.359375 0.203125,0.46875 0.453125,0.46875 0.296875,0 0.5,-0.171875 0.90625,-0.796875 z m 0,0"
               id="id-6fae33a0-da24-4190-8dee-90148197da23" />
          </g>
        </g>
        <g
           style="fill:#9141ac;fill-opacity:1"
           id="id-e0abcd82-cf8b-4fba-8fb3-acddfd254b40">
          <g
             transform="translate(181.854,134.765)"
             id="g4791"
             style="fill:#9141ac">
            <path
               style="fill:#9141ac;stroke:none"
               d="M 4.59375,-6.859375 3.15625,-7.96875 2.890625,-7.828125 3.59375,-7.15625 H 0.171875 v 0.578125 H 3.59375 L 2.890625,-5.90625 3.15625,-5.765625 Z m 0,0"
               id="id-6c402c19-bb88-4807-870b-7bddb8026ced" />
          </g>
        </g>
        <g
           style="fill:#9141ac;fill-opacity:1"
           id="id-2b81c96a-b061-4872-8705-2258943f6de7">
          <g
             transform="translate(180.82,134.765)"
             id="g4795"
             style="fill:#9141ac">
            <path
               style="fill:#9141ac;stroke:none"
               d="m 3.890625,-1.015625 -0.125,-0.125 C 3,-0.53125 2.671875,-0.359375 2.21875,-0.359375 c -0.59375,0 -0.984375,-0.375 -0.984375,-0.953125 0,-0.15625 0.03125,-0.296875 0.109375,-0.640625 L 1.640625,-2 c 1.578125,-0.21875 2.6875,-1.015625 2.6875,-1.921875 0,-0.4375 -0.3125,-0.703125 -0.84375,-0.703125 -1.515625,0 -3.15625,1.71875 -3.15625,3.296875 0,0.859375 0.5625,1.4375 1.390625,1.4375 0.734375,0 1.546875,-0.40625 2.171875,-1.125 z m -0.25,-2.96875 c 0,0.328125 -0.203125,0.703125 -0.53125,1.015625 -0.390625,0.375 -0.78125,0.5625 -1.6875,0.78125 L 1.59375,-2.640625 c 0.359375,-0.9375 1.140625,-1.75 1.671875,-1.75 0.21875,0 0.375,0.15625 0.375,0.40625 z m 0,0"
               id="id-690d5de6-0015-4413-8bc2-2545b5b23cd0" />
          </g>
        </g>
        <g
           style="fill:#9141ac;fill-opacity:1"
           id="id-a6f0aa55-cb31-42e0-8e22-954691ba39fb">
          <g
             transform="translate(185.839,136.34)"
             id="g4799"
             style="fill:#9141ac">
            <path
               style="fill:#9141ac;stroke:none"
               d="M 3.296875,0 V -0.25 H 3.03125 c -0.703125,0 -0.703125,-0.09375 -0.703125,-0.328125 V -4.4375 c 0,-0.1875 0,-0.1875 -0.203125,-0.1875 -0.453125,0.4375 -1.078125,0.4375 -1.359375,0.4375 v 0.25 c 0.15625,0 0.625,0 1,-0.1875 v 3.546875 c 0,0.234375 0,0.328125 -0.6875,0.328125 H 0.8125 V 0 l 1.234375,-0.03125 z m 0,0"
               id="id-2874edca-786d-4024-8079-a666580999b8" />
          </g>
        </g>
        <g
           style="fill:#9141ac;fill-opacity:1"
           id="id-1f643059-ccce-48bb-8e75-017bd2921566">
          <g
             transform="translate(192.642,134.765)"
             id="g4803"
             style="fill:#9141ac">
            <path
               style="fill:#9141ac;stroke:none"
               d="M 2.609375,-3 H 0.3125 v 0.6875 H 2.609375 V 0 H 3.3125 V -2.3125 H 5.609375 V -3 H 3.3125 V -5.3125 H 2.609375 Z m 0,0"
               id="id-ff28d6d5-6abe-4bce-8eb3-c4e91dce6714" />
          </g>
        </g>
        <g
           style="fill:#9141ac;fill-opacity:1"
           id="id-493c1bbd-fe7c-4f9f-aae6-dc68d68fe18f">
          <g
             transform="translate(200.729,134.765)"
             id="g4807"
             style="fill:#9141ac">
            <path
               style="fill:#9141ac;stroke:none"
               d="m 4.328125,-4.09375 c 0,-0.3125 -0.203125,-0.53125 -0.5,-0.53125 -0.234375,0 -0.515625,0.15625 -0.796875,0.4375 -0.421875,0.453125 -0.84375,1.0625 -1.015625,1.484375 l -0.140625,0.375 0.546875,-2.28125 -0.03125,-0.015625 -1.625,0.28125 v 0.171875 c 0.078125,0 0.171875,0 0.265625,0 0.234375,0 0.453125,0.03125 0.453125,0.25 0,0.140625 0,0.140625 -0.15625,0.859375 L 0.46875,0 H 1.265625 C 1.8125,-1.765625 1.96875,-2.1875 2.4375,-2.96875 c 0.359375,-0.625 0.671875,-0.984375 0.859375,-0.984375 0.078125,0 0.109375,0.046875 0.171875,0.15625 0.078125,0.171875 0.171875,0.234375 0.375,0.234375 0.3125,0 0.484375,-0.203125 0.484375,-0.53125 z m 0,0"
               id="id-8e55cc54-d837-48c9-b409-923aa14c825b" />
          </g>
        </g>
        <g
           style="fill:#9141ac;fill-opacity:1"
           id="id-2826311c-5094-48dd-9548-5da643c74a8f">
          <g
             transform="translate(205.617,136.34)"
             id="g4811"
             style="fill:#9141ac">
            <path
               style="fill:#9141ac;stroke:none"
               d="M 3.3125,-2.6875 C 3.296875,-2.90625 3.09375,-3.078125 2.859375,-3.078125 c -0.1875,0 -0.3125,0.109375 -0.296875,0.265625 0,0.109375 0.0625,0.171875 0.21875,0.265625 C 2.9375,-2.46875 2.984375,-2.40625 3,-2.3125 c 0,0.28125 -0.234375,0.765625 -0.890625,1.75 l -0.203125,-0.75 c -0.171875,-0.609375 -0.625,-1.765625 -0.75,-1.765625 H 1.125 L 1.046875,-3.0625 0.28125,-2.953125 0.015625,-2.90625 v 0.125 c 0.109375,-0.03125 0.15625,-0.03125 0.25,-0.03125 0.3125,0 0.484375,0.109375 0.640625,0.4375 0.234375,0.484375 0.71875,2.046875 0.734375,2.3125 0,0.078125 -0.046875,0.171875 -0.09375,0.25 C 1.484375,0.28125 1.140625,0.6875 1,0.828125 0.828125,1 0.75,1.046875 0.640625,1.046875 0.59375,1.046875 0.546875,1.03125 0.453125,0.96875 0.328125,0.890625 0.25,0.859375 0.140625,0.859375 c -0.171875,0 -0.296875,0.109375 -0.296875,0.265625 0,0.1875 0.1875,0.3125 0.421875,0.3125 0.5625,-0.015625 1.28125,-0.796875 2.0625,-2 0.640625,-0.96875 1,-1.734375 0.984375,-2.125 z m 0,0"
               id="id-2367840e-3cc8-412b-a7a4-89d0fb03c9f1" />
          </g>
        </g>
        <g
           style="fill:#9141ac;fill-opacity:1"
           id="id-81919567-5e28-4e16-94d9-52f3f6299f8d">
          <g
             transform="translate(211.163,134.765)"
             id="g4815"
             style="fill:#9141ac">
            <path
               style="fill:#9141ac;stroke:none"
               d="M 4.59375,-6.859375 3.15625,-7.96875 2.890625,-7.828125 3.59375,-7.15625 H 0.171875 v 0.578125 H 3.59375 L 2.890625,-5.90625 3.15625,-5.765625 Z m 0,0"
               id="id-38003cef-3091-49df-9c66-33891f301d2a" />
          </g>
        </g>
        <g
           style="fill:#9141ac;fill-opacity:1"
           id="id-44f0f040-2dd6-4fdd-9d57-79ef1ce0e03a">
          <g
             transform="translate(210.129,134.765)"
             id="g4819"
             style="fill:#9141ac">
            <path
               style="fill:#9141ac;stroke:none"
               d="m 3.890625,-1.015625 -0.125,-0.125 C 3,-0.53125 2.671875,-0.359375 2.21875,-0.359375 c -0.59375,0 -0.984375,-0.375 -0.984375,-0.953125 0,-0.15625 0.03125,-0.296875 0.109375,-0.640625 L 1.640625,-2 c 1.578125,-0.21875 2.6875,-1.015625 2.6875,-1.921875 0,-0.4375 -0.3125,-0.703125 -0.84375,-0.703125 -1.515625,0 -3.15625,1.71875 -3.15625,3.296875 0,0.859375 0.5625,1.4375 1.390625,1.4375 0.734375,0 1.546875,-0.40625 2.171875,-1.125 z m -0.25,-2.96875 c 0,0.328125 -0.203125,0.703125 -0.53125,1.015625 -0.390625,0.375 -0.78125,0.5625 -1.6875,0.78125 L 1.59375,-2.640625 c 0.359375,-0.9375 1.140625,-1.75 1.671875,-1.75 0.21875,0 0.375,0.15625 0.375,0.40625 z m 0,0"
               id="id-8e016aed-8f51-44a4-a28b-10260f40afd1" />
          </g>
        </g>
        <g
           style="fill:#9141ac;fill-opacity:1"
           id="id-8bd4f62a-246f-4d73-9cb6-be3857f2de34">
          <g
             transform="translate(215.148,136.34)"
             id="g4823"
             style="fill:#9141ac">
            <path
               style="fill:#9141ac;stroke:none"
               d="M 3.515625,-1.265625 H 3.28125 c -0.015625,0.15625 -0.09375,0.5625 -0.1875,0.625 C 3.046875,-0.59375 2.515625,-0.59375 2.40625,-0.59375 H 1.125 c 0.734375,-0.640625 0.984375,-0.84375 1.390625,-1.171875 0.515625,-0.40625 1,-0.84375 1,-1.5 0,-0.84375 -0.734375,-1.359375 -1.625,-1.359375 -0.859375,0 -1.453125,0.609375 -1.453125,1.25 0,0.34375 0.296875,0.390625 0.375,0.390625 0.15625,0 0.359375,-0.125 0.359375,-0.375 0,-0.125 -0.046875,-0.375 -0.40625,-0.375 C 0.984375,-4.21875 1.453125,-4.375 1.78125,-4.375 c 0.703125,0 1.0625,0.546875 1.0625,1.109375 0,0.609375 -0.4375,1.078125 -0.65625,1.328125 L 0.515625,-0.265625 C 0.4375,-0.203125 0.4375,-0.1875 0.4375,0 h 2.875 z m 0,0"
               id="id-78f754bf-2a80-4aa8-9840-8bc8ddb37c24" />
          </g>
        </g>
      </g>
    </g>
  </g>
</svg>
